<?xml version="1.0" encoding="utf-8"?>
<!-- Generator: Adobe Illustrator 27.5.0, SVG Export Plug-In . SVG Version: 6.00 Build 0)  -->
<svg version="1.1" xmlns="http://www.w3.org/2000/svg" xmlns:xlink="http://www.w3.org/1999/xlink" x="0px" y="0px"
	 viewBox="0 0 500 500" style="enable-background:new 0 0 500 500;" xml:space="preserve">
<g id="Background_Complete">
	<g>
		<rect x="416.779" y="398.494" style="fill:#EBEBEB;" width="33.122" height="0.25"/>
		<rect x="322.527" y="401.208" style="fill:#EBEBEB;" width="8.693" height="0.25"/>
		<rect x="396.586" y="389.208" style="fill:#EBEBEB;" width="19.192" height="0.25"/>
		<rect x="52.459" y="390.888" style="fill:#EBEBEB;" width="43.193" height="0.25"/>
		<rect x="104.556" y="390.888" style="fill:#EBEBEB;" width="6.333" height="0.25"/>
		<rect x="131.471" y="395.111" style="fill:#EBEBEB;" width="93.676" height="0.25"/>
		<path style="fill:#EBEBEB;" d="M237.014,337.8H43.915c-3.147,0-5.708-2.561-5.708-5.708V60.66c0-3.147,2.561-5.708,5.708-5.708
			h193.099c3.146,0,5.707,2.561,5.707,5.708v271.432C242.721,335.239,240.16,337.8,237.014,337.8z M43.915,55.203
			c-3.01,0-5.458,2.448-5.458,5.458v271.432c0,3.01,2.448,5.458,5.458,5.458h193.099c3.009,0,5.457-2.448,5.457-5.458V60.66
			c0-3.009-2.448-5.458-5.457-5.458H43.915z"/>
		<path style="fill:#EBEBEB;" d="M453.31,337.8H260.212c-3.147,0-5.707-2.561-5.707-5.708V60.66c0-3.147,2.561-5.708,5.707-5.708
			H453.31c3.148,0,5.708,2.561,5.708,5.708v271.432C459.019,335.239,456.458,337.8,453.31,337.8z M260.212,55.203
			c-3.009,0-5.457,2.448-5.457,5.458v271.432c0,3.01,2.448,5.458,5.457,5.458H453.31c3.01,0,5.458-2.448,5.458-5.458V60.66
			c0-3.009-2.448-5.458-5.458-5.458H260.212z"/>
		<rect y="382.398" style="fill:#EBEBEB;" width="500" height="0.25"/>
	</g>
	<g>
		<polygon style="fill:#FAFAFA;" points="176.59,209.648 199.083,209.648 180.982,106.994 158.49,106.994 		"/>
		<polygon style="fill:#FAFAFA;" points="163.498,209.648 169.561,209.648 151.46,106.994 145.397,106.994 		"/>
		<polygon style="fill:#FAFAFA;" points="97.69,211.426 103.921,211.426 85.32,105.931 79.089,105.931 		"/>
		<polygon style="fill:#FAFAFA;" points="110.106,211.426 121.854,211.426 103.252,105.931 91.505,105.931 		"/>
		<g>
			<path style="fill:#E6E6E6;" d="M141.561,105.4h73.491v106.04h-73.491V105.4z M209.239,111.213h-61.866v94.414h61.866V111.213z"/>
		</g>
		<g>
			<path style="fill:#F5F5F5;" d="M65.163,102.493h152.796v111.853H65.163V102.493z M212.146,108.306H70.976v100.227h141.17V108.306
				z"/>
		</g>
	</g>
	<g>
		
			<rect x="331.526" y="90.807" transform="matrix(-1.836970e-16 1 -1 -1.836970e-16 470.286 -234.4789)" style="fill:#F5F5F5;" width="41.713" height="54.193"/>
		
			<rect x="334.735" y="94.976" transform="matrix(-1.836970e-16 1 -1 -1.836970e-16 470.286 -234.479)" style="fill:#EBEBEB;" width="35.295" height="45.855"/>
		
			<rect x="336.943" y="97.845" transform="matrix(-1.836970e-16 1 -1 -1.836970e-16 470.2859 -234.4789)" style="fill:#FAFAFA;" width="30.878" height="40.116"/>
		<circle style="fill:#F0F0F0;" cx="359.673" cy="114.497" r="8.315"/>
		<circle style="fill:#F5F5F5;" cx="347.247" cy="119.637" r="8.315"/>
	</g>
	<g>
		<rect x="385.465" y="110.233" style="fill:#E0E0E0;" width="24.816" height="32.24"/>
		<rect x="387.374" y="112.714" style="fill:#F0F0F0;" width="20.997" height="27.279"/>
		<rect x="391.091" y="117.542" style="fill:#FAFAFA;" width="13.564" height="17.623"/>
	</g>
	<g>
		<ellipse style="fill:#F5F5F5;" cx="306.392" cy="119.093" rx="11.836" ry="17.34"/>
		<ellipse style="fill:#EBEBEB;" cx="306.392" cy="119.092" rx="8.552" ry="12.529"/>
		<ellipse style="fill:#FAFAFA;" cx="306.392" cy="119.093" rx="6.047" ry="8.859"/>
	</g>
</g>
<g id="Background_Simple" style="display:none;">
	<g style="display:inline;">
		<path style="fill:#407BFF;" d="M142.416,324.08C116,302.261,36.663,240.602,63.695,172.948
			c28.171-70.505,85.284-60.565,153.135-22.889c63.363,35.184,75.187-43.416,160.894,4.175
			c72.566,40.295,79.696,178.07-44.94,217.733C257.112,396.048,172.273,348.741,142.416,324.08z"/>
		<path style="opacity:0.9;fill:#FFFFFF;" d="M142.416,324.08C116,302.261,36.663,240.602,63.695,172.948
			c28.171-70.505,85.284-60.565,153.135-22.889c63.363,35.184,75.187-43.416,160.894,4.175
			c72.566,40.295,79.696,178.07-44.94,217.733C257.112,396.048,172.273,348.741,142.416,324.08z"/>
	</g>
</g>
<g id="Shadow">
	<ellipse id="_x3C_Path_x3E__1_" style="fill:#F5F5F5;" cx="245.178" cy="412.391" rx="193.889" ry="11.323"/>
</g>
<g id="Furniture">
	<g>
		<g>
			<polygon style="fill:#263238;" points="398.109,411.75 242.335,411.75 240.42,406.502 398.109,406.502 			"/>
			<polygon style="opacity:0.2;fill:#FFFFFF;" points="398.109,411.75 242.335,411.75 240.42,406.502 398.109,406.502 			"/>
		</g>
		<polygon style="fill:#263238;" points="430.669,411.75 398.109,411.75 398.109,406.502 432.584,406.502 		"/>
		<g>
			<rect x="411.427" y="335.555" style="fill:#407BFF;" width="30.163" height="71.379"/>
			<rect x="411.427" y="335.555" style="opacity:0.5;fill:#FFFFFF;" width="30.163" height="71.379"/>
		</g>
		<g>
			<rect x="233.12" y="335.555" style="fill:#407BFF;" width="180.348" height="71.379"/>
			<rect x="233.12" y="335.555" style="opacity:0.7;fill:#FFFFFF;" width="180.348" height="71.379"/>
		</g>
		<path style="opacity:0.8;fill:#FFFFFF;" d="M289.982,341.305l-0.224,1.606c-0.115,0.828-1.217,1.462-2.538,1.462h-15.116
			c-1.321,0-2.423-0.635-2.538-1.462l-0.224-1.606h-29.735v18.82h80.11v-18.82H289.982z"/>
		<path style="opacity:0.8;fill:#FFFFFF;" d="M289.982,362.181l-0.224,1.606c-0.115,0.828-1.217,1.462-2.538,1.462h-15.116
			c-1.321,0-2.423-0.635-2.538-1.462l-0.224-1.606h-29.735v18.82h80.11v-18.82H289.982z"/>
		<path style="opacity:0.8;fill:#FFFFFF;" d="M289.982,383.057l-0.224,1.606c-0.115,0.828-1.217,1.462-2.538,1.462h-15.116
			c-1.321,0-2.423-0.635-2.538-1.462l-0.224-1.606h-29.735v18.82h80.11v-18.82H289.982z"/>
		<path style="opacity:0.8;fill:#FFFFFF;" d="M376.102,341.305l-0.224,1.606c-0.115,0.828-1.217,1.462-2.538,1.462h-15.116
			c-1.321,0-2.423-0.635-2.538-1.462l-0.224-1.606h-29.735v18.82h80.11v-18.82H376.102z"/>
		<path style="opacity:0.8;fill:#FFFFFF;" d="M376.102,362.181l-0.224,1.606c-0.115,0.828-1.217,1.462-2.538,1.462h-15.116
			c-1.321,0-2.423-0.635-2.538-1.462l-0.224-1.606h-29.735v18.82h80.11v-18.82H376.102z"/>
		<path style="opacity:0.8;fill:#FFFFFF;" d="M376.102,383.057l-0.224,1.606c-0.115,0.828-1.217,1.462-2.538,1.462h-15.116
			c-1.321,0-2.423-0.635-2.538-1.462l-0.224-1.606h-29.735v18.82h80.11v-18.82H376.102z"/>
	</g>
</g>
<g id="Device_2">
	<g>
		<g>
			<path style="fill:#263238;" d="M424.67,325.19H272.679c-4.277,0-7.442-3.468-7.067-7.745l9.489-108.456
				c0.374-4.277,4.145-7.745,8.423-7.745h151.991c4.277,0,7.442,3.468,7.068,7.745l-9.489,108.456
				C432.719,321.723,428.948,325.19,424.67,325.19z"/>
			<path style="opacity:0.4;fill:#FFFFFF;" d="M424.67,325.19H272.679c-4.277,0-7.442-3.468-7.067-7.745l9.489-108.456
				c0.374-4.277,4.145-7.745,8.423-7.745h151.991c4.277,0,7.442,3.468,7.068,7.745l-9.489,108.456
				C432.719,321.723,428.948,325.19,424.67,325.19z"/>
		</g>
		<path style="fill:#263238;" d="M421.908,325.19H269.917c-4.277,0-7.442-3.468-7.067-7.745l9.489-108.456
			c0.374-4.277,4.145-7.745,8.423-7.745h151.991c4.277,0,7.442,3.468,7.068,7.745l-9.489,108.456
			C429.957,321.723,426.186,325.19,421.908,325.19z"/>
		<path style="opacity:0.7;fill:#FFFFFF;" d="M421.908,325.19H269.917c-4.277,0-7.442-3.468-7.067-7.745l9.489-108.456
			c0.374-4.277,4.145-7.745,8.423-7.745h151.991c4.277,0,7.442,3.468,7.068,7.745l-9.489,108.456
			C429.957,321.723,426.186,325.19,421.908,325.19z"/>
		<polygon style="fill:#407BFF;" points="424.206,317.445 268.975,317.445 278.464,208.989 433.695,208.989 		"/>
		<polygon style="opacity:0.5;fill:#FFFFFF;" points="424.206,317.445 268.975,317.445 278.464,208.989 433.695,208.989 		"/>
		<g>
			<path style="fill:#263238;" d="M422.817,335.555H263.761c-5.794,0-10.491-4.697-10.491-10.491v-1.945h180.037v1.945
				C433.307,330.858,428.611,335.555,422.817,335.555z"/>
			<path style="opacity:0.2;fill:#FFFFFF;" d="M422.817,335.555H263.761c-5.794,0-10.491-4.697-10.491-10.491v-1.945h180.037v1.945
				C433.307,330.858,428.611,335.555,422.817,335.555z"/>
		</g>
		<path style="fill:#263238;" d="M410.261,335.555H251.205c-5.794,0-10.491-4.697-10.491-10.491v-1.945h180.037v1.945
			C420.752,330.858,416.055,335.555,410.261,335.555z"/>
		<path style="opacity:0.5;fill:#FFFFFF;" d="M410.261,335.555H251.205c-5.794,0-10.491-4.697-10.491-10.491v-1.945h180.037v1.945
			C420.752,330.858,416.055,335.555,410.261,335.555z"/>
		<path style="opacity:0.3;" d="M314.597,323.119c1.252,2.165,3.588,3.626,6.269,3.626H340.6c2.681,0,5.016-1.461,6.269-3.626
			H314.597z"/>
	</g>
</g>
<g id="Article">
	<g>
		<g>
			<g>
				<g>
					<path style="fill:#407BFF;" d="M415.626,296.997H250.977c-2.669,0-4.644-2.164-4.41-4.833l9.809-112.124
						c0.234-2.669,2.587-4.833,5.256-4.833h164.65c2.669,0,4.643,2.164,4.41,4.833l-9.81,112.124
						C420.648,294.834,418.295,296.997,415.626,296.997z"/>
					<path style="opacity:0.8;fill:#FFFFFF;" d="M415.626,296.997H250.977c-2.669,0-4.644-2.164-4.41-4.833l9.809-112.124
						c0.234-2.669,2.587-4.833,5.256-4.833h164.65c2.669,0,4.643,2.164,4.41,4.833l-9.81,112.124
						C420.648,294.834,418.295,296.997,415.626,296.997z"/>
				</g>
				<g>
					<path style="fill:#407BFF;" d="M426.281,175.208H261.632c-2.669,0-5.022,2.164-5.256,4.833l-0.493,5.634h174.315l0.493-5.634
						C430.925,177.371,428.951,175.208,426.281,175.208z"/>
					<path style="opacity:0.3;fill:#FFFFFF;" d="M426.281,175.208H261.632c-2.669,0-5.022,2.164-5.256,4.833l-0.493,5.634h174.315
						l0.493-5.634C430.925,177.371,428.951,175.208,426.281,175.208z"/>
				</g>
				<g>
					<path style="fill:#407BFF;" d="M266.246,180.441c-0.098,1.124-1.089,2.035-2.213,2.035c-1.124,0-1.955-0.911-1.857-2.035
						c0.098-1.124,1.089-2.035,2.213-2.035S266.345,179.317,266.246,180.441z"/>
					<path style="fill:#407BFF;" d="M273.321,180.441c-0.098,1.124-1.089,2.035-2.213,2.035c-1.124,0-1.955-0.911-1.857-2.035
						c0.098-1.124,1.089-2.035,2.213-2.035S273.419,179.317,273.321,180.441z"/>
					<path style="fill:#407BFF;" d="M280.396,180.441c-0.098,1.124-1.089,2.035-2.213,2.035c-1.124,0-1.955-0.911-1.857-2.035
						c0.098-1.124,1.089-2.035,2.213-2.035S280.494,179.317,280.396,180.441z"/>
				</g>
			</g>
			<g>
				<path style="fill:#263238;" d="M326.625,197.736h-3.024l-0.699,1.396h-1.544l3.473-6.513h1.488l2.342,6.513h-1.582
					L326.625,197.736z M326.251,196.591l-0.815-2.493l-1.251,2.493H326.251z"/>
				<path style="fill:#263238;" d="M333.49,199.131l-1.097-1.814h-0.075h-1.312l-0.159,1.814h-1.507l0.57-6.513h2.819
					c0.577,0,1.069,0.097,1.477,0.288c0.408,0.192,0.712,0.466,0.91,0.819c0.198,0.354,0.277,0.772,0.234,1.256
					c-0.042,0.484-0.195,0.901-0.458,1.251c-0.264,0.351-0.617,0.619-1.062,0.805l1.278,2.094H333.49z M333.546,194.139
					c-0.219-0.195-0.554-0.293-1.007-0.293h-1.228l-0.199,2.271h1.228c0.453,0,0.806-0.099,1.059-0.298
					c0.253-0.198,0.395-0.477,0.427-0.837C333.857,194.616,333.764,194.335,333.546,194.139z"/>
				<path style="fill:#263238;" d="M337.897,193.846h-2.084l0.108-1.228h5.676l-0.108,1.228h-2.084l-0.462,5.285h-1.508
					L337.897,193.846z"/>
				<path style="fill:#263238;" d="M342.405,192.618h1.507l-0.57,6.513h-1.507L342.405,192.618z"/>
				<path style="fill:#263238;" d="M346.232,198.81c-0.511-0.288-0.898-0.688-1.16-1.2c-0.262-0.512-0.365-1.09-0.309-1.735
					c0.056-0.645,0.261-1.224,0.613-1.735c0.352-0.511,0.808-0.912,1.37-1.2c0.562-0.288,1.178-0.432,1.847-0.432
					c0.564,0,1.066,0.099,1.504,0.298c0.439,0.198,0.797,0.484,1.074,0.856l-1.046,0.893c-0.396-0.508-0.919-0.762-1.571-0.762
					c-0.403,0-0.771,0.088-1.102,0.265c-0.332,0.176-0.6,0.423-0.804,0.74c-0.204,0.316-0.324,0.676-0.359,1.079
					c-0.035,0.404,0.021,0.763,0.171,1.08c0.149,0.316,0.374,0.563,0.675,0.74c0.301,0.176,0.653,0.265,1.056,0.265
					c0.651,0,1.22-0.257,1.705-0.772l0.889,0.893c-0.343,0.379-0.753,0.667-1.229,0.865c-0.477,0.198-0.997,0.298-1.561,0.298
					C347.33,199.243,346.743,199.099,346.232,198.81z"/>
				<path style="fill:#263238;" d="M352.277,192.618h1.507l-0.462,5.285h3.266l-0.107,1.228h-4.773L352.277,192.618z"/>
				<path style="fill:#263238;" d="M362.475,197.922l-0.106,1.209h-5.043l0.57-6.513h4.922l-0.106,1.21h-3.424l-0.124,1.414h3.024
					l-0.103,1.172h-3.024l-0.132,1.508H362.475z"/>
			</g>
			<g>
				<g>
					<path style="fill:#263238;" d="M320.282,264.581c11.711,0,23.423,0,35.134,0c1.122,0,1.277-1.745,0.153-1.745
						c-11.711,0-23.423,0-35.134,0C319.312,262.836,319.157,264.581,320.282,264.581L320.282,264.581z"/>
				</g>
				<g>
					<path style="fill:#263238;" d="M319.653,271.77c9.996,0,19.991,0,29.987,0c1.122,0,1.277-1.744,0.153-1.744
						c-9.996,0-19.991,0-29.987,0C318.683,270.026,318.528,271.77,319.653,271.77L319.653,271.77z"/>
				</g>
				<g>
					<path style="fill:#263238;" d="M319.024,278.96c11.221,0,22.442,0,33.663,0c1.122,0,1.277-1.745,0.153-1.745
						c-11.221,0-22.442,0-33.663,0C318.054,277.215,317.899,278.96,319.024,278.96L319.024,278.96z"/>
				</g>
				<g>
					<path style="fill:#263238;" d="M318.395,286.149c10.486,0,20.972,0,31.458,0c1.122,0,1.277-1.745,0.153-1.745
						c-10.486,0-20.972,0-31.458,0C317.425,284.405,317.27,286.149,318.395,286.149L318.395,286.149z"/>
				</g>
				<g>
					<path style="fill:#263238;" d="M270.553,264.581c11.533,0,23.066,0,34.599,0c1.122,0,1.277-1.745,0.153-1.745
						c-11.533,0-23.066,0-34.599,0C269.583,262.836,269.429,264.581,270.553,264.581L270.553,264.581z"/>
				</g>
				<g>
					<path style="fill:#263238;" d="M269.924,271.77c11.533,0,23.066,0,34.599,0c1.123,0,1.277-1.744,0.153-1.744
						c-11.533,0-23.066,0-34.599,0C268.954,270.026,268.8,271.77,269.924,271.77L269.924,271.77z"/>
				</g>
				<g>
					<path style="fill:#263238;" d="M269.295,278.96c13.004,0,26.007,0,39.011,0c1.122,0,1.277-1.745,0.153-1.745
						c-13.004,0-26.007,0-39.01,0C268.326,277.215,268.171,278.96,269.295,278.96L269.295,278.96z"/>
				</g>
				<g>
					<path style="fill:#263238;" d="M268.666,286.149c10.569,0,21.139,0,31.708,0c1.122,0,1.277-1.745,0.153-1.745
						c-10.569,0-21.139,0-31.708,0C267.697,284.405,267.542,286.149,268.666,286.149L268.666,286.149z"/>
				</g>
				<g>
					<path style="fill:#263238;" d="M271.811,250.202c11.533,0,23.066,0,34.599,0c1.122,0,1.277-1.744,0.153-1.744
						c-11.533,0-23.066,0-34.599,0C270.841,248.457,270.687,250.202,271.811,250.202L271.811,250.202z"/>
				</g>
				<g>
					<path style="fill:#263238;" d="M271.182,257.391c12.513,0,25.027,0,37.54,0c1.122,0,1.277-1.744,0.153-1.744
						c-12.513,0-25.027,0-37.54,0C270.212,255.647,270.058,257.391,271.182,257.391L271.182,257.391z"/>
				</g>
				<g>
					<path style="fill:#263238;" d="M366.133,264.581c11.956,0,23.913,0,35.869,0c1.122,0,1.277-1.745,0.153-1.745
						c-11.956,0-23.913,0-35.869,0C365.164,262.836,365.009,264.581,366.133,264.581L366.133,264.581z"/>
				</g>
				<g>
					<path style="fill:#263238;" d="M365.504,271.77c10.731,0,21.462,0,32.193,0c1.122,0,1.277-1.744,0.153-1.744
						c-10.731,0-21.462,0-32.193,0C364.535,270.026,364.38,271.77,365.504,271.77L365.504,271.77z"/>
				</g>
				<g>
					<path style="fill:#263238;" d="M364.875,278.96c11.466,0,22.932,0,34.399,0c1.122,0,1.277-1.745,0.153-1.745
						c-11.466,0-22.932,0-34.399,0C363.906,277.215,363.751,278.96,364.875,278.96L364.875,278.96z"/>
				</g>
				<g>
					<path style="fill:#263238;" d="M364.246,286.149c10.976,0,21.952,0,32.928,0c1.122,0,1.277-1.745,0.153-1.745
						c-10.976,0-21.952,0-32.928,0C363.277,284.405,363.122,286.149,364.246,286.149L364.246,286.149z"/>
				</g>
				<g>
					<g>
						<g>
							<g>
								<path style="fill:#263238;" d="M275.289,210.457c13.004,0,26.007,0,39.01,0c1.497,0,1.703-2.326,0.203-2.326
									c-13.003,0-26.007,0-39.01,0C273.995,208.131,273.789,210.457,275.289,210.457L275.289,210.457z"/>
							</g>
							<g>
								<path style="fill:#263238;" d="M274.66,217.646c11.778,0,23.556,0,35.334,0c1.497,0,1.703-2.326,0.203-2.326
									c-11.778,0-23.556,0-35.334,0C273.366,215.32,273.16,217.646,274.66,217.646L274.66,217.646z"/>
							</g>
							<g>
								<path style="fill:#263238;" d="M274.031,224.836c12.023,0,24.046,0,36.069,0c1.497,0,1.703-2.326,0.203-2.326
									c-12.023,0-24.046,0-36.069,0C272.737,222.51,272.531,224.836,274.031,224.836L274.031,224.836z"/>
							</g>
							<g>
								<path style="fill:#263238;" d="M273.402,232.025c10.062,0,20.125,0,30.187,0c1.497,0,1.703-2.326,0.204-2.326
									c-10.063,0-20.125,0-30.187,0C272.108,229.699,271.902,232.025,273.402,232.025L273.402,232.025z"/>
							</g>
						</g>
						<g style="opacity:0.2;">
							<g>
								<path style="fill:#FFFFFF;" d="M275.289,210.457c13.004,0,26.007,0,39.01,0c1.497,0,1.703-2.326,0.203-2.326
									c-13.003,0-26.007,0-39.01,0C273.995,208.131,273.789,210.457,275.289,210.457L275.289,210.457z"/>
							</g>
							<g>
								<path style="fill:#FFFFFF;" d="M274.66,217.646c11.778,0,23.556,0,35.334,0c1.497,0,1.703-2.326,0.203-2.326
									c-11.778,0-23.556,0-35.334,0C273.366,215.32,273.16,217.646,274.66,217.646L274.66,217.646z"/>
							</g>
							<g>
								<path style="fill:#FFFFFF;" d="M274.031,224.836c12.023,0,24.046,0,36.069,0c1.497,0,1.703-2.326,0.203-2.326
									c-12.023,0-24.046,0-36.069,0C272.737,222.51,272.531,224.836,274.031,224.836L274.031,224.836z"/>
							</g>
							<g>
								<path style="fill:#FFFFFF;" d="M273.402,232.025c10.062,0,20.125,0,30.187,0c1.497,0,1.703-2.326,0.204-2.326
									c-10.063,0-20.125,0-30.187,0C272.108,229.699,271.902,232.025,273.402,232.025L273.402,232.025z"/>
							</g>
						</g>
					</g>
					<g>
						<g style="opacity:0.2;">
							<path style="fill:#FFFFFF;" d="M320.282,264.581c11.711,0,23.423,0,35.134,0c1.122,0,1.277-1.745,0.153-1.745
								c-11.711,0-23.423,0-35.134,0C319.312,262.836,319.157,264.581,320.282,264.581L320.282,264.581z"/>
						</g>
						<g style="opacity:0.2;">
							<path style="fill:#FFFFFF;" d="M319.653,271.77c9.996,0,19.991,0,29.987,0c1.122,0,1.277-1.744,0.153-1.744
								c-9.996,0-19.991,0-29.987,0C318.683,270.026,318.528,271.77,319.653,271.77L319.653,271.77z"/>
						</g>
						<g style="opacity:0.2;">
							<path style="fill:#FFFFFF;" d="M319.024,278.96c11.221,0,22.442,0,33.663,0c1.122,0,1.277-1.745,0.153-1.745
								c-11.221,0-22.442,0-33.663,0C318.054,277.215,317.899,278.96,319.024,278.96L319.024,278.96z"/>
						</g>
						<g style="opacity:0.2;">
							<path style="fill:#FFFFFF;" d="M318.395,286.149c10.486,0,20.972,0,31.458,0c1.122,0,1.277-1.745,0.153-1.745
								c-10.486,0-20.972,0-31.458,0C317.425,284.405,317.27,286.149,318.395,286.149L318.395,286.149z"/>
						</g>
						<g style="opacity:0.2;">
							<path style="fill:#FFFFFF;" d="M270.553,264.581c11.533,0,23.066,0,34.599,0c1.122,0,1.277-1.745,0.153-1.745
								c-11.533,0-23.066,0-34.599,0C269.583,262.836,269.429,264.581,270.553,264.581L270.553,264.581z"/>
						</g>
						<g style="opacity:0.2;">
							<path style="fill:#FFFFFF;" d="M269.924,271.77c11.533,0,23.066,0,34.599,0c1.123,0,1.277-1.744,0.153-1.744
								c-11.533,0-23.066,0-34.599,0C268.954,270.026,268.8,271.77,269.924,271.77L269.924,271.77z"/>
						</g>
						<g style="opacity:0.2;">
							<path style="fill:#FFFFFF;" d="M269.295,278.96c13.004,0,26.007,0,39.011,0c1.122,0,1.277-1.745,0.153-1.745
								c-13.004,0-26.007,0-39.01,0C268.326,277.215,268.171,278.96,269.295,278.96L269.295,278.96z"/>
						</g>
						<g style="opacity:0.2;">
							<path style="fill:#FFFFFF;" d="M268.666,286.149c10.569,0,21.139,0,31.708,0c1.122,0,1.277-1.745,0.153-1.745
								c-10.569,0-21.139,0-31.708,0C267.697,284.405,267.542,286.149,268.666,286.149L268.666,286.149z"/>
						</g>
						<g style="opacity:0.2;">
							<path style="fill:#FFFFFF;" d="M271.811,250.202c11.533,0,23.066,0,34.599,0c1.122,0,1.277-1.744,0.153-1.744
								c-11.533,0-23.066,0-34.599,0C270.841,248.457,270.687,250.202,271.811,250.202L271.811,250.202z"/>
						</g>
						<g style="opacity:0.2;">
							<path style="fill:#FFFFFF;" d="M271.182,257.391c12.513,0,25.027,0,37.54,0c1.122,0,1.277-1.744,0.153-1.744
								c-12.513,0-25.027,0-37.54,0C270.212,255.647,270.058,257.391,271.182,257.391L271.182,257.391z"/>
						</g>
						<g style="opacity:0.2;">
							<path style="fill:#FFFFFF;" d="M366.133,264.581c11.956,0,23.913,0,35.869,0c1.122,0,1.277-1.745,0.153-1.745
								c-11.956,0-23.913,0-35.869,0C365.164,262.836,365.009,264.581,366.133,264.581L366.133,264.581z"/>
						</g>
						<g style="opacity:0.2;">
							<path style="fill:#FFFFFF;" d="M365.504,271.77c10.731,0,21.462,0,32.193,0c1.122,0,1.277-1.744,0.153-1.744
								c-10.731,0-21.462,0-32.193,0C364.535,270.026,364.38,271.77,365.504,271.77L365.504,271.77z"/>
						</g>
						<g style="opacity:0.2;">
							<path style="fill:#FFFFFF;" d="M364.875,278.96c11.466,0,22.932,0,34.399,0c1.122,0,1.277-1.745,0.153-1.745
								c-11.466,0-22.932,0-34.399,0C363.906,277.215,363.751,278.96,364.875,278.96L364.875,278.96z"/>
						</g>
						<g style="opacity:0.2;">
							<path style="fill:#FFFFFF;" d="M364.246,286.149c10.976,0,21.952,0,32.928,0c1.122,0,1.277-1.745,0.153-1.745
								c-10.976,0-21.952,0-32.928,0C363.277,284.405,363.122,286.149,364.246,286.149L364.246,286.149z"/>
						</g>
					</g>
					<g>
						<polygon style="opacity:0.5;fill:#FFFFFF;" points="320.212,256.519 402.708,256.519 407.111,206.192 324.615,206.192 						
							"/>
						<polygon style="fill:#407BFF;" points="348.659,222.51 324.781,256.519 366.586,256.519 						"/>
						<polygon style="opacity:0.2;fill:#FFFFFF;" points="348.659,222.51 324.781,256.519 366.586,256.519 						"/>
						<g>
							<polygon style="fill:#407BFF;" points="377.186,214.123 347.42,256.519 399.535,256.519 							"/>
							<polygon style="opacity:0.6;fill:#FFFFFF;" points="377.186,214.123 347.42,256.519 399.535,256.519 							"/>
						</g>
						<g>
							<path style="fill:#407BFF;" d="M367.094,216.483c-0.245,2.804-2.717,5.077-5.521,5.077c-2.804,0-4.878-2.273-4.633-5.077
								c0.245-2.804,2.717-5.077,5.521-5.077C365.265,211.406,367.34,213.679,367.094,216.483z"/>
							<path style="opacity:0.2;fill:#FFFFFF;" d="M367.094,216.483c-0.245,2.804-2.717,5.077-5.521,5.077
								c-2.804,0-4.878-2.273-4.633-5.077c0.245-2.804,2.717-5.077,5.521-5.077C365.265,211.406,367.34,213.679,367.094,216.483z"/>
						</g>
					</g>
				</g>
			</g>
		</g>
		<g>
			<path style="fill:#407BFF;" d="M366.355,307.749h-67.989c-2.736,0-4.76-2.218-4.521-4.954l0.486-5.557
				c0.239-2.736,2.651-4.954,5.388-4.954h67.989c2.736,0,4.76,2.218,4.521,4.954l-0.486,5.557
				C371.504,305.531,369.092,307.749,366.355,307.749z"/>
			<g style="opacity:0.8;">
				<path style="fill:#FFFFFF;" d="M316.759,297.048c0.408,0.192,0.711,0.466,0.91,0.819c0.198,0.353,0.276,0.772,0.234,1.256
					c-0.042,0.477-0.193,0.894-0.454,1.251c-0.261,0.357-0.612,0.63-1.053,0.819c-0.441,0.189-0.95,0.283-1.527,0.283h-1.312
					l-0.157,1.796h-1.507l0.57-6.513h2.819C315.859,296.759,316.351,296.857,316.759,297.048z M315.951,299.956
					c0.253-0.195,0.395-0.473,0.426-0.832c0.032-0.367-0.061-0.647-0.28-0.843c-0.219-0.195-0.554-0.293-1.007-0.293h-1.228
					l-0.198,2.261h1.228C315.345,300.249,315.698,300.151,315.951,299.956z"/>
				<path style="fill:#FFFFFF;" d="M319.361,302.612c-0.473-0.515-0.667-1.25-0.584-2.206l0.319-3.647h1.508l-0.314,3.592
					c-0.102,1.166,0.331,1.749,1.298,1.749c0.471,0,0.843-0.142,1.116-0.423c0.273-0.282,0.436-0.725,0.488-1.326l0.314-3.592h1.489
					l-0.319,3.647c-0.084,0.956-0.407,1.691-0.97,2.206c-0.563,0.515-1.309,0.772-2.24,0.772
					C320.536,303.384,319.834,303.127,319.361,302.612z"/>
				<path style="fill:#FFFFFF;" d="M331.816,300.476c0.187,0.276,0.262,0.616,0.227,1.019c-0.05,0.571-0.31,1.009-0.781,1.317
					c-0.47,0.307-1.13,0.46-1.98,0.46h-3.368l0.57-6.513h3.182c0.794,0,1.39,0.152,1.788,0.457c0.398,0.304,0.574,0.716,0.529,1.237
					c-0.028,0.316-0.128,0.598-0.302,0.846c-0.173,0.248-0.403,0.444-0.688,0.586C331.354,300.004,331.629,300.201,331.816,300.476z
					 M327.883,297.895l-0.134,1.535h1.498c0.372,0,0.66-0.065,0.864-0.195c0.203-0.13,0.317-0.323,0.339-0.577
					c0.022-0.254-0.058-0.445-0.238-0.572c-0.181-0.126-0.458-0.19-0.83-0.19H327.883z M330.185,301.942
					c0.213-0.13,0.331-0.332,0.355-0.605c0.047-0.54-0.329-0.809-1.13-0.809h-1.758l-0.141,1.61h1.758
					C329.667,302.138,329.972,302.073,330.185,301.942z"/>
				<path style="fill:#FFFFFF;" d="M333.602,296.759h1.507l-0.462,5.285h3.266l-0.107,1.228h-4.773L333.602,296.759z"/>
				<path style="fill:#FFFFFF;" d="M339.221,296.759h1.507l-0.57,6.513h-1.507L339.221,296.759z"/>
				<path style="fill:#FFFFFF;" d="M342.358,303.175c-0.469-0.139-0.839-0.321-1.111-0.544l0.611-1.135
					c0.261,0.204,0.578,0.369,0.952,0.493c0.374,0.124,0.753,0.186,1.138,0.186c0.428,0,0.75-0.064,0.966-0.191
					c0.216-0.127,0.333-0.296,0.351-0.507c0.013-0.154-0.036-0.283-0.148-0.386c-0.112-0.102-0.26-0.184-0.443-0.246
					c-0.184-0.062-0.434-0.13-0.75-0.205c-0.486-0.117-0.882-0.236-1.188-0.353c-0.306-0.118-0.561-0.307-0.765-0.568
					c-0.204-0.26-0.286-0.608-0.248-1.042c0.033-0.379,0.166-0.722,0.397-1.028c0.232-0.307,0.561-0.55,0.99-0.731
					c0.428-0.179,0.94-0.27,1.535-0.27c0.416,0,0.818,0.05,1.206,0.149c0.388,0.099,0.723,0.242,1.004,0.428l-0.565,1.144
					c-0.572-0.341-1.158-0.512-1.76-0.512c-0.422,0-0.74,0.069-0.953,0.205c-0.214,0.136-0.33,0.316-0.35,0.539
					c-0.02,0.223,0.082,0.39,0.305,0.498c0.223,0.108,0.569,0.216,1.037,0.321c0.486,0.117,0.882,0.236,1.188,0.354
					c0.306,0.117,0.561,0.304,0.765,0.558c0.204,0.254,0.287,0.599,0.249,1.033c-0.033,0.372-0.166,0.712-0.401,1.018
					c-0.235,0.307-0.568,0.551-0.999,0.731c-0.431,0.18-0.945,0.27-1.54,0.27C343.318,303.384,342.827,303.314,342.358,303.175z"/>
				<path style="fill:#FFFFFF;" d="M354.182,296.759l-0.57,6.513h-1.508l0.234-2.671h-2.959l-0.234,2.671h-1.507l0.57-6.513h1.507
					l-0.225,2.568h2.959l0.225-2.568H354.182z"/>
			</g>
		</g>
	</g>
</g>
<g id="Character">
	<g>
		<g>
			<path style="fill:#407BFF;" d="M82.891,331.374h37.766l-7.814-53.245c-1.973-13.44-13.832-24.161-26.727-24.161H76.33
				c-12.895,0-22.122,10.721-20.794,24.161l2.968,30.035L82.891,331.374z"/>
			<path style="opacity:0.1;fill:#FFFFFF;" d="M82.891,331.374h37.766l-7.814-53.245c-1.973-13.44-13.832-24.161-26.727-24.161
				H76.33c-12.895,0-22.122,10.721-20.794,24.161l2.968,30.035L82.891,331.374z"/>
			<path style="fill:#407BFF;" d="M131.793,331.374H71.934l-5.261-53.245c-1.328-13.44,7.899-24.161,20.794-24.161h9.785
				c12.895,0,24.754,10.721,26.727,24.161L131.793,331.374z"/>
			<path style="opacity:0.3;fill:#FFFFFF;" d="M131.793,331.374H71.934l-5.261-53.245c-1.328-13.44,7.899-24.161,20.794-24.161
				h9.785c12.895,0,24.754,10.721,26.727,24.161L131.793,331.374z"/>
		</g>
		<path style="fill:#407BFF;" d="M122.367,349.657c13.425-0.089,26.859-6.009,35.414-16.464
			c7.018-8.576,10.941-18.899,11.039-30.026c0.037-4.247-3.761-8.313-8.118-8.118h-25.255c-4.43,0.198-8.078,3.566-8.118,8.118
			c-0.008,0.915-0.031,1.828-0.096,2.741c-0.036,0.512-0.361,2.5-0.18,1.622c-0.354,1.811-0.736,3.597-1.308,5.36
			c-0.209,0.645-0.444,1.28-0.687,1.913c0.139-0.4-0.526,1.159-0.727,1.557c-0.827,1.636-1.789,3.177-2.813,4.694
			c-0.043,0.064-0.147,0.211-0.253,0.362c-0.148,0.192-0.35,0.456-0.425,0.543c-0.555,0.651-1.114,1.293-1.704,1.914
			c-0.662,0.696-1.35,1.368-2.062,2.013c-0.317,0.286-0.638,0.568-0.964,0.844c-0.093,0.079-0.559,0.439-0.815,0.642
			c-0.444,0.304-1.239,0.855-1.401,0.961c-0.72,0.469-1.455,0.913-2.204,1.333c-0.639,0.357-1.289,0.685-1.944,1.009
			c-1.338-0.697-2.688-1.346-3.971-2.167c-0.723-0.462-1.405-0.98-2.117-1.456c1.511,1.01-0.44-0.377-0.854-0.74
			c-1.446-1.266-2.798-2.64-4.039-4.107c-0.115-0.135-0.224-0.274-0.337-0.411c0.206,0.235-0.606-0.823-0.731-1.003
			c-0.547-0.796-1.063-1.612-1.549-2.446c-0.487-0.838-0.944-1.693-1.367-2.565c-0.189-0.389-0.358-0.787-0.546-1.176
			c0.842,1.751-0.047-0.18-0.155-0.477c-0.676-1.858-1.208-3.77-1.586-5.71c-0.085-0.435-0.14-0.882-0.233-1.315
			c0.415,1.924-0.008-0.15-0.041-0.517c-0.101-1.138-0.14-2.276-0.15-3.418c-0.037-4.245-3.707-8.315-8.118-8.118H58.697
			c-4.366,0.196-8.158,3.568-8.118,8.118c0.174,19.705,12.538,36.927,30.911,43.788c5.172,1.931,10.668,2.8,16.154,2.698
			L122.367,349.657z"/>
		<path style="opacity:0.4;fill:#FFFFFF;" d="M122.367,349.657c13.425-0.089,26.859-6.009,35.414-16.464
			c7.018-8.576,10.941-18.899,11.039-30.026c0.037-4.247-3.761-8.313-8.118-8.118h-25.255c-4.43,0.198-8.078,3.566-8.118,8.118
			c-0.008,0.915-0.031,1.828-0.096,2.741c-0.036,0.512-0.361,2.5-0.18,1.622c-0.354,1.811-0.736,3.597-1.308,5.36
			c-0.209,0.645-0.444,1.28-0.687,1.913c0.139-0.4-0.526,1.159-0.727,1.557c-0.827,1.636-1.789,3.177-2.813,4.694
			c-0.043,0.064-0.147,0.211-0.253,0.362c-0.148,0.192-0.35,0.456-0.425,0.543c-0.555,0.651-1.114,1.293-1.704,1.914
			c-0.662,0.696-1.35,1.368-2.062,2.013c-0.317,0.286-0.638,0.568-0.964,0.844c-0.093,0.079-0.559,0.439-0.815,0.642
			c-0.444,0.304-1.239,0.855-1.401,0.961c-0.72,0.469-1.455,0.913-2.204,1.333c-0.639,0.357-1.289,0.685-1.944,1.009
			c-1.338-0.697-2.688-1.346-3.971-2.167c-0.723-0.462-1.405-0.98-2.117-1.456c1.511,1.01-0.44-0.377-0.854-0.74
			c-1.446-1.266-2.798-2.64-4.039-4.107c-0.115-0.135-0.224-0.274-0.337-0.411c0.206,0.235-0.606-0.823-0.731-1.003
			c-0.547-0.796-1.063-1.612-1.549-2.446c-0.487-0.838-0.944-1.693-1.367-2.565c-0.189-0.389-0.358-0.787-0.546-1.176
			c0.842,1.751-0.047-0.18-0.155-0.477c-0.676-1.858-1.208-3.77-1.586-5.71c-0.085-0.435-0.14-0.882-0.233-1.315
			c0.415,1.924-0.008-0.15-0.041-0.517c-0.101-1.138-0.14-2.276-0.15-3.418c-0.037-4.245-3.707-8.315-8.118-8.118H58.697
			c-4.366,0.196-8.158,3.568-8.118,8.118c0.174,19.705,12.538,36.927,30.911,43.788c5.172,1.931,10.668,2.8,16.154,2.698
			L122.367,349.657z"/>
		<g>
			<path style="fill:#407BFF;" d="M152.585,303.167c-0.008,0.915-0.031,1.828-0.096,2.741c-0.041,0.573-0.444,3.001-0.095,1.194
				c-0.379,1.959-0.776,3.886-1.394,5.788c-0.269,0.829-0.575,1.644-0.893,2.455c0.651-1.662-0.277,0.533-0.521,1.015
				c-0.827,1.636-1.789,3.177-2.813,4.694c-0.142,0.211-0.943,1.331-0.316,0.471c0.625-0.856-0.194,0.237-0.362,0.434
				c-0.555,0.651-1.114,1.294-1.704,1.914c-0.662,0.696-1.35,1.368-2.062,2.013c-0.317,0.286-0.638,0.568-0.964,0.844
				c-0.171,0.145-1.597,1.235-0.681,0.567c0.756-0.551-1.267,0.86-1.536,1.036c-0.72,0.469-1.454,0.913-2.204,1.333
				c-0.754,0.422-1.523,0.804-2.298,1.186c-0.232,0.115-1.503,0.674-0.513,0.251c1.061-0.453-0.636,0.234-0.847,0.311
				c-1.649,0.6-3.342,1.087-5.059,1.453c-0.546,0.116-2.975,0.485-1.139,0.265c-1.125,0.135-2.254,0.228-3.386,0.268
				c-1.829,0.066-3.647-0.026-5.468-0.191c-0.424-0.039-1.496-0.332,0.157,0.025c-0.433-0.093-0.881-0.149-1.315-0.233
				c-0.975-0.19-1.942-0.421-2.899-0.687c-0.843-0.235-1.678-0.498-2.503-0.79c-0.409-0.145-0.81-0.327-1.223-0.457
				c-1.118-0.35,1.167,0.621,0.143,0.059c-1.61-0.884-3.266-1.621-4.821-2.616c-0.723-0.462-1.405-0.98-2.117-1.456
				c1.511,1.01-0.44-0.377-0.854-0.74c-1.446-1.266-2.798-2.64-4.039-4.107c-0.276-0.326-0.544-0.659-0.812-0.992
				c1.219,1.515-0.095-0.189-0.255-0.422c-0.547-0.795-1.063-1.612-1.549-2.446c-0.487-0.837-0.944-1.693-1.367-2.565
				c-0.189-0.389-0.358-0.787-0.546-1.176c0.842,1.751-0.047-0.18-0.155-0.476c-0.676-1.858-1.208-3.77-1.586-5.71
				c-0.085-0.435-0.14-0.882-0.233-1.315c0.415,1.924-0.008-0.15-0.041-0.517c-0.101-1.138-0.14-2.276-0.15-3.418
				c-0.037-4.245-3.707-8.315-8.118-8.118c-4.366,0.196-8.158,3.568-8.118,8.118c0.174,19.705,12.538,36.927,30.911,43.788
				c17.658,6.594,39.097,0.827,51.035-13.762c7.018-8.576,10.941-18.899,11.039-30.026c0.037-4.247-3.76-8.313-8.118-8.118
				C156.272,295.248,152.625,298.616,152.585,303.167L152.585,303.167z"/>
		</g>
		<g style="opacity:0.6;">
			<path style="fill:#FFFFFF;" d="M152.585,303.167c-0.008,0.915-0.031,1.828-0.096,2.741c-0.041,0.573-0.444,3.001-0.095,1.194
				c-0.379,1.959-0.776,3.886-1.394,5.788c-0.269,0.829-0.575,1.644-0.893,2.455c0.651-1.662-0.277,0.533-0.521,1.015
				c-0.827,1.636-1.789,3.177-2.813,4.694c-0.142,0.211-0.943,1.331-0.316,0.471c0.625-0.856-0.194,0.237-0.362,0.434
				c-0.555,0.651-1.114,1.294-1.704,1.914c-0.662,0.696-1.35,1.368-2.062,2.013c-0.317,0.286-0.638,0.568-0.964,0.844
				c-0.171,0.145-1.597,1.235-0.681,0.567c0.756-0.551-1.267,0.86-1.536,1.036c-0.72,0.469-1.454,0.913-2.204,1.333
				c-0.754,0.422-1.523,0.804-2.298,1.186c-0.232,0.115-1.503,0.674-0.513,0.251c1.061-0.453-0.636,0.234-0.847,0.311
				c-1.649,0.6-3.342,1.087-5.059,1.453c-0.546,0.116-2.975,0.485-1.139,0.265c-1.125,0.135-2.254,0.228-3.386,0.268
				c-1.829,0.066-3.647-0.026-5.468-0.191c-0.424-0.039-1.496-0.332,0.157,0.025c-0.433-0.093-0.881-0.149-1.315-0.233
				c-0.975-0.19-1.942-0.421-2.899-0.687c-0.843-0.235-1.678-0.498-2.503-0.79c-0.409-0.145-0.81-0.327-1.223-0.457
				c-1.118-0.35,1.167,0.621,0.143,0.059c-1.61-0.884-3.266-1.621-4.821-2.616c-0.723-0.462-1.405-0.98-2.117-1.456
				c1.511,1.01-0.44-0.377-0.854-0.74c-1.446-1.266-2.798-2.64-4.039-4.107c-0.276-0.326-0.544-0.659-0.812-0.992
				c1.219,1.515-0.095-0.189-0.255-0.422c-0.547-0.795-1.063-1.612-1.549-2.446c-0.487-0.837-0.944-1.693-1.367-2.565
				c-0.189-0.389-0.358-0.787-0.546-1.176c0.842,1.751-0.047-0.18-0.155-0.476c-0.676-1.858-1.208-3.77-1.586-5.71
				c-0.085-0.435-0.14-0.882-0.233-1.315c0.415,1.924-0.008-0.15-0.041-0.517c-0.101-1.138-0.14-2.276-0.15-3.418
				c-0.037-4.245-3.707-8.315-8.118-8.118c-4.366,0.196-8.158,3.568-8.118,8.118c0.174,19.705,12.538,36.927,30.911,43.788
				c17.658,6.594,39.097,0.827,51.035-13.762c7.018-8.576,10.941-18.899,11.039-30.026c0.037-4.247-3.76-8.313-8.118-8.118
				C156.272,295.248,152.625,298.616,152.585,303.167L152.585,303.167z"/>
		</g>
		<g>
			<path style="fill:#407BFF;" d="M112.112,400.667l-0.936-0.544v-50.461c0-1.205-0.977-2.181-2.181-2.181h-6.167
				c-1.205,0-2.181,0.977-2.181,2.181v50.461l-0.936,0.544c-6.035,3.51-12.892,5.359-19.874,5.359h0
				c-2.989,0-5.412,2.423-5.412,5.412l0,0h62.974l0,0c0-2.989-2.423-5.412-5.412-5.412l0,0
				C125.004,406.026,118.147,404.177,112.112,400.667z"/>
			<path style="opacity:0.2;" d="M111.176,355.056v-5.395c0-1.205-0.977-2.181-2.181-2.181h-6.167c-1.205,0-2.181,0.977-2.181,2.181
				v5.395H111.176z"/>
		</g>
	</g>
	<g>
		<path style="fill:#2E353A;" d="M116.953,208.036c0,0-11.736,12.505-4.766,21.934l-0.164-3.198c0,0,0.979,5.74,15.946,6.806
			c14.967,1.066,11.128-8.678,11.128-8.678s1.007,2.856,3.243,3.184c0,0-2.822-3.142-1.769-9.074
			c1.053-5.932,5.365-9.019-1.474-13.967c0,0,0.559-5.403-11.495-3.972C115.549,202.501,116.953,208.036,116.953,208.036z"/>
		<g>
			<g>
				<path style="fill:#407BFF;" d="M146.561,240.274c-2.129-0.266-3.49-3.307-3.198-5.648c0.292-2.341,2.359-4.954,4.488-4.689
					c0.589,0.074,0.931,0.373,1.113,0.612c0.614,0.801,0.43,2.115,0.196,3.778c-0.045,0.323-0.092,0.659-0.136,1.006
					c-0.043,0.346-0.08,0.684-0.116,1.008c-0.183,1.67-0.327,2.988-1.119,3.614C147.554,240.141,147.15,240.347,146.561,240.274z
					 M147.67,231.384c-0.841-0.105-2.587,1.236-2.86,3.422c-0.273,2.187,1.09,3.916,1.932,4.021
					c0.107,0.013,0.133-0.007,0.145-0.016c0.313-0.247,0.457-1.568,0.573-2.628c0.036-0.331,0.074-0.676,0.118-1.03
					c0.044-0.354,0.092-0.698,0.139-1.027c0.148-1.057,0.333-2.372,0.09-2.689C147.798,231.424,147.777,231.397,147.67,231.384z"/>
			</g>
			<g style="opacity:0.5;">
				<path d="M146.561,240.274c-2.129-0.266-3.49-3.307-3.198-5.648c0.292-2.341,2.359-4.954,4.488-4.689
					c0.589,0.074,0.931,0.373,1.113,0.612c0.614,0.801,0.43,2.115,0.196,3.778c-0.045,0.323-0.092,0.659-0.136,1.006
					c-0.043,0.346-0.08,0.684-0.116,1.008c-0.183,1.67-0.327,2.988-1.119,3.614C147.554,240.141,147.15,240.347,146.561,240.274z
					 M147.67,231.384c-0.841-0.105-2.587,1.236-2.86,3.422c-0.273,2.187,1.09,3.916,1.932,4.021
					c0.107,0.013,0.133-0.007,0.145-0.016c0.313-0.247,0.457-1.568,0.573-2.628c0.036-0.331,0.074-0.676,0.118-1.03
					c0.044-0.354,0.092-0.698,0.139-1.027c0.148-1.057,0.333-2.372,0.09-2.689C147.798,231.424,147.777,231.397,147.67,231.384z"/>
			</g>
		</g>
		<path style="fill:#407BFF;" d="M163.484,255.045c0,0-27.066-21.714-29.349-13.726c-3.053,10.681,27.832,19.787,27.832,19.787
			S164.837,261.596,163.484,255.045z"/>
		<path style="opacity:0.2;" d="M160.467,258.813c2.692,1.499,2.301-1.616,1.202-5.185c-1.761-1.354-4.641-3.512-7.893-5.737
			C154.503,250.779,156.413,256.556,160.467,258.813z"/>
		<path style="opacity:0.2;" d="M139.529,241.813l-1.567,2.5v5.291c2.407,2.081,5.624,3.98,8.928,5.606l0,0
			c-5.577-3.103-6.986-12.781-6.986-12.781L139.529,241.813z"/>
		<path style="fill:#407BFF;" d="M107.127,238.608c-1.711-0.043-3.106,1.358-3.058,3.068c0.241,8.614,0.774,32.561-0.435,41.958
			c-0.936,7.275-6.617,28.584-6.617,28.584l40.229-17.935c0,0-0.578-13.383,0-17.794c0.534-4.074,3.908-11.784,4.235-15.88
			c0.27-3.379-1.27-10.102-1.372-13.49c-0.037-1.215,0.098-3.768,0.203-5.481c0.057-0.939-0.668-1.74-1.608-1.778L107.127,238.608z"
			/>
		<g>
			<polygon style="fill:#B97964;" points="197.06,371.149 199.797,382.971 194.06,384.294 190.62,373.289 			"/>
			<g>
				<path style="fill:#407BFF;" d="M201.576,382.928c-0.066,0.001-0.127-0.038-0.154-0.099c-0.026-0.062-0.011-0.133,0.038-0.179
					c0.087-0.081,2.075-1.904,3.237-1.852c0.216,0.007,0.421,0.097,0.571,0.252c0.192,0.166,0.258,0.435,0.165,0.672
					c-0.19,0.411-0.998,0.751-1.812,0.936C202.949,382.808,202.264,382.898,201.576,382.928z M202.031,382.606
					c1.253-0.126,2.902-0.512,3.109-1.007c0.032-0.063,0.051-0.165-0.108-0.332c-0.089-0.101-0.219-0.155-0.354-0.148
					c-0.103-0.005-0.206,0.005-0.305,0.029C203.507,381.482,202.713,381.977,202.031,382.606z"/>
				<path style="fill:#407BFF;" d="M201.492,382.938c-0.054-0.02-0.093-0.068-0.101-0.124c-0.01-0.084-0.236-1.89,0.442-2.765
					c0.194-0.257,0.484-0.423,0.803-0.461c0.437-0.054,0.619,0.131,0.676,0.305c0.307,0.705-0.944,2.482-1.648,3.007
					c-0.018,0.014-0.04,0.022-0.063,0.02C201.567,382.939,201.529,382.946,201.492,382.938z M202.598,379.905
					c-0.197,0.042-0.372,0.155-0.492,0.317c-0.36,0.675-0.504,1.445-0.413,2.205c0.702-0.664,1.482-2.009,1.341-2.444
					c-0.021-0.037-0.064-0.145-0.349-0.106L202.598,379.905L202.598,379.905z"/>
				<path style="fill:#263238;" d="M200.699,382.163l-7.147,1.624c-0.269,0.061-0.46,0.301-0.46,0.577l0.029,6.108
					c-0.001,0.542,0.437,0.982,0.979,0.984c0.07,0,0.139-0.007,0.207-0.022c2.566-0.63,4.825-1.292,8.034-2.016
					c3.786-0.859,2.928-0.188,7.393-1.135c2.689-0.574,2.488-3.733,1.317-3.625c-5.352,0.527-6.25-0.921-8.68-2.328
					C201.852,382.072,201.258,382.012,200.699,382.163z"/>
			</g>
			<polygon style="opacity:0.1;" points="199.028,379.649 197.06,371.149 190.62,373.289 193.234,381.653 			"/>
		</g>
		<path style="fill:#263238;" d="M97.546,322.01c-3.549-8.528-1.059-22.32,26.731-27.525c22.816-4.273,37.647-2.577,45.455-0.759
			c4.223,0.983,7.71,3.946,9.348,7.96c3.924,9.614,10.223,25.819,19.567,73.521l-7.058,3c0,0-7.721-23.053-11.822-32.465
			c-3.697-8.486-11.645-21.879-14.115-34.23c0,0-10.919,3.826-24.172,10.133C124.869,329.55,104.591,338.936,97.546,322.01z"/>
		<g>
			<polygon style="fill:#263238;" points="190.178,376.398 191.899,380.567 199.797,377.635 198.979,373.289 			"/>
			<polygon style="opacity:0.2;fill:#FFFFFF;" points="190.178,376.398 191.899,380.567 199.797,377.635 198.979,373.289 			"/>
		</g>
		<path style="opacity:0.1;" d="M165.432,311.59c0.141-0.05,0.22-0.078,0.22-0.078c1.158,5.792,3.521,11.813,6.086,17.45
			c1.486-6.461,3.271-15.6,1.947-17.371C171.595,308.794,165.432,311.59,165.432,311.59L165.432,311.59z"/>
		<g>
			<polygon style="fill:#B97964;" points="146.126,392.812 144.326,404.673 150.016,404.673 153.192,393.293 			"/>
			<g>
				<path style="fill:#407BFF;" d="M151.486,404.915c-0.065-0.012-0.117-0.062-0.132-0.127c-0.014-0.066,0.015-0.133,0.072-0.168
					c0.101-0.062,2.406-1.463,3.536-1.186c0.21,0.048,0.394,0.177,0.511,0.358c0.156,0.2,0.168,0.478,0.031,0.691
					c-0.267,0.366-1.125,0.542-1.96,0.565C152.856,405.065,152.167,405.02,151.486,404.915z M151.995,404.688
					c1.253,0.12,2.946,0.064,3.245-0.382c0.044-0.055,0.083-0.152-0.041-0.347c-0.068-0.116-0.185-0.195-0.318-0.214
					c-0.1-0.025-0.202-0.036-0.305-0.031C153.662,403.873,152.787,404.203,151.995,404.688z"/>
				<path style="fill:#407BFF;" d="M151.402,404.908c-0.049-0.03-0.078-0.084-0.075-0.142c0.007-0.085,0.137-1.9,0.972-2.626
					c0.24-0.214,0.557-0.321,0.878-0.296c0.439,0.032,0.582,0.25,0.603,0.431c0.164,0.751-1.41,2.25-2.202,2.628
					c-0.02,0.011-0.044,0.013-0.066,0.008C151.475,404.924,151.436,404.923,151.402,404.908z M153.078,402.149
					c-0.201,0.003-0.395,0.08-0.544,0.215c-0.485,0.592-0.776,1.319-0.835,2.082c0.818-0.515,1.845-1.682,1.792-2.136
					c-0.013-0.04-0.035-0.155-0.321-0.172L153.078,402.149L153.078,402.149z"/>
				<path style="fill:#263238;" d="M150.775,403.994l-7.327,0.2c-0.276,0.008-0.51,0.205-0.563,0.476l-1.162,5.996
					c-0.107,0.531,0.237,1.048,0.768,1.155c0.068,0.014,0.138,0.02,0.207,0.019c2.64-0.118,4.984-0.326,8.273-0.411
					c3.88-0.104,2.908,0.387,7.472,0.327c2.75-0.039,3.168-3.177,1.998-3.299c-5.353-0.526-5.95-2.122-8.06-3.975
					C151.924,404.129,151.352,403.954,150.775,403.994z"/>
			</g>
			<polygon style="opacity:0.1;" points="150.899,401.509 153.192,393.293 146.126,392.812 144.806,401.509 			"/>
		</g>
		<g>
			<path style="fill:#263238;" d="M171.299,315.394c-1.368-2.521-3.648-3.512-5.867-3.803c-1.585,0.565-11.78,4.262-23.952,10.055
				c-8.284,3.943-17.481,8.253-25.493,9.484l0,0l39.609-2.326c-3.882,11.292-4.825,28.936-5.999,38.641
				c-1.139,9.409-4.588,29.466-4.588,29.466h7.587C152.596,396.91,174.652,321.569,171.299,315.394z"/>
			<path style="opacity:0.4;" d="M171.299,315.394c-1.368-2.521-3.648-3.512-5.867-3.803c-1.585,0.565-11.78,4.262-23.952,10.055
				c-8.284,3.943-17.481,8.253-25.493,9.484l0,0l39.609-2.326c-3.882,11.292-4.825,28.936-5.999,38.641
				c-1.139,9.409-4.588,29.466-4.588,29.466h7.587C152.596,396.91,174.652,321.569,171.299,315.394z"/>
		</g>
		<polygon style="fill:#263238;" points="144.338,395.701 143.761,400.21 152.706,400.073 153.654,395.753 		"/>
		<polygon style="opacity:0.2;fill:#FFFFFF;" points="144.338,395.701 143.761,400.21 152.706,400.073 153.654,395.753 		"/>
		<path style="fill:#B97964;" d="M158.606,238.692l-1.628-3.056l-6.237-5.243c-0.637-0.535-1.564-0.54-2.207-0.012l-3.132,2.574
			c-0.494,0.406-0.723,1.051-0.595,1.678l0.67,3.294c0.154,0.755,0.788,1.319,1.556,1.377c2.01,0.151,5.732,0.267,6.622-0.832
			l0.936,2.726L158.606,238.692z"/>
		<g>
			<path style="fill:#407BFF;" d="M143.047,242.083h-0.911c-2.122,0-3.843-1.72-3.843-3.842v-8.034c0-1.267,1.027-2.294,2.294-2.294
				h4.009c1.267,0,2.294,1.027,2.294,2.294v8.034C146.89,240.363,145.169,242.083,143.047,242.083z"/>
			<path style="opacity:0.4;" d="M143.047,242.083h-0.911c-2.122,0-3.843-1.72-3.843-3.842v-8.034c0-1.267,1.027-2.294,2.294-2.294
				h4.009c1.267,0,2.294,1.027,2.294,2.294v8.034C146.89,240.363,145.169,242.083,143.047,242.083z"/>
		</g>
		<path style="fill:#B97964;" d="M120.927,224.859c0.465,4.266,0.621,12.023-2.56,14.567c0,0,3.397,3.467,10.262,7.291
			c4.995-3.452,2.777-7.143,2.777-7.143c-3.967-1.13-4.158-4.988-3.103-8.176L120.927,224.859z"/>
		<path style="opacity:0.1;" d="M128.303,231.399l-5.034-4.463l-1.119,0.554c0,0,1.273,5.64,5.622,7.508
			C127.702,233.819,127.918,232.565,128.303,231.399z"/>
		<path style="fill:#B97964;" d="M118.543,214.693c0.203,7.045,0.134,10.03,3.564,13.753c5.161,5.604,13.766,3.819,15.678-3.143
			c1.719-6.266,1.104-16.726-5.681-19.751c-4.837-2.186-10.53-0.038-12.716,4.799C118.773,211.712,118.483,213.199,118.543,214.693z
			"/>
		<path style="fill:#2E353A;" d="M124.755,202.077c-1.658,1.766,0.431,6.23,6.742,7.307c4.756,0.813,9.478,7.214,10.262,1.655
			C142.504,205.989,131.256,200.889,124.755,202.077z"/>
		<path style="fill:#2E353A;" d="M127.818,204.361c2.675,3.238-0.536,7.28-2.573,8.959c-2.036,1.679-4.889,3.034-3.721,6.488
			c1.168,3.454,0.523,12.063-5.095,9.228c-5.618-2.835-3.051-12.703-0.26-16.89C118.961,207.959,124.631,200.512,127.818,204.361z"
			/>
		<path style="fill:#A24E3F;" d="M133.851,218.144c0.465,1.323,1.111,2.576,1.918,3.723c-0.602,0.405-1.352,0.523-2.049,0.322
			L133.851,218.144z"/>
		<path style="fill:#2E353A;" d="M126.614,214.082c-0.047-0.013-0.091-0.037-0.127-0.069c-0.111-0.107-0.114-0.284-0.007-0.395
			c0.001-0.001,0.003-0.003,0.004-0.004c0.721-0.783,1.778-1.165,2.832-1.025c0.149,0.034,0.245,0.179,0.218,0.329
			c-0.03,0.148-0.172,0.246-0.322,0.22c-0.873-0.102-1.741,0.222-2.335,0.87C126.809,214.077,126.709,214.106,126.614,214.082z"/>
		<path style="fill:#2E353A;" d="M138.744,214.577c-0.047-0.013-0.091-0.037-0.127-0.069c-0.631-0.605-1.514-0.871-2.374-0.716
			c-0.149,0.041-0.302-0.047-0.343-0.195c0-0.001-0.001-0.002-0.001-0.003c-0.035-0.151,0.056-0.303,0.207-0.342
			c1.044-0.202,2.122,0.112,2.894,0.844c0.118,0.099,0.133,0.276,0.033,0.394C138.961,214.572,138.849,214.607,138.744,214.577
			L138.744,214.577z"/>
		<g>
			<path style="fill:#2E353A;" d="M129.841,217.066c-0.02,0.569,0.269,1.041,0.647,1.057c0.378,0.016,0.69-0.438,0.704-1.015
				c0.014-0.578-0.269-1.041-0.64-1.056C130.182,216.038,129.863,216.489,129.841,217.066z"/>
			<path style="fill:#2E353A;" d="M136.312,217.28c-0.02,0.569,0.269,1.041,0.64,1.055c0.371,0.014,0.69-0.438,0.712-1.014
				c0.022-0.576-0.269-1.041-0.64-1.055C136.653,216.252,136.326,216.702,136.312,217.28z"/>
			<path style="fill:#2E353A;" d="M136.859,216.291l1.386-0.348C138.245,215.943,137.502,216.989,136.859,216.291z"/>
			<path style="fill:#2E353A;" d="M130.388,216.077l1.386-0.348C131.774,215.729,131.031,216.775,130.388,216.077z"/>
		</g>
		<g>
			<path style="fill:#407BFF;" d="M116.283,238.881c0,0-1.492-1.093-3.193,0c0,0-1.457-0.905-2.133-0.121
				c0,0,9.538,18.188,8.151,30.61c-1.386,12.423-1.263,20.294-1.263,20.294s3.444-1.599,5.166-0.984
				c1.722,0.615,3.527-0.369,3.527-0.369s-0.901-13.76-0.757-20.196c0.331-14.769-7.906-28.689-7.906-28.689L116.283,238.881z"/>
			<path style="opacity:0.3;" d="M116.283,238.881c0,0-1.492-1.093-3.193,0c0,0-1.457-0.905-2.133-0.121
				c0,0,9.538,18.188,8.151,30.61c-1.386,12.423-1.263,20.294-1.263,20.294s3.444-1.599,5.166-0.984
				c1.722,0.615,3.527-0.369,3.527-0.369s-0.901-13.76-0.757-20.196c0.331-14.769-7.906-28.689-7.906-28.689L116.283,238.881z"/>
		</g>
		<path style="fill:#2E353A;" d="M130.735,224.681c0.82,0.737,1.903,1.111,3.003,1.036c0.076-0.003,0.137-0.064,0.141-0.141
			c0.002-0.073-0.056-0.134-0.13-0.135c-0.002,0-0.004,0-0.006,0c-1.204,0.076-2.374-0.411-3.17-1.317
			c-0.046-0.057-0.129-0.066-0.186-0.021c-0.004,0.003-0.008,0.007-0.012,0.01c-0.054,0.053-0.058,0.139-0.01,0.198
			C130.481,224.441,130.604,224.565,130.735,224.681z"/>
		<path style="fill:#407BFF;" d="M153.761,239.423c0,0,3.969,25.092,9.705,21.369c4.952-3.215-2.713-18.836-5.031-23.402
			c-0.235-0.464-0.865-0.498-1.172-0.079C156.687,238.097,155.615,239.09,153.761,239.423z"/>
		<g>
			<path style="fill:#407BFF;" d="M119.649,236.653c0,0,5.208,7.429,9.889,6.027c3.559-1.066-0.254-4.234-0.254-4.234
				s1.323-0.305,2.12,0.436c0,0,0.713-0.349,1.694,0.864c0,0,3.779,8.61-2.091,9.823c-8.736,1.804-14.726-10.686-14.726-10.686
				s1.086-1.341,2.084-0.957C118.367,237.924,117.927,236.776,119.649,236.653z"/>
			<path style="opacity:0.3;" d="M119.649,236.653c0,0,5.208,7.429,9.889,6.027c3.559-1.066-0.254-4.234-0.254-4.234
				s1.323-0.305,2.12,0.436c0,0,0.713-0.349,1.694,0.864c0,0,3.779,8.61-2.091,9.823c-8.736,1.804-14.726-10.686-14.726-10.686
				s1.086-1.341,2.084-0.957C118.367,237.924,117.927,236.776,119.649,236.653z"/>
		</g>
		<path style="opacity:0.2;" d="M137.956,275.214l-13.448-0.631l-18.213-34.778c-0.065,0.045-0.13,0.089-0.194,0.144
			c-1.049,0.913-1.771,2.122-1.976,3.877c0.022,0.86,0.045,1.798,0.067,2.812c0.761,5.541,5.014,14.905,15.464,31.632
			c1.185,1.896,3.302,3.015,5.536,2.925l12.768-0.938C137.934,278.685,137.928,276.956,137.956,275.214z"/>
		<path style="opacity:0.2;" d="M120.182,240.367c0,0,7.233,6.097,10.455,4.773c2.094-0.861,1.26-3.567,1.26-3.567
			s2.799,5.145-1.137,5.842C126.329,248.2,120.182,240.367,120.182,240.367z"/>
		<path style="opacity:0.2;" d="M116.86,239.964l3.503,4.93C120.364,244.893,117.515,243.562,116.86,239.964z"/>
		<path style="fill:#407BFF;" d="M132.297,239.605c0,0,1.413-0.833,3.443,0.136c0,0,1.292,6.566,2.153,10.871
			c0.861,4.305,1.209,9.717,0.369,18.388c-0.701,7.231-0.062,17.896-0.062,17.896s-1.414-1.046-3.505,0
			c-2.091,1.046-3.075-0.615-3.075-0.615s0.505-8.868,1.968-17.342c2.091-12.115-0.184-24.046-0.184-24.046L132.297,239.605z"/>
		<path style="opacity:0.3;" d="M132.297,239.605c0,0,1.413-0.833,3.443,0.136c0,0,1.292,6.566,2.153,10.871
			c0.861,4.305,1.209,9.717,0.369,18.388c-0.701,7.231-0.062,17.896-0.062,17.896s-1.414-1.046-3.505,0
			c-2.091,1.046-3.075-0.615-3.075-0.615s0.505-8.868,1.968-17.342c2.091-12.115-0.184-24.046-0.184-24.046L132.297,239.605z"/>
		<path style="opacity:0.2;" d="M133.407,241.197c0,0,1.373,1.687,0.695,5.52C134.102,246.718,136.588,244.553,133.407,241.197z"/>
		<path style="fill:#B97964;" d="M117.106,222.522c0.635,1.206,1.723,2.11,3.025,2.513c1.73,0.52,2.63-1.016,2.18-2.668
			c-0.403-1.481-1.792-3.545-3.545-3.343c-1.272,0.186-2.152,1.367-1.966,2.639C116.844,221.967,116.948,222.259,117.106,222.522z"
			/>
		<path style="fill:#B97964;" d="M155.781,271.871h2.588l7.821-1.469c0.855-0.161,1.728,0.145,2.331,0.815l5.9,6.567l-3.422,0.11
			l-3.18-1.1c0,0-4.62,2.369-11.502-0.745L155.781,271.871z"/>
		<path style="fill:#407BFF;" d="M126.762,269.617c0,0-15.911-35.004-21.34-29.69c-3.761,3.682-2.571,11.331,15.515,36.811
			c1.272,1.792,3.414,2.767,5.6,2.55l30.475-2.023c0,0-0.688-3.45,0-6.176L126.762,269.617z"/>
	</g>
</g>
<g id="Table">
	<g>
		<g>
			<path style="fill:#407BFF;" d="M209.643,400.667l-0.936-0.544V293.353c0-1.205-0.977-2.181-2.181-2.181h-6.168
				c-1.205,0-2.181,0.977-2.181,2.181v106.769l-0.936,0.544c-6.035,3.51-12.892,5.359-19.874,5.359l0,0
				c-2.989,0-5.412,2.423-5.412,5.412l0,0h62.974l0,0c0-2.989-2.423-5.412-5.412-5.412h0
				C222.535,406.026,215.678,404.177,209.643,400.667z"/>
			<path style="opacity:0.2;" d="M208.707,298.748v-5.395c0-1.205-0.977-2.181-2.181-2.181h-6.168c-1.205,0-2.181,0.977-2.181,2.181
				v5.395H208.707z"/>
		</g>
		<g>
			<g>
				<path style="fill:#407BFF;" d="M250.183,294.01H156.7c-1.915,0-3.468-1.553-3.468-3.468v-2.928h100.419v2.928
					C253.651,292.458,252.098,294.01,250.183,294.01z"/>
				<path style="opacity:0.3;fill:#FFFFFF;" d="M250.183,294.01H156.7c-1.915,0-3.468-1.553-3.468-3.468v-2.928h100.419v2.928
					C253.651,292.458,252.098,294.01,250.183,294.01z"/>
			</g>
			<path style="fill:#407BFF;" d="M257.244,287.614H149.64c-1.766,0-3.198-1.432-3.198-3.198v0c0-1.766,1.432-3.198,3.198-3.198
				h107.604c1.766,0,3.198,1.432,3.198,3.198v0C260.442,286.183,259.01,287.614,257.244,287.614z"/>
			<path style="opacity:0.4;fill:#FFFFFF;" d="M257.244,287.614H149.64c-1.766,0-3.198-1.432-3.198-3.198v0
				c0-1.766,1.432-3.198,3.198-3.198h107.604c1.766,0,3.198,1.432,3.198,3.198v0C260.442,286.183,259.01,287.614,257.244,287.614z"
				/>
			<path style="opacity:0.2;" d="M204.471,292.304v-4.69h-51.238v4.69c0,0.942,0.639,1.706,1.427,1.706h48.384
				C203.832,294.01,204.471,293.246,204.471,292.304z"/>
			<path style="opacity:0.2;" d="M211.261,285.336v-1.84c0-1.258-0.853-2.278-1.905-2.278h-61.009c-1.052,0-1.906,1.02-1.906,2.278
				v1.84c0,1.258,0.853,2.278,1.906,2.278h61.009C210.408,287.614,211.261,286.595,211.261,285.336z"/>
		</g>
	</g>
</g>
<g id="Device_1">
	<g>
		<g>
			<path style="fill:#263238;" d="M217.557,281.154h-33.449c-1.8,0-3.259-1.459-3.259-3.259l0,0h39.968l0,0
				C220.816,279.695,219.357,281.154,217.557,281.154z"/>
			<path style="opacity:0.2;fill:#FFFFFF;" d="M217.557,281.154h-33.449c-1.8,0-3.259-1.459-3.259-3.259l0,0h39.968l0,0
				C220.816,279.695,219.357,281.154,217.557,281.154z"/>
		</g>
		<path style="fill:#263238;" d="M194.188,281.154h-33.449c-1.8,0-3.259-1.459-3.259-3.259l0,0h39.968l0,0
			C197.447,279.695,195.988,281.154,194.188,281.154z"/>
		<path style="opacity:0.5;fill:#FFFFFF;" d="M194.188,281.154h-33.449c-1.8,0-3.259-1.459-3.259-3.259l0,0h39.968l0,0
			C197.447,279.695,195.988,281.154,194.188,281.154z"/>
		<g>
			<path style="fill:#263238;" d="M217.827,280.158h-20.393c-0.532,0-0.904-0.525-0.728-1.027l11.183-31.948
				c0.308-0.88,1.139-1.469,2.071-1.469h20.393c0.531,0,0.904,0.525,0.728,1.027l-11.183,31.948
				C219.59,279.569,218.76,280.158,217.827,280.158z"/>
			<path style="opacity:0.5;fill:#FFFFFF;" d="M217.827,280.158h-20.393c-0.532,0-0.904-0.525-0.728-1.027l11.183-31.948
				c0.308-0.88,1.139-1.469,2.071-1.469h20.393c0.531,0,0.904,0.525,0.728,1.027l-11.183,31.948
				C219.59,279.569,218.76,280.158,217.827,280.158z"/>
		</g>
		<g>
			<path style="fill:#263238;" d="M218.811,280.158h-20.393c-0.531,0-0.904-0.525-0.728-1.027l11.183-31.948
				c0.308-0.88,1.139-1.469,2.071-1.469h20.393c0.532,0,0.904,0.525,0.728,1.027l-11.183,31.948
				C220.574,279.569,219.744,280.158,218.811,280.158z"/>
			<path style="opacity:0.7;fill:#FFFFFF;" d="M218.811,280.158h-20.393c-0.531,0-0.904-0.525-0.728-1.027l11.183-31.948
				c0.308-0.88,1.139-1.469,2.071-1.469h20.393c0.532,0,0.904,0.525,0.728,1.027l-11.183,31.948
				C220.574,279.569,219.744,280.158,218.811,280.158z"/>
		</g>
		<path style="fill:#FFFFFF;" d="M216.531,262.936c-0.26,1.224-1.107,2.217-1.891,2.217c-0.784,0-1.209-0.992-0.949-2.217
			c0.26-1.224,1.107-2.217,1.891-2.217C216.367,260.719,216.792,261.711,216.531,262.936z"/>
	</g>
</g>
</svg>
