<?xml version="1.0" encoding="utf-8"?>
<!-- Generator: Adobe Illustrator 27.5.0, SVG Export Plug-In . SVG Version: 6.00 Build 0)  -->
<svg version="1.1" xmlns="http://www.w3.org/2000/svg" xmlns:xlink="http://www.w3.org/1999/xlink" x="0px" y="0px"
	 viewBox="0 0 500 500" style="enable-background:new 0 0 500 500;" xml:space="preserve">
<g id="Background_Complete">
	<g>
		<rect y="382.398" style="fill:#EBEBEB;" width="500" height="0.25"/>
		<rect x="416.779" y="398.494" style="fill:#EBEBEB;" width="33.122" height="0.25"/>
		<rect x="322.527" y="401.208" style="fill:#EBEBEB;" width="8.693" height="0.25"/>
		<rect x="396.586" y="389.208" style="fill:#EBEBEB;" width="19.192" height="0.25"/>
		<rect x="52.459" y="390.888" style="fill:#EBEBEB;" width="43.193" height="0.25"/>
		<rect x="104.556" y="390.888" style="fill:#EBEBEB;" width="6.333" height="0.25"/>
		<rect x="131.471" y="395.111" style="fill:#EBEBEB;" width="93.676" height="0.25"/>
		<path style="fill:#EBEBEB;" d="M237.014,337.8H43.915c-3.147,0-5.708-2.561-5.708-5.708V60.66c0-3.147,2.561-5.708,5.708-5.708
			h193.099c3.146,0,5.707,2.561,5.707,5.708v271.432C242.721,335.239,240.16,337.8,237.014,337.8z M43.915,55.203
			c-3.01,0-5.458,2.448-5.458,5.458v271.432c0,3.01,2.448,5.458,5.458,5.458h193.099c3.009,0,5.457-2.448,5.457-5.458V60.66
			c0-3.009-2.448-5.458-5.457-5.458H43.915z"/>
		<path style="fill:#EBEBEB;" d="M453.31,337.8H260.212c-3.147,0-5.707-2.561-5.707-5.708V60.66c0-3.147,2.561-5.708,5.707-5.708
			H453.31c3.148,0,5.708,2.561,5.708,5.708v271.432C459.019,335.239,456.458,337.8,453.31,337.8z M260.212,55.203
			c-3.009,0-5.457,2.448-5.457,5.458v271.432c0,3.01,2.448,5.458,5.457,5.458H453.31c3.01,0,5.458-2.448,5.458-5.458V60.66
			c0-3.009-2.448-5.458-5.458-5.458H260.212z"/>
	</g>
	<g>
		<rect x="59.028" y="128.824" style="fill:#E0E0E0;" width="381.943" height="253.137"/>
		<path style="fill:#F5F5F5;" d="M250,380.825V122.863c0,0,48.671-15.792,178.803-15.792v273.754H250z"/>
		<path style="fill:#F0F0F0;" d="M250,380.825V122.863c0,0-48.671-15.792-178.803-15.792v273.754H250z"/>
		<g>
			<g>
				<path style="fill:#E6E6E6;" d="M263.92,149.49c-1.213,0-2.278-0.885-2.468-2.122c-0.209-1.365,0.728-2.641,2.092-2.85
					c0.667-0.103,67.693-10.244,147.21-10.244c1.381,0,2.5,1.119,2.5,2.5c0,1.381-1.119,2.5-2.5,2.5
					c-79.117,0-145.788,10.084-146.452,10.186C264.173,149.48,264.046,149.49,263.92,149.49z"/>
			</g>
			<g>
				<path style="fill:#E6E6E6;" d="M263.92,168.021c-1.242,0-2.319-0.925-2.477-2.189c-0.172-1.37,0.799-2.62,2.169-2.792
					c0.74-0.093,74.872-9.305,147.143-9.305c1.381,0,2.5,1.119,2.5,2.5c0,1.381-1.119,2.5-2.5,2.5
					c-71.949,0-145.782,9.173-146.52,9.266C264.129,168.015,264.023,168.021,263.92,168.021z"/>
			</g>
			<g>
				<path style="fill:#E6E6E6;" d="M263.92,186.553c-1.266,0-2.352-0.958-2.484-2.244c-0.142-1.373,0.857-2.601,2.231-2.743
					c0.813-0.084,82.055-8.371,147.087-8.371c1.381,0,2.5,1.119,2.5,2.5c0,1.381-1.119,2.5-2.5,2.5
					c-64.778,0-145.765,8.261-146.575,8.344C264.092,186.549,264.005,186.553,263.92,186.553z"/>
			</g>
			<g>
				<path style="fill:#E6E6E6;" d="M263.92,205.085c-1.286,0-2.379-0.986-2.488-2.291c-0.116-1.376,0.906-2.585,2.282-2.7
					c0.886-0.074,89.244-7.438,147.04-7.438c1.381,0,2.5,1.119,2.5,2.5c0,1.381-1.119,2.5-2.5,2.5
					c-57.586,0-145.738,7.346-146.622,7.42C264.061,205.083,263.99,205.085,263.92,205.085z"/>
			</g>
			<g>
				<path style="fill:#E6E6E6;" d="M263.92,223.618c-1.304,0-2.402-1.011-2.492-2.331c-0.094-1.377,0.947-2.57,2.325-2.664
					c0.959-0.065,96.435-6.506,147.001-6.506c1.381,0,2.5,1.119,2.5,2.5c0,1.381-1.119,2.5-2.5,2.5
					c-50.396,0-145.705,6.429-146.662,6.494C264.035,223.616,263.977,223.618,263.92,223.618z"/>
			</g>
			<g>
				<path style="fill:#E6E6E6;" d="M263.92,242.15c-1.319,0-2.422-1.032-2.494-2.365c-0.074-1.379,0.983-2.557,2.362-2.631
					c1.031-0.056,103.629-5.575,146.966-5.575c1.381,0,2.5,1.119,2.5,2.5c0,1.381-1.119,2.5-2.5,2.5
					c-43.202,0-145.666,5.512-146.696,5.567C264.012,242.149,263.966,242.15,263.92,242.15z"/>
			</g>
			<g>
				<path style="fill:#E6E6E6;" d="M263.921,260.682c-1.332,0-2.439-1.051-2.496-2.395c-0.058-1.38,1.013-2.545,2.393-2.604
					c1.104-0.046,110.826-4.645,146.936-4.645c1.381,0,2.5,1.119,2.5,2.5c0,1.381-1.119,2.5-2.5,2.5
					c-36.006,0-145.623,4.594-146.726,4.641C263.992,260.681,263.957,260.682,263.921,260.682z"/>
			</g>
			<g>
				<path style="fill:#E6E6E6;" d="M263.921,279.214c-1.344,0-2.455-1.068-2.497-2.421c-0.044-1.38,1.04-2.534,2.419-2.578
					c1.177-0.037,118.024-3.716,146.91-3.716c1.381,0,2.5,1.119,2.5,2.5c0,1.381-1.119,2.5-2.5,2.5
					c-28.807,0-145.576,3.677-146.752,3.714C263.975,279.214,263.948,279.214,263.921,279.214z"/>
			</g>
			<g>
				<path style="fill:#E6E6E6;" d="M263.922,297.746c-1.355,0-2.468-1.083-2.499-2.444c-0.031-1.38,1.063-2.524,2.444-2.555
					c1.25-0.028,125.224-2.787,146.887-2.787c1.381,0,2.5,1.119,2.5,2.5c0,1.381-1.119,2.5-2.5,2.5
					c-21.607,0-145.526,2.758-146.775,2.785C263.959,297.746,263.94,297.746,263.922,297.746z"/>
			</g>
			<g>
				<path style="fill:#E6E6E6;" d="M263.922,316.279c-1.365,0-2.48-1.096-2.5-2.465c-0.019-1.381,1.085-2.516,2.465-2.535
					c1.323-0.019,132.426-1.857,146.866-1.857c1.381,0,2.5,1.119,2.5,2.5c0,1.381-1.119,2.5-2.5,2.5
					c-14.406,0-145.474,1.839-146.796,1.857C263.946,316.279,263.934,316.279,263.922,316.279z"/>
			</g>
			<g>
				<path style="fill:#E6E6E6;" d="M263.922,334.811c-1.373,0-2.49-1.108-2.5-2.483c-0.009-1.381,1.103-2.508,2.483-2.517
					c1.396-0.009,139.628-0.929,146.848-0.929c1.381,0,2.5,1.119,2.5,2.5c0,1.381-1.119,2.5-2.5,2.5
					c-7.203,0-145.419,0.919-146.815,0.929C263.934,334.811,263.928,334.811,263.922,334.811z"/>
			</g>
			<g>
				<path style="fill:#E6E6E6;" d="M410.754,353.343H263.923c-1.381,0-2.5-1.119-2.5-2.5c0-1.381,1.119-2.5,2.5-2.5h146.831
					c1.381,0,2.5,1.119,2.5,2.5C413.254,352.224,412.135,353.343,410.754,353.343z"/>
			</g>
		</g>
		<g>
			<g>
				<path style="fill:#E0E0E0;" d="M236.08,149.49c1.213,0,2.278-0.885,2.468-2.122c0.209-1.365-0.727-2.641-2.092-2.85
					c-0.667-0.103-67.693-10.244-147.21-10.244c-1.381,0-2.5,1.119-2.5,2.5c0,1.381,1.119,2.5,2.5,2.5
					c79.117,0,145.788,10.084,146.452,10.186C235.827,149.48,235.954,149.49,236.08,149.49z"/>
			</g>
			<g>
				<path style="fill:#E0E0E0;" d="M236.08,168.021c1.242,0,2.319-0.925,2.478-2.189c0.172-1.37-0.799-2.62-2.169-2.792
					c-0.74-0.093-74.871-9.305-147.142-9.305c-1.381,0-2.5,1.119-2.5,2.5c0,1.381,1.119,2.5,2.5,2.5
					c71.949,0,145.782,9.173,146.52,9.266C235.871,168.015,235.977,168.021,236.08,168.021z"/>
			</g>
			<g>
				<path style="fill:#E0E0E0;" d="M236.08,186.553c1.266,0,2.352-0.958,2.484-2.244c0.142-1.373-0.857-2.601-2.231-2.743
					c-0.813-0.084-82.055-8.371-147.087-8.371c-1.381,0-2.5,1.119-2.5,2.5c0,1.381,1.119,2.5,2.5,2.5
					c64.778,0,145.765,8.261,146.575,8.344C235.908,186.549,235.995,186.553,236.08,186.553z"/>
			</g>
			<g>
				<path style="fill:#E0E0E0;" d="M236.08,205.085c1.286,0,2.379-0.986,2.488-2.291c0.116-1.376-0.906-2.585-2.282-2.7
					c-0.886-0.074-89.244-7.438-147.04-7.438c-1.381,0-2.5,1.119-2.5,2.5c0,1.381,1.119,2.5,2.5,2.5
					c57.585,0,145.738,7.346,146.622,7.42C235.939,205.083,236.01,205.085,236.08,205.085z"/>
			</g>
			<g>
				<path style="fill:#E0E0E0;" d="M236.08,223.618c1.304,0,2.402-1.011,2.492-2.331c0.094-1.377-0.947-2.57-2.325-2.664
					c-0.958-0.065-96.435-6.506-147-6.506c-1.381,0-2.5,1.119-2.5,2.5c0,1.381,1.119,2.5,2.5,2.5
					c50.396,0,145.705,6.429,146.662,6.494C235.965,223.616,236.023,223.618,236.08,223.618z"/>
			</g>
			<g>
				<path style="fill:#E0E0E0;" d="M236.08,242.15c1.319,0,2.422-1.032,2.494-2.365c0.074-1.379-0.983-2.557-2.362-2.631
					c-1.031-0.056-103.629-5.575-146.966-5.575c-1.381,0-2.5,1.119-2.5,2.5c0,1.381,1.119,2.5,2.5,2.5
					c43.202,0,145.666,5.512,146.696,5.567C235.988,242.149,236.034,242.15,236.08,242.15z"/>
			</g>
			<g>
				<path style="fill:#E0E0E0;" d="M236.079,260.682c1.332,0,2.439-1.051,2.496-2.395c0.058-1.38-1.013-2.545-2.393-2.604
					c-1.104-0.046-110.826-4.645-146.936-4.645c-1.381,0-2.5,1.119-2.5,2.5c0,1.381,1.119,2.5,2.5,2.5
					c36.006,0,145.623,4.594,146.726,4.641C236.008,260.681,236.043,260.682,236.079,260.682z"/>
			</g>
			<g>
				<path style="fill:#E0E0E0;" d="M236.079,279.214c1.344,0,2.455-1.068,2.497-2.421c0.044-1.38-1.04-2.534-2.419-2.578
					c-1.177-0.037-118.024-3.716-146.91-3.716c-1.381,0-2.5,1.119-2.5,2.5c0,1.381,1.119,2.5,2.5,2.5
					c28.807,0,145.576,3.677,146.752,3.714C236.025,279.214,236.052,279.214,236.079,279.214z"/>
			</g>
			<g>
				<path style="fill:#E0E0E0;" d="M236.078,297.746c1.355,0,2.468-1.083,2.499-2.444c0.031-1.38-1.063-2.524-2.444-2.555
					c-1.249-0.028-125.224-2.787-146.887-2.787c-1.381,0-2.5,1.119-2.5,2.5c0,1.381,1.119,2.5,2.5,2.5
					c21.607,0,145.526,2.758,146.775,2.785C236.04,297.746,236.059,297.746,236.078,297.746z"/>
			</g>
			<g>
				<path style="fill:#E0E0E0;" d="M236.078,316.279c1.365,0,2.48-1.096,2.499-2.465c0.019-1.381-1.085-2.516-2.465-2.535
					c-1.323-0.019-132.426-1.857-146.866-1.857c-1.381,0-2.5,1.119-2.5,2.5c0,1.381,1.119,2.5,2.5,2.5
					c14.406,0,145.474,1.839,146.796,1.857C236.054,316.279,236.066,316.279,236.078,316.279z"/>
			</g>
			<g>
				<path style="fill:#E0E0E0;" d="M236.078,334.811c1.373,0,2.49-1.108,2.499-2.483c0.009-1.381-1.103-2.508-2.483-2.517
					c-1.396-0.009-139.628-0.929-146.848-0.929c-1.381,0-2.5,1.119-2.5,2.5c0,1.381,1.119,2.5,2.5,2.5
					c7.203,0,145.419,0.919,146.814,0.929C236.066,334.811,236.072,334.811,236.078,334.811z"/>
			</g>
			<g>
				<path style="fill:#E0E0E0;" d="M89.246,353.343h146.831c1.381,0,2.5-1.119,2.5-2.5c0-1.381-1.119-2.5-2.5-2.5H89.246
					c-1.381,0-2.5,1.119-2.5,2.5C86.746,352.224,87.865,353.343,89.246,353.343z"/>
			</g>
		</g>
		<polygon style="fill:#E0E0E0;" points="266.105,211.491 257.885,203.491 249.665,211.491 249.665,120.342 266.105,117.342 		"/>
	</g>
</g>
<g id="Background_Simple" style="display:none;">
	<g style="display:inline;">
		<path style="fill:#407BFF;" d="M249.498,95.177c82.319,37.037,7.591,103.048,55.122,138.998
			c47.531,35.95,176.763-5.611,127.498,87.744C374.25,431.577,120.84,416.349,66.202,281.847
			C11.564,147.344,167.178,58.14,249.498,95.177z"/>
		<path style="opacity:0.9;fill:#FFFFFF;" d="M249.498,95.177c82.319,37.037,7.591,103.048,55.122,138.998
			c47.531,35.95,176.763-5.611,127.498,87.744C374.25,431.577,120.84,416.349,66.202,281.847
			C11.564,147.344,167.178,58.14,249.498,95.177z"/>
	</g>
</g>
<g id="Shadow_1_">
	<ellipse id="_x3C_Path_x3E__359_" style="fill:#F5F5F5;" cx="250" cy="416.238" rx="193.889" ry="11.323"/>
</g>
<g id="Lamp">
	<path style="opacity:0.2;fill:none;stroke:#FFFFFF;stroke-miterlimit:10;" d="M292.802,238.495c0,0-22.872-9.791-47.436,0"/>
	<g>
		<path style="fill:none;stroke:#263238;stroke-width:3;stroke-linecap:round;stroke-linejoin:round;stroke-miterlimit:10;" d="
			M75.415,412.613V226.729c0-30.022,24.338-54.36,54.36-54.36h0c16.396,0,31.096,7.259,41.063,18.738"/>
		<g>
			<polygon points="107.911,415.89 64.368,415.89 67,408.771 105.279,408.771 			"/>
			<polygon style="opacity:0.2;fill:#FFFFFF;enable-background:new    ;" points="107.911,415.89 64.368,415.89 67,408.771 
				105.279,408.771 			"/>
			<polygon style="opacity:0.2;fill:#FFFFFF;enable-background:new    ;" points="107.911,415.89 80.174,415.89 80.172,408.771 
				105.279,408.771 			"/>
		</g>
		<g>
			<path style="fill:#263238;" d="M185.332,197.532l-25.419,7.192l-0.481-1.701c-1.946-6.879,2.053-14.033,8.932-15.979l0.508-0.144
				c6.879-1.946,14.033,2.053,15.979,8.932L185.332,197.532z"/>
			<path style="opacity:0.2;fill:#FFFFFF;enable-background:new    ;" d="M184.925,196.084l0.41,1.449l-25.424,7.193l-0.41-1.449
				c-1.987-7.023,2.098-14.318,9.122-16.305c0.963-0.272,1.929-0.427,2.884-0.479c2.534-0.143,5.013,0.463,7.154,1.66
				C181.61,189.793,183.931,192.573,184.925,196.084z"/>
			<path style="opacity:0.2;fill:#FFFFFF;enable-background:new    ;" d="M184.925,196.084l0.41,1.449l-16.246,4.596l-0.41-1.449
				c-1.715-6.06-0.442-11.887,2.828-14.188c2.534-0.143,5.013,0.463,7.154,1.66C181.61,189.793,183.931,192.573,184.925,196.084z"/>
		</g>
	</g>
</g>
<g id="Glasess">
	<g>
		<g>
			<path style="fill:#263238;" d="M282.975,271.448c-0.766-0.472-1.585-1.123-2.236-2.016c-1.659-2.268-2.215-13.154-4.987-16.02
				c-0.493-0.504-2.383-1.165-5.165-1.911c-8.912-2.383-26.979-5.637-37.393-7.443c-0.43-0.073-0.85-0.147-1.249-0.22v-7.863
				c0.325,0.094,0.672,0.189,1.039,0.294c9.291,2.603,28.376,8.052,38.873,11.642c3.947,1.354,6.676,2.446,7.222,3.023
				c1.963,2.1,4.609,14.246,5.648,19.305C284.928,271.249,283.836,271.994,282.975,271.448z"/>
			<path style="opacity:0.4;fill:#FFFFFF;" d="M271.858,247.912l-1.271,3.59c-8.912-2.383-26.979-5.637-37.393-7.443l-0.514-6.456
				c-0.021-0.325,0.021-0.651,0.126-0.955c0.052-0.137,0.115-0.263,0.178-0.378C242.275,238.873,261.361,244.322,271.858,247.912z"
				/>
		</g>
		<g>
			<path style="fill:#263238;" d="M231.948,235.972c-0.668-0.187-1.285-0.36-1.814-0.508c-0.342-0.096,0.884-2.36,0.884-2.36
				l-4.844,1.732c-0.604,0.216-1.002,0.794-0.989,1.435l0.106,5.213c0.015,0.717,0.535,1.322,1.243,1.441
				c1.14,0.19,3.031,0.508,5.414,0.918V235.972z"/>
			<path style="opacity:0.1;fill:#FFFFFF;" d="M231.018,233.104c0,0-0.311,0.459-1.577,0.874c-1.266,0.415-3.442,1.27-3.827,1.592
				c-0.384,0.322,0.015,5.743,0,6.264c-0.015,0.521,4.637,1.142,4.637,1.142l-0.118-7.513L231.018,233.104z"/>
			<path style="opacity:0.1;fill:#FFFFFF;" d="M230,234.29c0,0-4.005,1.28-4.109,1.488c-0.104,0.208,0,1.973,0,1.973
				s0.519-1.315,1.038-1.004c0.519,0.311,0.242,1.211,1.142,1.004c0.9-0.208,1.369,0.865,1.369,0.865S229.229,235.017,230,234.29z"
				/>
		</g>
		<path style="fill:#263238;" d="M398.828,250.94c-2.492-2.661-52.881-16.573-52.881-16.573s-5.202-1.574-7.612-2.121l-0.78,10.211
			h7.008c0,0,48.174,8.098,50.943,10.958c2.768,2.859,3.322,13.752,4.983,16.017c0.601,0.819,1.346,1.442,2.053,1.904
			c0.922,0.602,2.112-0.225,1.891-1.303C403.367,264.848,400.764,253.007,398.828,250.94z"/>
		<path style="fill:#263238;" d="M279.266,239.585c0,0,0.322,4.245-0.385,7.076c-0.707,2.83-2.726,3.329-4.906,7.237
			S277.611,237.286,279.266,239.585z"/>
		<path style="fill:#263238;" d="M295.59,239.312c0,0,2.037,4.284,2.474,7.14c0.436,2.856-1.381,3.36-1.983,7.303
			C295.48,257.697,293.006,236.991,295.59,239.312z"/>
		<path style="fill:#263238;" d="M341.743,234.375c-0.052-0.429-0.208-0.832-0.468-1.1c-0.25-0.268-6.331-6.412-23.621-6.412
			c-15.783,0-24.555,6.05-24.923,6.305c-0.066,0.054-0.124,0.134-0.18,0.188c-1.886-1.18-6.477-3.193-12.443,0.04
			c-0.061-0.081-0.112-0.161-0.174-0.228c-0.311-0.255-7.751-6.305-23.523-6.305c-17.3,0-24.735,6.144-25.044,6.412
			c-0.319,0.268-0.563,0.671-0.71,1.1c-0.107,0.335-0.145,0.684-0.124,1.033l1.728,23.099c0.591,7.861,5.208,13.347,11.237,13.347
			h10.901c7.976,0,15.719-6.855,19.271-17.076c0,0,5.891-14.783,6.116-14.917c6.637-4.158,11.347-0.241,11.537-0.067
			c0.302,0.255,2.911,14.984,2.911,14.984c1.299,10.222,7.532,17.076,15.508,17.076h10.901c6.03,0,11.865-5.486,14.178-13.347
			l6.818-23.099C341.738,235.059,341.776,234.71,341.743,234.375z M295.316,236.44c0.163-0.483,0.467-0.885,0.868-1.087
			c3.473-1.717,10.684-4.467,21.026-4.467c11.29,0,17.508,2.736,20.248,4.413c0.327,0.201,0.544,0.59,0.602,1.06
			c0.046,0.309,0.019,0.644-0.078,0.979l-5.958,20.189c-1.784,6.05-6.296,10.302-10.938,10.302h-10.901
			c-6.638,0-11.873-5.768-12.964-14.259l-2.034-16.057C295.138,237.151,295.189,236.776,295.316,236.44z M233.892,236.36
			c0.171-0.469,0.464-0.858,0.846-1.06c3.109-1.677,9.93-4.413,21.23-4.413c10.332,0,16.937,2.75,20.032,4.467
			c0.357,0.201,0.583,0.604,0.639,1.087c0.053,0.335,0.022,0.711-0.108,1.073l-5.581,16.044
			c-2.953,8.505-9.469,14.273-16.107,14.273h-10.901c-4.642,0-8.217-4.252-8.668-10.302l-1.509-20.189
			C233.741,237.004,233.788,236.668,233.892,236.36z"/>
		<path style="fill:#263238;" d="M340.655,234.719c-0.054-0.418-0.21-0.81-0.471-1.072c-0.251-0.261-6.35-6.247-23.64-6.247
			c-15.783,0-24.538,5.894-24.905,6.143c-0.066,0.052-0.124,0.131-0.18,0.183c-1.89-1.15-6.486-3.11-12.443,0.039
			c-0.061-0.078-0.113-0.157-0.175-0.222c-0.312-0.248-7.768-6.143-23.541-6.143c-17.3,0-24.717,5.986-25.026,6.247
			c-0.318,0.261-0.561,0.653-0.707,1.072c-0.106,0.327-0.143,0.666-0.121,1.006l1.793,22.505
			c0.614,7.658,5.246,13.004,11.275,13.004h10.901c7.976,0,15.7-6.678,19.223-16.637c0,0,5.849-14.402,6.073-14.533
			c6.626-4.051,11.346-0.235,11.537-0.065c0.302,0.248,2.954,14.598,2.954,14.598c1.329,9.959,7.581,16.637,15.557,16.637h10.901
			c6.03,0,11.849-5.345,14.141-13.004l6.752-22.505C340.651,235.385,340.689,235.045,340.655,234.719z M294.234,236.731
			c0.161-0.471,0.464-0.863,0.865-1.059c3.468-1.673,10.672-4.352,21.014-4.352c11.29,0,17.515,2.666,20.26,4.3
			c0.328,0.196,0.546,0.575,0.605,1.033c0.047,0.3,0.021,0.627-0.075,0.954l-5.901,19.669c-1.767,5.894-6.267,10.037-10.909,10.037
			h-10.901c-6.638,0-11.889-5.62-13.004-13.893l-2.08-15.644C294.058,237.424,294.108,237.058,294.234,236.731z M232.809,236.653
			c0.17-0.458,0.461-0.837,0.842-1.033c3.105-1.634,9.917-4.3,21.217-4.3c10.332,0,16.945,2.679,20.045,4.352
			c0.358,0.196,0.584,0.588,0.642,1.059c0.054,0.327,0.024,0.693-0.105,1.046l-5.535,15.631
			c-2.929,8.286-9.428,13.906-16.067,13.906h-10.901c-4.642,0-8.229-4.143-8.697-10.037l-1.566-19.669
			C232.66,237.28,232.706,236.953,232.809,236.653z"/>
		<path style="opacity:0.1;fill:#FFFFFF;" d="M279.599,238.643c0,0,0.726-3.01,0.424-3.852c-0.302-0.842,2.485-1.898,4.15-1.951
			c1.665-0.052,2.652,0.028,2.913,0.243c0.261,0.215-1.294-0.062-2.33,0.829c-1.036,0.891,0.07,1.609-1.157,2.42
			c-1.227,0.81-0.574,0.91-0.886,1.159S279.599,238.643,279.599,238.643z"/>
		<path style="opacity:0.1;fill:#FFFFFF;" d="M275.137,231.905c0,0-6.467-4.127-20.864-4.127s-22.407,5.246-23.616,6.596
			c-1.209,1.35-0.538,4.064,0.333,14.381c0.871,10.317,1.177,15.753,5.72,19.074c0,0-3.288-5.334-3.066-7.355
			s-0.885-7.669-1.262-14.302c-0.377-6.633-1.191-10.553,0-11.31c1.191-0.757,7.244-4.814,18.364-5.227
			c11.12-0.413,17.061,2.202,18.226,1.685c1.164-0.516,4.074,0.722,4.766,0.722C274.43,232.042,275.137,231.905,275.137,231.905z"/>
		<g style="opacity:0.4;">
			<path style="fill:none;stroke:#FFFFFF;stroke-width:0.5;stroke-miterlimit:10;" d="M274.949,235.354
				c-3.095-1.717-9.7-4.467-20.032-4.467c-11.3,0-18.12,2.736-21.23,4.413c-0.382,0.201-0.674,0.59-0.846,1.06
				c-0.104,0.309-0.151,0.644-0.128,0.979l1.509,20.189c0.451,6.05,4.026,10.302,8.668,10.302h10.901
				c6.638,0,13.154-5.768,16.107-14.273l5.581-16.044c0.13-0.362,0.161-0.738,0.108-1.073
				C275.532,235.958,275.306,235.555,274.949,235.354z"/>
			<path style="fill:none;stroke:#FFFFFF;stroke-width:0.5;stroke-miterlimit:10;" d="M337.01,236.36
				c-0.058-0.469-0.274-0.858-0.602-1.06c-2.74-1.677-8.957-4.413-20.248-4.413c-10.342,0-17.553,2.75-21.026,4.467
				c-0.401,0.201-0.705,0.604-0.868,1.087c-0.127,0.335-0.178,0.711-0.129,1.073l2.034,16.057
				c1.091,8.491,6.325,14.259,12.964,14.259h10.901c4.642,0,9.154-4.252,10.938-10.302l5.958-20.189
				C337.029,237.004,337.056,236.668,337.01,236.36z"/>
		</g>
		<path style="opacity:0.1;fill:#FFFFFF;" d="M291.991,234.106c-0.614,0.55-0.344,1.238-0.296,2.682
			c0.048,1.444-0.372,3.006-0.372,3.006s2.935,16.458,3.414,17.765c0.479,1.307,0.747,0.757,0.908,0.55
			c0.161-0.206,1.168,1.376,1.168,1.376s-1.699-5.09-2.601-13.687c-0.901-8.597-1.251-9.82-0.675-10.653
			c0.576-0.833,7.785-4.065,13.882-4.753s13.773-0.619,18.065,0c4.292,0.619,4.446-0.774,5.107-0.49
			c0.661,0.284,2.522,0.353,2.522,0.353s-11.711-3.645-24.006-1.995C296.814,229.91,291.991,234.106,291.991,234.106z"/>
		<path style="fill:#FFFFFF;" d="M310.641,236.93c1.916-3.578-0.318-2.065-1.825,0.271c-1.507,2.337-7.067,21.457-6.103,25.859
			c0,0-2.791-5.351-4.034-6.739c-0.458-0.511-0.943-3.161-1.358-6.353c-0.385-2.889-0.711-6.217-0.928-8.825
			c-0.183-2.243-0.29-3.943-0.265-4.36c0.052-1.429,8.111-4.538,19.459-4.538c0,0-6.812,14.093-8.71,20.08
			C306.876,252.327,308.726,240.497,310.641,236.93z"/>
		<path style="opacity:0.2;" d="M297.321,249.969c-0.385-2.889-0.711-6.217-0.928-8.825c0.622,1.502,1.414,3.651,1.672,5.31
			C298.303,248.008,297.872,248.874,297.321,249.969z"/>
		<path style="opacity:0.1;fill:#FFFFFF;" d="M345.415,234.515c0,0-4.021-1.217-6.251-1.759l0.045,0.082
			c-2.316-1.694-8.985-5.439-22.664-5.439c-15.783,0-24.538,5.894-24.905,6.143c-0.066,0.052-0.124,0.131-0.18,0.183
			c-1.89-1.15-6.486-3.11-12.443,0.039c-0.061-0.078-0.113-0.157-0.175-0.222c-0.312-0.248-7.768-6.143-23.541-6.143
			c-17.3,0-24.717,5.986-25.026,6.247c-0.318,0.261-0.561,0.653-0.707,1.072c-0.106,0.327-0.143,0.667-0.121,1.006l1.793,22.505
			c0.613,7.658,5.245,13.004,11.275,13.004h10.901c7.976,0,15.7-6.678,19.223-16.637c0,0,5.849-14.402,6.073-14.533
			c6.626-4.051,11.346-0.235,11.537-0.065c0.302,0.248,2.954,14.598,2.954,14.598c1.328,9.959,7.58,16.637,15.556,16.637h10.901
			c6.03,0,11.849-5.345,14.141-13.004l5.73-19.1l-0.369,2.453h5.041c0,0,0.665-0.121,0.786-0.484
			c0.121-0.363,0.968-5.02,0.968-5.564C345.959,234.992,345.415,234.515,345.415,234.515z M275.451,237.777l-5.535,15.631
			c-2.929,8.286-9.428,13.906-16.067,13.906h-10.901c-4.642,0-8.229-4.143-8.697-10.037l-1.566-19.669
			c-0.024-0.327,0.022-0.654,0.125-0.954c0.17-0.457,0.462-0.836,0.842-1.032c3.105-1.634,9.917-4.3,21.218-4.3
			c10.332,0,16.945,2.679,20.045,4.352c0.358,0.196,0.584,0.588,0.642,1.059C275.61,237.058,275.58,237.424,275.451,237.777z
			 M336.903,237.607l-5.9,19.669c-1.767,5.894-6.267,10.037-10.909,10.037h-10.901c-6.638,0-11.889-5.62-13.004-13.892l-2.08-15.644
			c-0.051-0.353,0-0.719,0.125-1.046c0.162-0.471,0.464-0.863,0.866-1.059c3.468-1.673,10.672-4.352,21.013-4.352
			c11.29,0,17.515,2.666,20.26,4.3c0.328,0.196,0.546,0.575,0.605,1.032C337.025,236.953,336.999,237.28,336.903,237.607z"/>
		<path style="opacity:0.1;fill:#FFFFFF;" d="M340.029,233.633c0.692,0.381,0.826,0.623,0.638,1.8
			c-0.188,1.177-0.638,3.149-0.638,3.149s0.311-1.35,1.488-1.281c1.177,0.069,3.253-0.242,3.461-0.519
			c0.208-0.277,0.519-1.473,0.346-1.584c-0.173-0.111-3.011-1.15-3.807-1.357C340.721,233.633,340.029,233.633,340.029,233.633z"/>
		<g>
			<path style="fill:#FFFFFF;" d="M254.684,232.249c0,0-2.372,4.115-4.986,8.808c-1.008,1.785-2.036,3.653-2.992,5.417
				c-1.732,3.181-3.191,6.005-3.695,7.296c0.074-0.388,0.787-3.8,1.721-7.653c0.493-2.016,1.05-4.157,1.617-6.036
				c0.441-1.491,0.882-2.813,1.302-3.8c-0.084,0.115-0.798,1.05-1.963,2.362c-0.137,0.147-0.326,0.525-0.577,1.081
				c-0.567,1.27-1.407,3.485-2.309,6.036c-2.394,6.698-5.322,15.684-5.322,15.684s-1.113-0.861-1.26-2.677
				c0,0-0.641-8.052-1.102-14.372c-0.262-3.821-0.472-7.013-0.43-7.401c0.01-0.063,0.042-0.136,0.105-0.21
				C235.809,235.545,243.86,232.375,254.684,232.249z"/>
			<path style="opacity:0.2;" d="M245.11,239.724c-0.567,1.27-1.407,3.485-2.309,6.036c-2.751-0.493-5.354-0.955-7.684-1.365
				c-0.262-3.821-0.472-7.013-0.43-7.401c0.01-0.063,0.042-0.136,0.105-0.21C237.688,237.592,241.268,238.611,245.11,239.724z"/>
			<path style="opacity:0.2;" d="M249.697,241.057c-1.008,1.785-2.036,3.653-2.992,5.417c-0.661-0.115-1.323-0.242-1.974-0.357
				c0.493-2.016,1.05-4.157,1.617-6.036C247.451,240.395,248.563,240.721,249.697,241.057z"/>
		</g>
	</g>
</g>
<g id="Books">
	<g>
		<g>
			
				<rect x="234.574" y="330.796" transform="matrix(-1 -1.224647e-16 1.224647e-16 -1 529.3909 687.7214)" style="fill:#407BFF;" width="60.243" height="26.129"/>
			
				<rect x="234.574" y="330.796" transform="matrix(-1 -1.224647e-16 1.224647e-16 -1 529.3909 687.7214)" style="opacity:0.8;fill:#FFFFFF;" width="60.243" height="26.129"/>
			<polygon style="opacity:0.2;enable-background:new    ;" points="289.984,333.352 234.574,333.352 234.574,330.796 
				289.925,330.796 			"/>
			<g>
				<polygon style="opacity:0.2;enable-background:new    ;" points="289.986,335.581 239.996,336.647 289.986,337.712 				"/>
				<polygon style="opacity:0.2;enable-background:new    ;" points="289.986,345.242 237.049,346.136 289.986,346.887 				"/>
				<polygon style="opacity:0.2;enable-background:new    ;" points="289.986,350.895 237.521,351.955 289.986,353.016 				"/>
				<polygon style="opacity:0.2;enable-background:new    ;" points="234.574,339.303 285.328,340.836 234.574,341.897 				"/>
			</g>
			<path style="fill:#263238;" d="M369.024,343.726c-0.004,3.265-1.326,6.218-3.468,8.36c-2.145,2.145-5.104,3.468-8.376,3.468
				H231.794c-0.482,0-0.872,0.391-0.872,0.873v0.936c0,0.482,0.391,0.873,0.872,0.873h126.039c4.004,0,7.643-1.627,10.271-4.255
				c2.652-2.652,4.284-6.323,4.254-10.379c-0.059-8.041-6.857-14.417-14.898-14.417H231.794c-0.482,0-0.872,0.391-0.872,0.872v0.936
				c0,0.482,0.391,0.873,0.872,0.873l125.038,0C363.356,331.867,369.032,337.201,369.024,343.726z"/>
			<path style="opacity:0.4;fill:#FFFFFF;" d="M369.024,343.726c-0.004,3.265-1.326,6.218-3.468,8.36
				c-2.145,2.145-5.104,3.468-8.376,3.468H231.794c-0.482,0-0.872,0.391-0.872,0.873v0.936c0,0.482,0.391,0.873,0.872,0.873h126.039
				c4.004,0,7.643-1.627,10.271-4.255c2.652-2.652,4.284-6.323,4.254-10.379c-0.059-8.041-6.857-14.417-14.898-14.417H231.794
				c-0.482,0-0.872,0.391-0.872,0.872v0.936c0,0.482,0.391,0.873,0.872,0.873l125.038,0
				C363.356,331.867,369.032,337.201,369.024,343.726z"/>
			<g>
				<path style="fill:#407BFF;" d="M414.753,343.881L414.753,343.881c0,7.226-5.858,13.084-13.084,13.084H289.986v-26.168h111.683
					C408.895,330.797,414.753,336.655,414.753,343.881z"/>
				<path style="opacity:0.7;fill:#FFFFFF;" d="M289.984,330.796v26.173h111.689c2.762,0,5.319-0.858,7.428-2.315
					c3.415-2.36,5.649-6.311,5.649-10.771c0-7.231-5.855-13.086-13.077-13.086H289.984z"/>
			</g>
			<g>
				<polygon style="opacity:0.2;enable-background:new    ;" points="289.986,337.712 289.986,335.581 401.31,336.475 				"/>
				<polygon style="opacity:0.2;enable-background:new    ;" points="289.986,346.887 289.986,345.242 339.961,347.03 				"/>
				<polygon style="opacity:0.2;enable-background:new    ;" points="289.986,353.016 289.986,350.895 370.563,352.122 				"/>
				<path style="opacity:0.2;enable-background:new    ;" d="M401.852,333.352c2.19,0,4.246,0.831,5.819,2.235
					c-0.635,1.251-1.234,2.69-1.645,4.246l-111.68,0.876l111.421,0.277c-0.161,0.885-0.268,1.797-0.268,2.726
					c0,1.099,0.143,2.181,0.375,3.227l-75.219,1.645l75.926,0.876c0.724,2.056,1.699,3.87,2.521,5.193
					c3.415-2.36,5.649-6.311,5.649-10.771c0-7.231-5.855-13.086-13.077-13.086H289.984v2.556H401.852z"/>
			</g>
			<path style="fill:#263238;" d="M413.718,343.726c-0.004,3.265-1.326,6.218-3.468,8.36c-2.145,2.145-5.104,3.468-8.376,3.468
				H288.108c-0.482,0-0.873,0.391-0.873,0.873v0.936c0,0.482,0.391,0.873,0.873,0.873h114.419c4.004,0,7.643-1.627,10.271-4.255
				c2.652-2.652,4.284-6.323,4.254-10.379c-0.059-8.041-6.857-14.417-14.898-14.417H288.108c-0.482,0-0.873,0.391-0.873,0.872v0.936
				c0,0.482,0.391,0.873,0.873,0.873l113.418,0C408.05,331.867,413.726,337.201,413.718,343.726z"/>
			<polygon style="fill:#263238;" points="401.31,340.404 401.31,350.895 397.512,347.097 393.832,350.777 393.832,340.404 			"/>
		</g>
		<g>
			<g>
				<rect x="243.665" y="388.452" style="fill:#407BFF;" width="162.592" height="26.168"/>
				<rect x="243.665" y="388.452" style="opacity:0.7;fill:#FFFFFF;" width="162.592" height="26.168"/>
			</g>
			<g>
				<polygon style="opacity:0.2;enable-background:new    ;" points="406.256,395.367 406.256,393.236 294.933,394.129 				"/>
				<polygon style="opacity:0.2;enable-background:new    ;" points="406.256,404.542 406.256,402.897 356.281,404.685 				"/>
				<polygon style="opacity:0.2;enable-background:new    ;" points="406.256,410.671 406.256,408.549 325.68,409.777 				"/>
				<path style="opacity:0.2;enable-background:new    ;" d="M280.014,388.452l-2.357,19.508l2.781-2.969
					c1.286,5.498,5.117,9.629,5.117,9.629s2.585-3.214,4.104-7.506l75.932-0.872l-75.218-1.643c0.225-1.052,0.369-2.135,0.369-3.233
					c0-0.929-0.102-1.839-0.268-2.721l111.423-0.281l-111.681-0.875c-0.406-1.557-1.006-2.995-1.641-4.242
					c1.566-1.41,3.626-2.235,5.82-2.235h111.862v-2.559H280.014z"/>
			</g>
			<path style="fill:#407BFF;" d="M282.525,401.381c0.004,3.265,1.326,6.218,3.468,8.36c2.146,2.145,5.104,3.468,8.376,3.468
				h113.766c0.482,0,0.872,0.391,0.872,0.873v0.936c0,0.482-0.391,0.872-0.872,0.872h-176.99c-4.005,0-7.643-1.627-10.271-4.255
				c-2.652-2.652-4.284-6.323-4.254-10.379c0.059-8.041,6.857-14.417,14.898-14.417h176.617c0.482,0,0.872,0.391,0.872,0.872v0.937
				c0,0.482-0.391,0.873-0.872,0.873H294.717C288.192,389.522,282.516,394.856,282.525,401.381z"/>
			<path style="opacity:0.4;enable-background:new    ;" d="M282.525,401.381c0.004,3.265,1.326,6.218,3.468,8.36
				c2.146,2.145,5.104,3.468,8.376,3.468h113.766c0.482,0,0.872,0.391,0.872,0.873v0.936c0,0.482-0.391,0.872-0.872,0.872h-176.99
				c-4.005,0-7.643-1.627-10.271-4.255c-2.652-2.652-4.284-6.323-4.254-10.379c0.059-8.041,6.857-14.417,14.898-14.417h176.617
				c0.482,0,0.872,0.391,0.872,0.872v0.937c0,0.482-0.391,0.873-0.872,0.873H294.717
				C288.192,389.522,282.516,394.856,282.525,401.381z"/>
			<path style="fill:#407BFF;" d="M282.525,401.381c0.004,3.265,1.326,6.218,3.468,8.36c2.146,2.145,5.104,3.468,8.376,3.468
				h113.766c0.482,0,0.872,0.391,0.872,0.873v0.936c0,0.482-0.391,0.872-0.872,0.872H293.716c-4.004,0-7.643-1.627-10.271-4.255
				c-2.652-2.652-4.284-6.323-4.254-10.379c0.059-8.041,6.857-14.417,14.898-14.417h114.046c0.482,0,0.872,0.391,0.872,0.872v0.937
				c0,0.482-0.391,0.873-0.872,0.873H294.717C288.192,389.522,282.516,394.856,282.525,401.381z"/>
			<polygon style="fill:#263238;" points="294.933,398.059 294.933,408.549 298.73,404.752 302.41,408.431 302.41,398.059 			"/>
			<path style="opacity:0.1;fill:#FFFFFF;" d="M282.525,401.381c0.004,3.265,1.326,6.218,3.468,8.36
				c2.146,2.145,5.104,3.468,8.376,3.468h113.766c0.482,0,0.872,0.391,0.872,0.873v0.936c0,0.482-0.391,0.872-0.872,0.872H293.716
				c-4.004,0-7.643-1.627-10.271-4.255c-2.652-2.652-4.284-6.323-4.254-10.379c0.059-8.041,6.857-14.417,14.898-14.417h114.046
				c0.482,0,0.872,0.391,0.872,0.872v0.937c0,0.482-0.391,0.873-0.872,0.873H294.717
				C288.192,389.522,282.516,394.856,282.525,401.381z"/>
			<path style="opacity:0.1;fill:#FFFFFF;" d="M273.932,411.638c2.632,2.622,6.267,4.252,10.278,4.252h-4.83
				c-4.001,0-7.636-1.629-10.268-4.252c-2.651-2.651-4.281-6.325-4.252-10.384c0.058-8.041,6.855-14.414,14.896-14.414h4.821
				c-8.041,0-14.838,6.373-14.896,14.414C269.651,405.313,271.28,408.987,273.932,411.638z"/>
			<path style="opacity:0.1;fill:#FFFFFF;" d="M264.284,411.638c2.632,2.622,6.267,4.252,10.278,4.252h-4.83
				c-4.001,0-7.636-1.629-10.268-4.252c-2.651-2.651-4.281-6.325-4.252-10.384c0.058-8.041,6.855-14.414,14.896-14.414h4.821
				c-8.041,0-14.838,6.373-14.896,14.414C260.004,405.313,261.633,408.987,264.284,411.638z"/>
		</g>
		<g>
			<g>
				<rect x="256.408" y="359.625" style="fill:#407BFF;" width="162.592" height="26.168"/>
				<rect x="256.408" y="359.625" style="opacity:0.8;fill:#FFFFFF;" width="162.592" height="26.168"/>
			</g>
			<g>
				<polygon style="opacity:0.2;enable-background:new    ;" points="419,366.54 419,364.408 307.676,365.302 				"/>
				<polygon style="opacity:0.2;enable-background:new    ;" points="419,375.714 419,374.069 369.025,375.857 				"/>
				<polygon style="opacity:0.2;enable-background:new    ;" points="419,381.844 419,379.722 338.423,380.95 				"/>
				<path style="opacity:0.2;enable-background:new    ;" d="M292.757,359.625l-2.357,19.508l2.781-2.969
					c1.286,5.498,5.117,9.629,5.117,9.629s2.585-3.214,4.104-7.506l75.932-0.872l-75.218-1.643c0.225-1.052,0.369-2.135,0.369-3.233
					c0-0.929-0.102-1.839-0.268-2.721l111.423-0.281l-111.681-0.875c-0.406-1.557-1.006-2.995-1.641-4.242
					c1.566-1.41,3.626-2.235,5.82-2.235H419v-2.559H292.757z"/>
			</g>
			<path style="fill:#263238;" d="M295.268,372.553c0.004,3.265,1.326,6.218,3.468,8.36c2.145,2.145,5.104,3.468,8.376,3.468
				h113.766c0.482,0,0.873,0.391,0.873,0.873v0.936c0,0.482-0.391,0.873-0.873,0.873H252.827c-4.004,0-7.643-1.627-10.27-4.255
				c-2.652-2.652-4.284-6.323-4.254-10.379c0.059-8.041,6.857-14.417,14.898-14.417h167.678c0.482,0,0.873,0.391,0.873,0.872v0.936
				c0,0.482-0.391,0.873-0.873,0.873H307.46C300.936,360.694,295.259,366.029,295.268,372.553z"/>
			<path style="opacity:0.4;fill:#FFFFFF;" d="M295.268,372.553c0.004,3.265,1.326,6.218,3.468,8.36
				c2.145,2.145,5.104,3.468,8.376,3.468h113.766c0.482,0,0.873,0.391,0.873,0.873v0.936c0,0.482-0.391,0.873-0.873,0.873H252.827
				c-4.004,0-7.643-1.627-10.27-4.255c-2.652-2.652-4.284-6.323-4.254-10.379c0.059-8.041,6.857-14.417,14.898-14.417h167.678
				c0.482,0,0.873,0.391,0.873,0.872v0.936c0,0.482-0.391,0.873-0.873,0.873H307.46
				C300.936,360.694,295.259,366.029,295.268,372.553z"/>
			<path style="fill:#263238;" d="M295.268,372.553c0.004,3.265,1.326,6.218,3.468,8.36c2.145,2.145,5.104,3.468,8.376,3.468
				h113.766c0.482,0,0.873,0.391,0.873,0.873v0.936c0,0.482-0.391,0.873-0.873,0.873H306.459c-4.005,0-7.643-1.627-10.271-4.255
				c-2.652-2.652-4.284-6.323-4.254-10.379c0.059-8.041,6.857-14.417,14.898-14.417h114.046c0.482,0,0.873,0.391,0.873,0.872v0.936
				c0,0.482-0.391,0.873-0.873,0.873H307.46C300.936,360.694,295.259,366.029,295.268,372.553z"/>
			<polygon style="fill:#407BFF;" points="316.693,365.505 316.693,375.996 320.491,372.198 324.171,375.878 324.171,365.505 			"/>
			<path style="opacity:0.6;fill:#FFFFFF;" d="M295.268,372.553c0.004,3.265,1.326,6.218,3.468,8.36
				c2.145,2.145,5.104,3.468,8.376,3.468h113.766c0.482,0,0.873,0.391,0.873,0.873v0.936c0,0.482-0.391,0.873-0.873,0.873H306.459
				c-4.005,0-7.643-1.627-10.271-4.255c-2.652-2.652-4.284-6.323-4.254-10.379c0.059-8.041,6.857-14.417,14.898-14.417h114.046
				c0.482,0,0.873,0.391,0.873,0.872v0.936c0,0.482-0.391,0.873-0.873,0.873H307.46
				C300.936,360.694,295.259,366.029,295.268,372.553z"/>
			<path style="opacity:0.2;enable-background:new    ;" d="M286.665,365.714c-7.459,0-14.919,0-22.378,0c-4.919,0-9.837,0-14.756,0
				c-3.994,3.24-3.994,9.716,0,12.956c4.919,0,9.837,0,14.756,0c7.459,0,14.919,0,22.378,0
				C284.258,375.43,284.258,368.954,286.665,365.714z"/>
		</g>
		<g>
			<rect x="344.217" y="273.141" style="fill:#407BFF;" width="60.243" height="26.129"/>
			<rect x="344.217" y="273.141" style="opacity:0.7;fill:#FFFFFF;" width="60.243" height="26.129"/>
			<polygon style="opacity:0.2;enable-background:new    ;" points="349.05,275.698 404.461,275.698 404.461,273.141 
				349.109,273.141 			"/>
			<g>
				<polygon style="opacity:0.2;enable-background:new    ;" points="349.049,277.926 399.038,278.992 349.049,280.058 				"/>
				<polygon style="opacity:0.2;enable-background:new    ;" points="349.049,287.587 401.985,288.481 349.049,289.232 				"/>
				<polygon style="opacity:0.2;enable-background:new    ;" points="349.049,293.24 401.514,294.301 349.049,295.362 				"/>
				<polygon style="opacity:0.2;enable-background:new    ;" points="404.461,281.649 353.706,283.181 404.461,284.242 				"/>
			</g>
			<path style="fill:#407BFF;" d="M270.01,286.071c0.004,3.266,1.326,6.218,3.468,8.36c2.145,2.145,5.104,3.468,8.376,3.468h125.387
				c0.482,0,0.873,0.391,0.873,0.872v0.937c0,0.482-0.391,0.873-0.873,0.873H281.202c-4.005,0-7.643-1.627-10.271-4.255
				c-2.652-2.652-4.284-6.323-4.254-10.379c0.059-8.041,6.857-14.417,14.898-14.417h125.667c0.482,0,0.873,0.391,0.873,0.873v0.936
				c0,0.482-0.391,0.872-0.873,0.872H282.203C275.678,274.212,270.002,279.547,270.01,286.071z"/>
			<path style="opacity:0.4;fill:#FFFFFF;" d="M270.01,286.071c0.004,3.266,1.326,6.218,3.468,8.36
				c2.145,2.145,5.104,3.468,8.376,3.468h125.387c0.482,0,0.873,0.391,0.873,0.872v0.937c0,0.482-0.391,0.873-0.873,0.873H281.202
				c-4.005,0-7.643-1.627-10.271-4.255c-2.652-2.652-4.284-6.323-4.254-10.379c0.059-8.041,6.857-14.417,14.898-14.417h125.667
				c0.482,0,0.873,0.391,0.873,0.873v0.936c0,0.482-0.391,0.872-0.873,0.872H282.203
				C275.678,274.212,270.002,279.547,270.01,286.071z"/>
			<g>
				<path style="fill:#407BFF;" d="M224.282,286.226L224.282,286.226c0,7.226,5.858,13.084,13.084,13.084h111.683v-26.168H237.365
					C230.139,273.142,224.282,279,224.282,286.226z"/>
				<path style="opacity:0.5;fill:#FFFFFF;" d="M349.05,273.141v26.172H237.361c-2.762,0-5.318-0.858-7.428-2.315
					c-3.414-2.36-5.649-6.311-5.649-10.771c0-7.231,5.855-13.086,13.077-13.086H349.05z"/>
			</g>
			<g>
				<polygon style="opacity:0.2;enable-background:new    ;" points="349.049,280.058 349.049,277.926 237.725,278.82 				"/>
				<polygon style="opacity:0.2;enable-background:new    ;" points="349.049,289.232 349.049,287.587 299.073,289.375 				"/>
				<polygon style="opacity:0.2;enable-background:new    ;" points="349.049,295.362 349.049,293.24 268.472,294.468 				"/>
				<path style="opacity:0.2;enable-background:new    ;" d="M237.182,275.698c-2.19,0-4.246,0.831-5.819,2.235
					c0.635,1.251,1.233,2.691,1.645,4.246l111.681,0.876l-111.421,0.277c0.161,0.885,0.268,1.797,0.268,2.726
					c0,1.1-0.143,2.181-0.375,3.227l75.219,1.645l-75.925,0.876c-0.724,2.056-1.699,3.87-2.521,5.193
					c-3.414-2.36-5.649-6.311-5.649-10.771c0-7.231,5.855-13.086,13.077-13.086H349.05v2.556H237.182z"/>
			</g>
			<path style="fill:#407BFF;" d="M225.317,286.071c0.004,3.266,1.326,6.218,3.468,8.36c2.145,2.145,5.104,3.468,8.376,3.468
				h113.767c0.482,0,0.873,0.391,0.873,0.872v0.937c0,0.482-0.391,0.873-0.873,0.873H236.508c-4.005,0-7.643-1.627-10.271-4.255
				c-2.652-2.652-4.284-6.323-4.254-10.379c0.059-8.041,6.857-14.417,14.898-14.417h114.046c0.482,0,0.873,0.391,0.873,0.873v0.936
				c0,0.482-0.391,0.872-0.873,0.872H237.509C230.984,274.212,225.308,279.547,225.317,286.071z"/>
			<polygon style="fill:#263238;" points="237.725,282.749 237.725,293.24 241.523,289.442 245.202,293.122 245.202,282.749 			"/>
		</g>
		<g>
			<g>
				<rect x="270.481" y="301.97" style="fill:#407BFF;" width="162.592" height="26.168"/>
				<rect x="270.481" y="301.97" style="opacity:0.7;fill:#FFFFFF;" width="162.592" height="26.168"/>
			</g>
			<g>
				<polygon style="opacity:0.2;enable-background:new    ;" points="433.073,308.885 433.073,306.754 321.749,307.647 				"/>
				<polygon style="opacity:0.2;enable-background:new    ;" points="433.073,318.06 433.073,316.415 383.097,318.202 				"/>
				<polygon style="opacity:0.2;enable-background:new    ;" points="433.073,324.189 433.073,322.067 352.496,323.295 				"/>
				<path style="opacity:0.2;enable-background:new    ;" d="M306.83,301.97l-2.357,19.508l2.781-2.969
					c1.286,5.498,5.117,9.629,5.117,9.629s2.584-3.214,4.104-7.506l75.932-0.872l-75.218-1.643c0.225-1.052,0.369-2.135,0.369-3.233
					c0-0.929-0.102-1.839-0.268-2.721l111.423-0.281l-111.681-0.875c-0.406-1.557-1.006-2.995-1.641-4.242
					c1.566-1.41,3.626-2.235,5.82-2.235h111.862v-2.559H306.83z"/>
			</g>
			<path style="fill:#263238;" d="M309.341,314.898c0.004,3.266,1.326,6.219,3.468,8.36c2.145,2.145,5.104,3.468,8.376,3.468
				h113.767c0.482,0,0.873,0.391,0.873,0.873v0.936c0,0.482-0.391,0.873-0.873,0.873h-176.99c-4.005,0-7.643-1.627-10.271-4.255
				c-2.652-2.652-4.284-6.323-4.255-10.379c0.059-8.041,6.857-14.417,14.898-14.417h176.617c0.482,0,0.873,0.391,0.873,0.873v0.936
				c0,0.482-0.391,0.872-0.873,0.872H321.533C315.008,303.039,309.332,308.374,309.341,314.898z"/>
			<path style="opacity:0.2;fill:#FFFFFF;" d="M309.341,314.898c0.004,3.266,1.326,6.219,3.468,8.36
				c2.145,2.145,5.104,3.468,8.376,3.468h113.767c0.482,0,0.873,0.391,0.873,0.873v0.936c0,0.482-0.391,0.873-0.873,0.873h-176.99
				c-4.005,0-7.643-1.627-10.271-4.255c-2.652-2.652-4.284-6.323-4.255-10.379c0.059-8.041,6.857-14.417,14.898-14.417h176.617
				c0.482,0,0.873,0.391,0.873,0.873v0.936c0,0.482-0.391,0.872-0.873,0.872H321.533
				C315.008,303.039,309.332,308.374,309.341,314.898z"/>
			<path style="fill:#263238;" d="M309.341,314.898c0.004,3.266,1.326,6.219,3.468,8.36c2.145,2.145,5.104,3.468,8.376,3.468
				h113.767c0.482,0,0.873,0.391,0.873,0.873v0.936c0,0.482-0.391,0.873-0.873,0.873H320.532c-4.004,0-7.643-1.627-10.271-4.255
				c-2.651-2.652-4.284-6.323-4.254-10.379c0.059-8.041,6.857-14.417,14.898-14.417h114.046c0.482,0,0.873,0.391,0.873,0.873v0.936
				c0,0.482-0.391,0.872-0.873,0.872H321.533C315.008,303.039,309.332,308.374,309.341,314.898z"/>
			<polygon style="fill:#407BFF;" points="321.749,311.577 321.749,322.067 325.547,318.27 329.226,321.949 329.226,311.577 			"/>
			<path style="opacity:0.4;fill:#FFFFFF;" d="M309.341,314.898c0.004,3.266,1.326,6.219,3.468,8.36
				c2.145,2.145,5.104,3.468,8.376,3.468h113.767c0.482,0,0.873,0.391,0.873,0.873v0.936c0,0.482-0.391,0.873-0.873,0.873H320.532
				c-4.004,0-7.643-1.627-10.271-4.255c-2.651-2.652-4.284-6.323-4.254-10.379c0.059-8.041,6.857-14.417,14.898-14.417h114.046
				c0.482,0,0.873,0.391,0.873,0.873v0.936c0,0.482-0.391,0.872-0.873,0.872H321.533
				C315.008,303.039,309.332,308.374,309.341,314.898z"/>
			<path style="opacity:0.2;fill:#FFFFFF;" d="M266.98,325.155c2.632,2.622,6.267,4.252,10.278,4.252h-9.651
				c-4.001,0-7.646-1.629-10.268-4.252c-2.651-2.651-4.281-6.325-4.252-10.384c0.058-8.041,6.855-14.414,14.896-14.414h9.641
				c-8.041,0-14.838,6.373-14.896,14.414C262.7,318.83,264.329,322.503,266.98,325.155z"/>
		</g>
	</g>
</g>
<g id="Speech_bubble">
	<g>
		<g>
			<path style="fill:#407BFF;" d="M125.098,216.412h19.582c3.33,0,6.03,2.7,6.03,6.03v17.042c0,3.33-2.7,6.03-6.03,6.03h-0.893
				l0.934,4.65l-4.989-4.65h-14.633c-3.33,0-6.029-2.7-6.029-6.03v-17.042C119.068,219.111,121.768,216.412,125.098,216.412z"/>
		</g>
		<g>
			<g style="enable-background:new    ;">
				<path style="fill:#FFFFFF;" d="M144.608,230.889c0,5.368-4.351,9.719-9.719,9.719c-5.368,0-9.719-4.351-9.719-9.719
					c0-5.367,4.351-9.719,9.719-9.719C140.257,221.17,144.608,225.522,144.608,230.889z"/>
			</g>
			<g>
				<path style="fill:#407BFF;" d="M133.869,235.23c-0.262,0-0.511-0.115-0.681-0.315l-3.813-4.493
					c-0.319-0.376-0.273-0.939,0.103-1.259c0.376-0.318,0.939-0.274,1.259,0.103l3.132,3.69l5.172-6.094
					c0.32-0.377,0.884-0.422,1.259-0.103c0.376,0.319,0.422,0.883,0.103,1.259l-5.853,6.896
					C134.38,235.115,134.131,235.23,133.869,235.23z"/>
			</g>
		</g>
	</g>
</g>
<g id="Character">
	<g>
		<g>
			<g>
				<path style="fill:#407BFF;" d="M240.338,410.461h-39.371c-3.886,0-7.037-3.151-7.037-7.037v-65.668
					c0-3.886,3.15-7.037,7.037-7.037h39.371c3.886,0,7.037,3.151,7.037,7.037v65.668
					C247.375,407.31,244.225,410.461,240.338,410.461z"/>
				<path style="opacity:0.5;fill:#FFFFFF;enable-background:new    ;" d="M240.338,410.461h-39.371
					c-3.886,0-7.037-3.151-7.037-7.037v-65.668c0-3.886,3.15-7.037,7.037-7.037h39.371c3.886,0,7.037,3.151,7.037,7.037v65.668
					C247.375,407.31,244.225,410.461,240.338,410.461z"/>
				<path style="opacity:0.1;enable-background:new    ;" d="M236.407,410.461h-35.693c-3.75,0-6.787-3.037-6.787-6.788v-66.169
					c0-3.75,3.037-6.788,6.787-6.788h35.693c-3.741,0-6.778,3.037-6.778,6.788v66.169
					C229.629,407.424,232.666,410.461,236.407,410.461z"/>
			</g>
			
				<rect x="124.971" y="408.391" transform="matrix(-1 -1.224647e-16 1.224647e-16 -1 364.1355 824.2818)" style="fill:#263238;" width="114.192" height="7.5"/>
			
				<rect x="124.971" y="408.391" transform="matrix(-1 -1.224647e-16 1.224647e-16 -1 364.1355 824.2818)" style="opacity:0.2;fill:#FFFFFF;enable-background:new    ;" width="114.192" height="7.5"/>
			
				<rect x="174.421" y="408.391" transform="matrix(-1 -1.224647e-16 1.224647e-16 -1 413.5851 824.2818)" style="opacity:0.2;fill:#FFFFFF;enable-background:new    ;" width="64.743" height="7.5"/>
			<g>
				<path style="fill:#407BFF;" d="M204.434,365.714h-84.271l-12.842-66.319c-1.404-7.25,4.15-13.982,11.535-13.982h60.337
					c5.628,0,10.465,3.99,11.535,9.515L204.434,365.714z"/>
				<path style="opacity:0.6;fill:#FFFFFF;enable-background:new    ;" d="M204.434,365.714h-84.271l-12.842-66.319
					c-1.404-7.25,4.15-13.982,11.535-13.982h60.337c5.628,0,10.465,3.99,11.535,9.515L204.434,365.714z"/>
				<path style="opacity:0.1;enable-background:new    ;" d="M144.097,365.714h-23.934l-12.842-66.319
					c-1.404-7.25,4.15-13.982,11.535-13.982l0,0c5.628,0,10.465,3.99,11.535,9.515L144.097,365.714z"/>
			</g>
			<g>
				<path style="fill:#407BFF;" d="M248.191,404.54c0,3.27-2.651,5.92-5.92,5.92H122.89c-3.27,0-5.92-2.651-5.92-5.92v-33.718
					c0-3.27,2.65-5.92,5.92-5.92h119.38c3.27,0,5.92,2.651,5.92,5.92V404.54z"/>
				<path style="opacity:0.6;fill:#FFFFFF;enable-background:new    ;" d="M248.191,404.54c0,3.27-2.651,5.92-5.92,5.92H122.89
					c-3.27,0-5.92-2.651-5.92-5.92v-33.718c0-3.27,2.65-5.92,5.92-5.92h119.38c3.27,0,5.92,2.651,5.92,5.92V404.54z"/>
				<path style="opacity:0.1;enable-background:new    ;" d="M179.9,404.54c0,3.27-2.651,5.92-5.92,5.92h-51.09
					c-3.27,0-5.92-2.651-5.92-5.92v-33.718c0-3.27,2.65-5.92,5.92-5.92h51.09c3.27,0,5.92,2.651,5.92,5.92V404.54z"/>
			</g>
		</g>
		<g>
			<g>
				<g>
					<path style="fill:#263238;" d="M186.642,272.384c1.612,0.384,2.82,0.896,3.827,1.38c1.01,0.492,1.844,0.997,2.597,1.476
						c1.503,0.956,2.694,1.9,3.821,2.779c2.209,1.781,4.098,3.406,5.838,4.824c1.729,1.394,3.369,2.535,4.456,3.108
						c0.538,0.293,0.888,0.386,0.961,0.483c0.089,0.079-0.079,0.195-0.03,0.283l-3.355,2.729c-0.686,0.984-0.866,2.082-0.854,2.551
						c0.004,0.518,0.116,0.642,0.153,0.569c0.089-0.158-0.041-0.888-0.307-1.658c-0.543-1.585-1.446-3.544-2.494-5.448
						c-1.026-1.941-2.19-3.912-3.38-5.904c-1.174-1.986-2.466-4.025-3.613-6.003l-0.118-0.204c-1.299-2.239-0.536-5.107,1.703-6.406
						c1.602-0.929,3.529-0.799,4.97,0.167c2.208,1.488,4.148,3.033,6.111,4.713c1.941,1.677,3.805,3.466,5.619,5.425
						c0.904,0.983,1.773,2.026,2.642,3.134c0.867,1.115,1.72,2.297,2.512,3.683c0.792,1.394,1.592,2.911,2.196,5.113
						c0.292,1.105,0.533,2.441,0.443,4.162c-0.066,1.672-0.632,3.957-2.014,5.929c-0.765,1.091-1.758,1.928-2.87,2.489L214.972,302
						c-2.326,1.163-5.128,1.743-7.639,1.691c-2.531-0.025-4.736-0.601-6.617-1.258c-3.763-1.357-6.496-3.139-8.945-4.834
						c-2.443-1.685-4.541-3.415-6.428-4.849c-0.923-0.724-1.81-1.355-2.487-1.823c-0.337-0.232-0.624-0.394-0.776-0.489
						c-0.154-0.106-0.159-0.087,0.19-0.021c-4.98-1.207-8.038-6.223-6.83-11.203C176.647,274.235,181.662,271.177,186.642,272.384z"
						/>
				</g>
			</g>
			<path style="opacity:0.2;" d="M202.097,296.027c-1.119-0.096-2.169-0.251-3.211-0.424c-1.147-0.193-2.256-0.415-3.355-0.656
				c-1.08-0.251-2.14-0.53-3.191-0.81c-2.102-0.559-4.127-1.244-6.132-1.957c-0.058-0.019-0.116-0.039-0.174-0.068
				c1.292-2.295,2.941-4.107,4.686-4.898C190.72,287.215,196.852,289.076,202.097,296.027z"/>
			<g>
				<polygon style="fill:#E4897B;" points="240.704,396.205 252.937,397.098 252.558,411.567 242.337,410.837 				"/>
				<polygon style="opacity:0.2;" points="240.707,396.211 252.944,397.103 252.729,405.206 241.619,404.404 				"/>
			</g>
			<path style="fill:#263238;" d="M240.883,415.889l2.666-0.005l0.72-1.083l1.401,1.09l16.089-0.031
				c0.312-1.599-0.694-3.684-0.694-3.684s-4.812-0.428-6.668-2.823c-0.143-0.185-0.366-0.284-0.595-0.236
				c-1.602,0.339-7.963,1.554-11.469,0.3c-0.38-0.136-0.78,0.123-0.786,0.526C241.512,412.713,240.883,415.889,240.883,415.889z"/>
			<path style="fill:#407BFF;" d="M173.662,333.655c0,0-18.215,33.963,3.391,33.963c27.189,0,53.074-6.844,53.074-6.844
				s-1.479,14.496,9.027,42.002l14.685-0.12c0,0,5.721-59.083-5.237-69c-8.822-7.984-40.146-5.423-40.146-5.423L173.662,333.655z"/>
			<path style="opacity:0.2;" d="M233.356,380.414c-0.183,0.713-0.366,1.417-0.559,2.102c-3.423-14.318-2.671-21.741-2.671-21.741
				s-25.887,6.845-53.076,6.845c-13.141,0-11.55-12.563-8.282-22.407c9.266-5.881,19.042-11.213,26.012-14.848l13.672-2.131
				c0,0,5.63-0.463,12.794-0.385C231.843,332.583,242.024,345.619,233.356,380.414z"/>
			<path style="fill:#263238;" d="M207.643,328.708c-15.802,8.735-56.147,6.303-63.34,5.078
				c-0.897-11.897-1.962-30.917-5.751-44.974c-1.716-6.373,2.169-12.948,8.629-14.308c10.355-2.169,23.814-3.201,33.967-2.835
				c3.991,0.145,8.282,2.083,9.564,5.872C196.594,294.992,205.927,309.174,207.643,328.708z"/>
			<g>
				<path style="fill:#E4897B;" d="M171.264,280.784c-6.633,0.337-12.389-5.312-15.494-7.27c3.355-2.343,4.956-6.547,5.621-8.88
					c0.289-1.032,0.405-1.697,0.405-1.697l11.261,5.014c-0.665,1.735-0.742,3.201-0.338,4.512c1.446,0.521,2.729,2.14,3.114,3.201
					c0.01,0.029,0.019,0.068,0.039,0.096C176.701,278.046,177.8,280.447,171.264,280.784z"/>
				<path style="opacity:0.2;" d="M175.872,275.761c-6.712,2.772-13.279-5.331-14.481-11.126c0.289-1.032,0.405-1.697,0.405-1.697
					l11.261,5.014c-0.665,1.735-0.742,3.201-0.338,4.512c1.446,0.521,2.729,2.14,3.114,3.201
					C175.843,275.694,175.853,275.732,175.872,275.761z"/>
				<g>
					<path style="fill:#407BFF;" d="M171.661,280.757l-2.5-2.224l-3.86,1.932C165.301,280.465,167.421,282.621,171.661,280.757z"/>
					<path style="opacity:0.5;fill:#FFFFFF;" d="M171.661,280.757l-2.5-2.224l-3.86,1.932
						C165.301,280.465,167.421,282.621,171.661,280.757z"/>
				</g>
				<path style="fill:#407BFF;" d="M157.371,271.857c0,0,4.752,6.494,11.789,6.676c-4.315,2.05-5.478,6.707-5.478,6.707
					s-8.546-2.505-9.257-11.896C155.629,271.807,157.371,271.857,157.371,271.857z"/>
				<g>
					<path style="fill:#407BFF;" d="M171.661,280.757l3.378-2.854l3.824,1.088C178.863,278.991,175.541,282.44,171.661,280.757z"/>
					<path style="opacity:0.5;fill:#FFFFFF;" d="M171.661,280.757l3.378-2.854l3.824,1.088
						C178.863,278.991,175.541,282.44,171.661,280.757z"/>
				</g>
				<path style="fill:#407BFF;" d="M172.715,272.46c0,0,2.427,3.139,2.323,5.443c3.213,0.867,4.311,5.699,4.311,5.699
					s1.309-6.975-3.5-10.613C174.674,272.183,172.715,272.46,172.715,272.46z"/>
				<path style="opacity:0.8;fill:#FFFFFF;" d="M157.371,271.857c0,0,4.752,6.494,11.789,6.676c-4.315,2.05-5.478,6.707-5.478,6.707
					s-8.546-2.505-9.257-11.896C155.629,271.807,157.371,271.857,157.371,271.857z"/>
				<path style="opacity:0.8;fill:#FFFFFF;" d="M172.715,272.46c0,0,2.427,3.139,2.323,5.443c3.213,0.867,4.311,5.699,4.311,5.699
					s1.309-6.975-3.5-10.613C174.674,272.183,172.715,272.46,172.715,272.46z"/>
			</g>
			<g>
				<polygon style="fill:#E4897B;" points="217.261,397.362 229.461,396.099 231.622,410.41 221.431,411.482 				"/>
				<polygon style="opacity:0.2;" points="217.264,397.367 229.469,396.102 230.677,404.117 219.598,405.274 				"/>
			</g>
			<path style="fill:#263238;" d="M219.659,415.889l2.666-0.005l0.72-1.083l1.401,1.09l16.089-0.031
				c0.312-1.599-0.693-3.684-0.693-3.684s-4.812-0.428-6.667-2.823c-0.143-0.185-0.366-0.284-0.595-0.236
				c-1.602,0.339-7.963,1.554-11.469,0.3c-0.38-0.136-0.78,0.123-0.786,0.526C220.287,412.713,219.659,415.889,219.659,415.889z"/>
			<path style="fill:#407BFF;" d="M144.72,333.655c0,0-7.609,25.108,12.86,32.026c20.469,6.917,40.694-5.288,40.694-5.288
				s0,5.288,18.232,44.14l15.117-2.848c0,0-5.331-58.151-11.963-68.03c-6.632-9.879-40.146-5.423-40.146-5.423L144.72,333.655z"/>
			<path style="fill:#E4897B;" d="M198.471,265.811l-3.361,3.921c-4.762,2.602-7.048-4.099-7.048-4.099l-3.544-3.967
				c-0.814-0.942-0.73-2.439,0.197-3.537l2.329-2.759c1.061-1.258,2.834-1.542,3.93-0.63l3.606,3.238
				c0.717,0.596,1.274,1.361,1.624,2.225L198.471,265.811z"/>
			<path style="opacity:0.2;" d="M172.895,310.308c0,0-9.256,18.874-28.594,23.482c-0.771-10.297-1.644-26.906-4.363-39.257
				c3.847-2.314,14.486-4.799,14.486-4.799s-0.214,6.453,2.875,13.416c0,0,7.063-3.005,16.084-4.039
				C176.204,298.786,172.895,310.308,172.895,310.308z"/>
			<g>
				<g>
					<path style="fill:#263238;" d="M153.429,290.799c0.565-0.447,0.898-0.849,1.069-1.053c0.195-0.244,0.277-0.369,0.339-0.459
						c0.116-0.181,0.103-0.155,0.083-0.078c-0.053,0.152-0.2,0.557-0.321,0.999c-0.248,0.909-0.522,2.041-0.717,3.202
						c-0.428,2.336-0.66,4.841-0.76,7.238c-0.039,1.198-0.029,2.379,0.045,3.491c0.05,1.116,0.168,2.169,0.337,3.071
						c0.157,0.902,0.411,1.639,0.54,2.044c0.145,0.425,0.119,0.371-0.276,0.246l2.636,2.396c-0.367-0.5-0.896-0.999-1.538-1.414
						c-0.613-0.408-1.335-0.658-1.848-0.771c-1.113-0.214-1.544-0.048-1.697,0.023c-0.244,0.181,0.433,0.109,1.093-0.121
						c1.413-0.472,3.272-1.346,5.059-2.35c1.83-0.985,3.694-2.104,5.582-3.244c1.883-1.124,3.818-2.36,5.705-3.45l0.206-0.119
						c2.247-1.298,5.12-0.528,6.418,1.719c0.909,1.574,0.799,3.459-0.117,4.891c-1.371,2.13-2.801,4.005-4.358,5.906
						c-1.555,1.88-3.219,3.689-5.049,5.458c-0.919,0.882-1.898,1.732-2.946,2.587c-1.056,0.854-2.178,1.697-3.535,2.492
						c-1.386,0.786-2.841,1.626-5.348,2.201c-1.278,0.252-2.88,0.486-5.106-0.019c-1.075-0.238-2.318-0.747-3.41-1.463
						c-1.122-0.731-2.041-1.659-2.757-2.612l2.635,2.396c-2.962-1.617-4.984-3.985-6.308-6.112c-1.35-2.159-2.106-4.228-2.703-6.179
						c-1.158-3.909-1.529-7.49-1.638-11.007c-0.107-3.513,0.135-6.921,0.683-10.413c0.299-1.752,0.642-3.516,1.236-5.44
						c0.304-0.973,0.631-1.971,1.174-3.171c0.276-0.6,0.588-1.24,1.089-2.051c0.253-0.405,0.539-0.839,0.964-1.373
						c0.394-0.499,0.987-1.165,1.83-1.856c3.975-3.234,9.818-2.633,13.052,1.341C158.004,281.721,157.404,287.565,153.429,290.799z"
						/>
				</g>
			</g>
			<g>
				<path style="fill:#407BFF;" d="M193.197,273.11l-1.981-2.236c4.099-2.131,7.786-6.091,7.786-6.091l3.6,0.934
					C202.602,265.717,199.335,272.616,193.197,273.11z"/>
				<path style="opacity:0.5;fill:#FFFFFF;" d="M193.197,273.11l-1.981-2.236c4.099-2.131,7.786-6.091,7.786-6.091l3.6,0.934
					C202.602,265.717,199.335,272.616,193.197,273.11z"/>
			</g>
			<g>
				<path style="opacity:0.9;fill:#FFFFFF;" d="M218.092,274.573l-2.902,8.899l-10.252,18.109c0,0-24.935,3.504-25.498-3.841
					c-0.505-6.58,1.192-17.286,1.548-19.443c0.039-0.253,0.065-0.389,0.065-0.389c13.944,1.36,22.836,6.554,22.836,6.554
					C208.215,277.507,218.092,274.573,218.092,274.573z"/>
				<path style="opacity:0.1;" d="M218.092,274.573l-2.902,8.899l-10.252,18.109c0,0-24.935,3.504-25.498-3.841
					c-0.505-6.58,1.192-17.286,1.548-19.443c10.168,0.933,22.908,7.105,22.908,7.105
					C205.288,280.965,218.092,274.573,218.092,274.573z"/>
				<path style="fill:#407BFF;" d="M214.932,303.989c0,0-4.618,2.15-12.474,8.303c-0.453,0.363-0.971,0.622-1.522,0.777
					c-0.725,0.22-1.509,0.246-2.267,0.071c-3.925-0.92-12.701-2.824-20.44-3.42c0,0-0.881-16.988,0.939-29.643
					c0,0,13.957,1.211,24.721,5.33l0.007-0.007c0.311-0.253,10.233-8.277,16.548-9.359
					C220.443,276.043,212.497,292.396,214.932,303.989z"/>
				<path style="opacity:0.1;" d="M214.932,303.989c0,0-4.618,2.15-12.474,8.303c-0.453,0.363-0.971,0.622-1.522,0.777
					c0.46-6.904,1.755-24.786,2.953-27.661l0.007-0.007c0.311-0.253,10.233-8.277,16.548-9.359
					C220.443,276.043,212.497,292.396,214.932,303.989z"/>
				<g>
					<path style="fill:#407BFF;" d="M202.952,285.06c0,0,1.105,0.188,2.022-0.506c0,0-1.38,12.8-2.675,27.864
						c0,0-0.754,1.631-2.675,0.948C199.624,313.366,201.071,294.125,202.952,285.06z"/>
					<path style="opacity:0.2;fill:#FFFFFF;enable-background:new    ;" d="M202.952,285.06c0,0,1.105,0.188,2.022-0.506
						c0,0-1.38,12.8-2.675,27.864c0,0-0.754,1.631-2.675,0.948C199.624,313.366,201.071,294.125,202.952,285.06z"/>
				</g>
				<path style="opacity:0.7;fill:#FFFFFF;" d="M207.139,288.494c0,0,4.704-3.97,8.645-4.892l-0.617,2.446
					c0,0-3.833,1.292-8.537,5.573L207.139,288.494z"/>
				<path style="opacity:0.1;" d="M181.61,302.415c0,0,12.015,2.004,15.299,3.134v4.847c0,0-10.051-2.218-15.436-2.797
					L181.61,302.415z"/>
				<path style="opacity:0.7;fill:#FFFFFF;" d="M209.554,284.269l-0.254,1.143c0,0,2.225-1.54,4.958-2.708l0.445-1.484
					C214.703,281.22,211.843,282.362,209.554,284.269z"/>
			</g>
			<path style="fill:#E4897B;" d="M171.265,300.339l0.926,4.812c2.702,4.384,7.737-0.065,7.737-0.065l3.285-1.161
				c1.114-0.394,1.749-1.667,1.501-3.008l-0.622-3.369c-0.283-1.536-1.611-2.603-2.943-2.367l-2.994,0.531
				c-0.871,0.155-1.69,0.522-2.385,1.07L171.265,300.339z"/>
			<g>
				<path style="fill:#407BFF;" d="M169.839,299.303l3.385-0.477c-0.316,4.609,1.573,9.042,1.573,9.042l-2.193,4.403
					C172.604,312.272,167.064,304.8,169.839,299.303z"/>
				<path style="opacity:0.5;fill:#FFFFFF;" d="M169.839,299.303l3.385-0.477c-0.316,4.609,1.573,9.042,1.573,9.042l-2.193,4.403
					C172.604,312.272,167.064,304.8,169.839,299.303z"/>
			</g>
			<g>
				
					<line style="fill:none;stroke:#263238;stroke-width:0.5;stroke-linecap:round;stroke-linejoin:round;stroke-miterlimit:10;" x1="185.657" y1="257.913" x2="182.428" y2="257.417"/>
				<path style="fill:#263238;" d="M185.938,253.629c-1.022,3.323-3.406,6.434-5.715,4.417c-0.985-0.859-1.133-2.17-0.851-3.598
					c0.681-3.441,3.899-7.549,3.899-7.549s2.26-1.123,3.067,2.462C186.595,250.503,186.414,252.086,185.938,253.629z"/>
				<path style="opacity:0.5;fill:#FFFFFF;" d="M185.938,253.629c-1.022,3.323-3.406,6.434-5.715,4.417
					c-0.985-0.859-1.133-2.17-0.851-3.598c1.842-1.449,3.592-2.383,3.592-2.383S184.391,251.523,185.938,253.629z"/>
				<path style="fill:#E4897B;" d="M178.945,244.26c-7.111-4.61-16.205-0.677-17.327,6.9c-1.121,7.578-1.709,12.752,2.252,16.955
					c7.869,8.35,14.289,5.53,17.816-1.511C184.862,260.266,186.163,248.939,178.945,244.26z"/>
				<path style="opacity:0.2;" d="M172.77,256.155c0,0-1.426-1.007-2.827-0.611C171.411,256.182,172.77,256.155,172.77,256.155z"/>
				<path style="opacity:0.2;" d="M172.58,256.818c0,0-1.464-0.628-2.62,0.104C171.385,257.181,172.58,256.818,172.58,256.818z"/>
				<path style="fill:#263238;" d="M183.278,250.007c-1.968,2.858-7.132-1.978-11.489-3.828c-1.593-0.68-3.22,0.366-3.477,1.906
					c0,0,0,0-0.001,0.009c-0.063,0.328-0.055,0.674,0.033,1.036c0.745,3.152-1.837,4.747-1.49,6.551
					c0.806,4.182-2.503,4.367-6.47,1.771c0,0-0.761-0.336-1.415-1.322c-2.046-1.264-2.491-3.848-1.8-7.044
					c0.348-1.62,0.976-3.4,1.845-5.235c2.558-5.457,11.838-6.244,11.838-6.244s8.763-1.441,11.891,3.799
					C185.862,246.645,183.278,250.007,183.278,250.007z"/>
				<path style="fill:#263238;" d="M174.006,256.701c-0.145,0.653,0.086,1.255,0.514,1.346c0.428,0.091,0.892-0.365,1.036-1.018
					c0.144-0.653-0.086-1.255-0.514-1.346C174.614,255.593,174.15,256.048,174.006,256.701z"/>
				<path style="fill:#263238;" d="M181.653,258.446c-0.144,0.653,0.086,1.255,0.514,1.346c0.428,0.091,0.892-0.365,1.036-1.018
					c0.144-0.653-0.086-1.255-0.514-1.346C182.262,257.338,181.798,257.793,181.653,258.446z"/>
				<path style="fill:#263238;" d="M172.138,254.381c-0.065-0.007-0.129-0.031-0.185-0.072c-0.175-0.127-0.213-0.372-0.085-0.548
					c1.286-1.763,3.099-1.7,3.175-1.696c0.217,0.01,0.383,0.194,0.371,0.41c-0.012,0.216-0.196,0.383-0.412,0.374l0,0
					c-0.06-0.002-1.474-0.036-2.5,1.37C172.415,254.339,172.274,254.396,172.138,254.381z"/>
				<path style="fill:#263238;" d="M185.081,256.557c-0.121-0.038-0.221-0.134-0.258-0.265c-0.471-1.661-1.814-2.103-1.871-2.121
					c-0.206-0.065-0.321-0.284-0.255-0.49c0.066-0.206,0.285-0.321,0.492-0.258c0.075,0.025,1.803,0.571,2.393,2.653
					c0.059,0.208-0.063,0.425-0.273,0.485C185.231,256.582,185.152,256.579,185.081,256.557z"/>
				<path style="opacity:0.5;fill:#FFFFFF;" d="M166.854,255.682c0.806,4.182-2.503,4.367-6.47,1.771c0,0-0.761-0.336-1.415-1.322
					c-2.046-1.264-2.491-3.848-1.8-7.044c4.227,0.948,8.091-1.179,8.312-1.3c-0.295,0.801-1.339,1.241-1.339,1.241
					c2.691,0.491,4.038-0.812,4.169-0.934c-0.063,0.328-0.055,0.674,0.033,1.036C169.089,252.282,166.507,253.877,166.854,255.682z"
					/>
				<path style="fill:#DE5753;" d="M179,257.417l-1.612,5.378c0,0,1.609,0.936,2.913,0.294C180.527,260.161,179,257.417,179,257.417
					z"/>
				
					<path style="fill:none;stroke:#263238;stroke-width:0.75;stroke-linecap:round;stroke-linejoin:round;stroke-miterlimit:10;" d="
					M176.908,266.426c0,0-3.141-1.085-4.138-3.066"/>
				<path style="fill:#263238;" d="M166.857,257.764c0,0-0.145,4.49,1.623,6.627c0,0,2.758-3.329,5.124-3.314
					c2.366,0.016,3.305,2.874,3.305,2.874l-0.859,0.439c0,0-1.188-2.129-2.445-2.284c-1.258-0.156-4.313,2.786-3.643,4.319
					c0.67,1.533,3.643,0.027,3.643,0.027l1.177,0.661c0,0-1.767,2.924,1.665,2.656c3.433-0.268,3.743-4.461,0.462-4.878l0.481-0.941
					c0,0,3.367,0.131,3.971,3.278c0.604,3.147-1.035,7.982-8.851,7.147c-4.145-0.443-11.723-5.083-8.176-15.489L166.857,257.764z"/>
				<g>
					
						<path style="fill:none;stroke:#263238;stroke-width:0.5;stroke-linecap:round;stroke-linejoin:round;stroke-miterlimit:10;" d="
						M178.286,256.251c0,0,1.05-0.327,2.013,0.482"/>
					
						<path style="fill:none;stroke:#263238;stroke-width:0.5;stroke-linecap:round;stroke-linejoin:round;stroke-miterlimit:10;" d="
						M170.832,254.366l-7.769-1.671c-0.954-0.228-1.913,0.36-2.141,1.315l-0.037,0.153"/>
					<g>
						
							<path style="fill:none;stroke:#263238;stroke-width:0.5;stroke-linecap:round;stroke-linejoin:round;stroke-miterlimit:10;" d="
							M180.503,256.68c0,0,1.036-0.491,2.744-0.083c1.868,0.447,2.41,1.316,2.41,1.316l-1.107,2.558
							c-0.333,0.77-0.978,1.212-1.562,1.072l-1.197-0.286c-0.8-0.191-1.333-1.094-1.318-2.231L180.503,256.68z"/>
						
							<path style="fill:none;stroke:#263238;stroke-width:0.5;stroke-linecap:round;stroke-linejoin:round;stroke-miterlimit:10;" d="
							M178.128,256.112c0,0-1.063-0.994-3.481-1.572c-2.645-0.633-3.815-0.173-3.815-0.173l0.025,2.829
							c0.007,0.851,0.594,1.588,1.422,1.786l1.694,0.405c1.133,0.271,2.311-0.222,2.913-1.219L178.128,256.112z"/>
					</g>
				</g>
				<path style="fill:#E4897B;" d="M157.511,256.771c0.509,1.861,1.837,3.308,3.236,4.065c2.103,1.139,3.704-0.61,3.579-2.868
					c-0.112-2.033-1.342-5.075-3.674-5.284C158.354,252.479,156.928,254.644,157.511,256.771z"/>
			</g>
		</g>
		<g>
			<path style="fill:#407BFF;" d="M153.511,410.461H114.14c-3.886,0-7.037-3.151-7.037-7.037v-65.668
				c0-3.886,3.15-7.037,7.037-7.037h39.371c3.886,0,7.037,3.151,7.037,7.037v65.668C160.548,407.31,157.397,410.461,153.511,410.461
				z"/>
			<path style="opacity:0.6;fill:#FFFFFF;enable-background:new    ;" d="M153.511,410.461H114.14c-3.886,0-7.037-3.151-7.037-7.037
				v-65.668c0-3.886,3.15-7.037,7.037-7.037h39.371c3.886,0,7.037,3.151,7.037,7.037v65.668
				C160.548,407.31,157.397,410.461,153.511,410.461z"/>
			<path style="opacity:0.2;enable-background:new    ;" d="M149.58,410.461h-35.693c-3.75,0-6.787-3.037-6.787-6.788v-66.169
				c0-3.75,3.037-6.788,6.787-6.788h35.693c-3.741,0-6.778,3.037-6.778,6.788v66.169
				C142.802,407.424,145.839,410.461,149.58,410.461z"/>
		</g>
	</g>
</g>
</svg>
