<?xml version="1.0" encoding="utf-8"?>
<!-- Generator: Adobe Illustrator 27.5.0, SVG Export Plug-In . SVG Version: 6.00 Build 0)  -->
<svg version="1.1" xmlns="http://www.w3.org/2000/svg" xmlns:xlink="http://www.w3.org/1999/xlink" x="0px" y="0px"
	 viewBox="0 0 500 500" style="enable-background:new 0 0 500 500;" xml:space="preserve">
<g id="Background_Complete">
	<g>
		<rect x="416.779" y="398.494" style="fill:#EBEBEB;" width="33.122" height="0.25"/>
		<rect x="322.527" y="401.208" style="fill:#EBEBEB;" width="8.693" height="0.25"/>
		<rect x="396.586" y="389.208" style="fill:#EBEBEB;" width="19.192" height="0.25"/>
		<rect x="52.459" y="390.888" style="fill:#EBEBEB;" width="43.193" height="0.25"/>
		<rect x="104.556" y="390.888" style="fill:#EBEBEB;" width="6.333" height="0.25"/>
		<rect x="131.471" y="395.111" style="fill:#EBEBEB;" width="93.676" height="0.25"/>
		<path style="fill:#EBEBEB;" d="M237.014,337.8H43.915c-3.147,0-5.708-2.561-5.708-5.708V60.66c0-3.147,2.561-5.708,5.708-5.708
			h193.099c3.146,0,5.707,2.561,5.707,5.708v271.432C242.721,335.239,240.16,337.8,237.014,337.8z M43.915,55.203
			c-3.01,0-5.458,2.448-5.458,5.458v271.432c0,3.01,2.448,5.458,5.458,5.458h193.099c3.009,0,5.457-2.448,5.457-5.458V60.66
			c0-3.009-2.448-5.458-5.457-5.458H43.915z"/>
		<path style="fill:#EBEBEB;" d="M453.31,337.8H260.212c-3.147,0-5.707-2.561-5.707-5.708V60.66c0-3.147,2.561-5.708,5.707-5.708
			H453.31c3.148,0,5.708,2.561,5.708,5.708v271.432C459.019,335.239,456.458,337.8,453.31,337.8z M260.212,55.203
			c-3.009,0-5.457,2.448-5.457,5.458v271.432c0,3.01,2.448,5.458,5.457,5.458H453.31c3.01,0,5.458-2.448,5.458-5.458V60.66
			c0-3.009-2.448-5.458-5.458-5.458H260.212z"/>
		<rect y="382.398" style="fill:#EBEBEB;" width="500" height="0.25"/>
	</g>
	<g>
		<path style="fill:#F0F0F0;" d="M71.06,202.698c0,15.976,12.952,28.928,28.928,28.928c8.61,0,16.32-3.783,21.618-9.753
			c5.157,7.943,14.088,13.209,24.264,13.209c11.678,0,21.714-6.934,26.283-16.896c0.872,0.079,1.752,0.134,2.645,0.134
			c3.908,0,7.63-0.785,11.03-2.189c4.406,10.349,14.667,17.607,26.625,17.607c6.571,0,12.611-2.217,17.468-5.908
			c2.825,0.921,5.833,1.433,8.965,1.433c15.976,0,28.928-12.951,28.928-28.928c0-13.155-8.789-24.239-20.809-27.751
			c0.029-0.39,0.06-0.779,0.06-1.176c0-5.99-3.375-11.186-8.324-13.807c-1.167-11.866-9.506-21.611-20.621-24.877
			c1.468-2.381,2.331-5.176,2.331-8.179c0-6.881-4.455-12.71-10.633-14.793c-0.98-7.685-7.529-13.631-15.48-13.631
			c-5.126,0-9.662,2.481-12.51,6.296c-1.005-0.203-2.045-0.312-3.11-0.312c-8.627,0-15.621,6.994-15.621,15.621
			c0,1.178,0.141,2.321,0.389,3.424c-1.37-0.393-2.812-0.616-4.308-0.616c-3.766,0-7.221,1.334-9.918,3.554
			c-2.845-3.853-7.404-6.363-12.561-6.363c-8.627,0-15.621,6.994-15.621,15.621c0,1.153,0.133,2.274,0.371,3.355
			c-2.731,0.73-5.17,2.169-7.094,4.125c-1.422-0.426-2.926-0.662-4.487-0.662c-8.627,0-15.621,6.994-15.621,15.621
			c0,4.481,1.897,8.51,4.919,11.358c-0.946,2.014-1.491,4.254-1.491,6.627c0,0.039,0.006,0.077,0.006,0.117
			C82.786,175.066,71.06,187.501,71.06,202.698z"/>
		<path style="fill:#E0E0E0;" d="M71.06,202.698c0-5.317,1.46-10.28,3.964-14.557c1.458,1.111,2.652,2.551,3.423,4.236
			c1.801-0.704,3.755-1.105,5.805-1.105c8.48,0,15.397,6.617,15.914,14.967c1.616-0.908,3.477-1.431,5.463-1.431
			c2.269,0,4.376,0.68,6.139,1.842c0.756-5.439,5.412-9.63,11.058-9.63c1.329,0,2.598,0.244,3.78,0.669
			c3.778-3.948,9.086-6.418,14.981-6.418c3.068,0,5.97,0.683,8.59,1.878c3.058-7.647,10.521-13.056,19.259-13.056
			c8.538,0,15.865,5.161,19.05,12.53c2.277-0.859,4.736-1.351,7.314-1.351c5.167,0,9.882,1.9,13.514,5.025
			c1.951-1.66,4.474-2.667,7.236-2.667c5.777,0,10.528,4.382,11.116,10.003c1.969-1.731,4.544-2.79,7.371-2.79
			c5.438,0,9.965,3.885,10.967,9.03c1.996-3.048,5.437-5.065,9.353-5.065c4.569,0,8.491,2.744,10.225,6.672
			c-4.365,10.441-14.671,17.781-26.696,17.781c-3.132,0-6.141-0.513-8.965-1.433c-4.857,3.692-10.896,5.908-17.468,5.908
			c-11.958,0-22.219-7.258-26.625-17.607c-3.401,1.405-7.123,2.189-11.03,2.189c-0.893,0-1.773-0.055-2.645-0.134
			c-4.569,9.963-14.605,16.896-26.283,16.896c-10.176,0-19.107-5.266-24.264-13.209c-5.299,5.97-13.008,9.753-21.618,9.753
			C84.011,231.626,71.06,218.674,71.06,202.698z"/>
		<path style="fill:#EBEBEB;" d="M123.473,208.503l3.021-0.915l18.019,23.245l-1.67-27.193l2.854-1.347
			c0,0,1.655,24.431,4.158,32.136c2.225,6.849,13.8,25.285,13.8,25.285s10.327-12.895,11.094-18.159
			c1.534-10.535-10.914-41.16-10.914-41.16l4.137,0.22l13.057,31.757c0,0,6.075-8.361,6.916-12.416
			c1.12-5.399-3.062-21.841-3.062-21.841l3.92-1.257l4.438,21.169l25.948-12.551l2.465,1.971c0,0-21.002,11.777-26.493,17.512
			c-8.522,8.899-19.28,32.109-21.917,44.145c-6.036,27.549,3.324,112.762,3.324,112.762h-27.515c0,0,10.059-87.669,5.408-116.436
			c-1.167-7.214-10.49-27.285-10.49-27.285L123.473,208.503z"/>
		<path style="fill:#F0F0F0;" d="M347.985,372.862c2.451-4.161,2.284-8.942-0.65-11.362c-1.205-0.994-2.717-1.433-4.326-1.409
			c0.174-4.044-1.146-7.722-4.008-10.082c-3.97-3.274-9.864-3.153-15.213-0.242c-6.158-8.868-16.263-12.696-23.459-8.542
			c-2.473,1.428-4.293,3.63-5.442,6.295c-10.323-3.669-20.921-0.779-24.289,6.915c-0.885,2.023-1.184,4.188-0.973,6.373
			c-3.024-0.643-5.923,0.039-7.637,2.117c-2.131,2.584-1.791,6.553,0.501,9.936H347.985z"/>
		<path style="fill:#E6E6E6;" d="M449.708,372.862c3.31-6.206,2.41-13.461-2.475-17.111c-0.706-0.528-1.462-0.951-2.252-1.28
			c0.205-2.888-0.662-5.487-2.689-7.001c-1.242-0.928-2.754-1.328-4.362-1.272c1.635-8.299-1.305-16.007-7.307-18.052
			c-6.781-2.31-14.889,3.481-18.11,12.935c-0.002,0.007-0.004,0.014-0.006,0.021c-1.347-0.544-2.758-0.699-4.134-0.359
			c-1.414,0.349-2.621,1.174-3.571,2.331c-4.848-3.638-10.625-4.382-14.263-1.392c-3.21,2.638-3.889,7.474-2.201,12.327
			c-1.63,0.361-3.16,1.077-4.487,2.167c-4.577,3.761-5.24,10.746-1.981,16.686H449.708z"/>
		<path style="fill:#F0F0F0;" d="M63.551,372.862c-3.31-6.206-2.41-13.461,2.475-17.111c0.706-0.528,1.462-0.951,2.252-1.28
			c-0.205-2.888,0.662-5.487,2.689-7.001c1.243-0.928,2.754-1.328,4.362-1.272c-1.635-8.299,1.306-16.007,7.307-18.052
			c6.781-2.31,14.889,3.481,18.11,12.935c0.002,0.007,0.004,0.014,0.006,0.021c1.347-0.544,2.758-0.699,4.134-0.359
			c1.414,0.349,2.621,1.174,3.571,2.331c4.848-3.638,10.625-4.382,14.263-1.392c3.21,2.638,3.889,7.474,2.201,12.327
			c1.63,0.361,3.16,1.077,4.487,2.167c4.577,3.761,5.24,10.746,1.981,16.686H63.551z"/>
	</g>
	<g>
		<path style="fill:#F5F5F5;" d="M80.232,382.242H38.524v-4.451c0-2.823,2.289-5.112,5.112-5.112H75.12
			c2.823,0,5.112,2.289,5.112,5.112V382.242z"/>
		<path style="fill:#E6E6E6;" d="M118.356,382.242H76.649v-4.451c0-2.823,2.289-5.112,5.112-5.112h31.483
			c2.823,0,5.112,2.289,5.112,5.112V382.242z"/>
		<path style="fill:#F5F5F5;" d="M156.481,382.242h-41.708v-4.451c0-2.823,2.289-5.112,5.112-5.112h31.483
			c2.823,0,5.112,2.289,5.112,5.112V382.242z"/>
		<path style="fill:#E6E6E6;" d="M194.605,382.242h-41.708v-4.451c0-2.823,2.289-5.112,5.112-5.112h31.483
			c2.823,0,5.112,2.289,5.112,5.112V382.242z"/>
		<path style="fill:#F5F5F5;" d="M232.73,382.242h-41.708v-4.451c0-2.823,2.289-5.112,5.112-5.112h31.484
			c2.823,0,5.112,2.289,5.112,5.112V382.242z"/>
		<path style="fill:#E6E6E6;" d="M270.854,382.242h-41.708v-4.451c0-2.823,2.289-5.112,5.112-5.112h31.483
			c2.823,0,5.112,2.289,5.112,5.112V382.242z"/>
		<path style="fill:#F5F5F5;" d="M308.978,382.242h-41.708v-4.451c0-2.823,2.289-5.112,5.112-5.112h31.483
			c2.823,0,5.112,2.289,5.112,5.112V382.242z"/>
		<path style="fill:#E6E6E6;" d="M347.103,382.242h-41.708v-4.451c0-2.823,2.289-5.112,5.112-5.112h31.484
			c2.823,0,5.112,2.289,5.112,5.112V382.242z"/>
		<path style="fill:#F5F5F5;" d="M385.227,382.242h-41.708v-4.451c0-2.823,2.289-5.112,5.112-5.112h31.484
			c2.823,0,5.112,2.289,5.112,5.112V382.242z"/>
		<path style="fill:#E6E6E6;" d="M423.351,382.242h-41.708v-4.451c0-2.823,2.289-5.112,5.112-5.112h31.483
			c2.823,0,5.112,2.289,5.112,5.112V382.242z"/>
		<path style="fill:#F5F5F5;" d="M461.476,382.242h-41.708v-4.451c0-2.823,2.289-5.112,5.112-5.112h31.483
			c2.823,0,5.112,2.289,5.112,5.112V382.242z"/>
	</g>
	<path style="fill:#F5F5F5;" d="M425.327,105.127c-1.906,0-3.664,0.618-5.1,1.655c0.529-1.416,0.833-2.942,0.833-4.543
		c0-7.178-5.819-12.997-12.997-12.997c-2.206,0-4.282,0.554-6.101,1.524c-1.85-4.923-6.587-8.432-12.156-8.432
		c-7.178,0-12.997,5.819-12.997,12.997c0,0.588,0.053,1.163,0.129,1.731c-1.09-0.297-2.232-0.469-3.415-0.469
		c-7.178,0-12.997,5.819-12.997,12.997c0,7.178,5.819,12.997,12.997,12.997c7.178,0,46.984,0,51.805,0s8.729-3.908,8.729-8.729
		C434.057,109.035,430.148,105.127,425.327,105.127z"/>
	<path style="fill:#F5F5F5;" d="M110.925,109.535c-1.038,0-1.996,0.337-2.778,0.901c0.288-0.771,0.454-1.603,0.454-2.475
		c0-3.91-3.17-7.08-7.08-7.08c-1.202,0-2.332,0.302-3.324,0.83c-1.008-2.682-3.588-4.593-6.622-4.593c-3.91,0-7.08,3.17-7.08,7.08
		c0,0.321,0.029,0.634,0.07,0.943c-0.594-0.162-1.216-0.255-1.861-0.255c-3.91,0-7.08,3.17-7.08,7.08c0,3.91,3.17,7.08,7.08,7.08
		s25.595,0,28.221,0s4.755-2.129,4.755-4.755C115.681,111.664,113.552,109.535,110.925,109.535z"/>
	<path style="fill:#F5F5F5;" d="M286.644,95.898c-1.777,0-3.416,0.576-4.754,1.542c0.493-1.32,0.776-2.743,0.776-4.235
		c0-6.691-5.424-12.115-12.115-12.115c-2.057,0-3.991,0.516-5.688,1.42c-1.724-4.589-6.14-7.86-11.332-7.86
		c-6.691,0-12.115,5.424-12.115,12.115c0,0.549,0.049,1.084,0.12,1.613c-1.016-0.277-2.08-0.437-3.184-0.437
		c-6.691,0-12.115,5.424-12.115,12.115c0,6.691,5.424,12.115,12.115,12.115c6.691,0,43.798,0,48.292,0
		c4.494,0,8.137-3.643,8.137-8.137C294.781,99.541,291.138,95.898,286.644,95.898z"/>
</g>
<g id="Background_Simple" style="display:none;">
	<g style="display:inline;">
		<path style="fill:#407BFF;" d="M60.968,212.514c10.614-66.571,73.537-70.203,146.051-50.938
			c80.534,21.395,66.837-71.597,158.784-48.617c83.75,20.931,114.519,158.66-2.989,222.723
			C202.553,423.052,46.553,302.921,60.968,212.514z"/>
		<path style="opacity:0.9;fill:#FFFFFF;" d="M60.968,212.514c10.614-66.571,73.537-70.203,146.051-50.938
			c80.534,21.395,66.837-71.597,158.784-48.617c83.75,20.931,114.519,158.66-2.989,222.723
			C202.553,423.052,46.553,302.921,60.968,212.514z"/>
	</g>
</g>
<g id="Shadow">
	<ellipse id="_x3C_Path_x3E__1_" style="fill:#F5F5F5;" cx="245.178" cy="412.391" rx="193.889" ry="11.323"/>
</g>
<g id="Plant">
	<g>
		<g>
			<path style="fill:#407BFF;" d="M100.594,381.363c-4.498-0.959-5.908,3.501-6.349,6.39c-0.894-2.709-2.006-5.551-3.374-8.378
				c2.194-2.257,8.588-9.183,3.817-8.643c-3.805,0.431-4.534,4.455-4.602,7.079c-1.34-2.573-2.908-5.104-4.737-7.482
				c1.335-1.738,6.756-9.079,2.682-8.51c-3.655,0.51-3.385,5.765-3.114,7.94c-0.887-1.115-1.833-2.194-2.842-3.222
				c-0.498-0.507-1.318-0.489-1.82,0.009c-2.395-2.171-8.396-6.892-10.694-2.042c-2.355,4.973,6.843,3.85,10.376,3.254
				c0.056,0.219,0.148,0.43,0.318,0.603c1.918,1.955,3.597,4.111,5.074,6.38c-2.767-1.279-9.135-3.662-10.72,0.648
				c-1.76,4.783,8.456,1.318,11.301,0.274c1.674,2.706,3.068,5.554,4.228,8.412c-3.146-1.133-10.848-3.394-11.018,1.572
				c-0.179,5.207,8.534,0.988,11.426-0.553c0.882,2.282,1.621,4.557,2.236,6.758c-2.792-0.179-9.302-0.041-9.542,5.13
				c-0.25,5.388,7.139-1.391,9.836-4.036c2.555,9.66,2.793,17.614,2.797,17.763l2.576-0.058c-0.006-0.298-0.189-7.411-2.391-16.542
				c-0.342-1.417-0.75-2.931-1.225-4.503C97.554,387.989,106.156,382.548,100.594,381.363z"/>
			<path style="opacity:0.2;" d="M100.594,381.363c-4.498-0.959-5.908,3.501-6.349,6.39c-0.894-2.709-2.006-5.551-3.374-8.378
				c2.194-2.257,8.588-9.183,3.817-8.643c-3.805,0.431-4.534,4.455-4.602,7.079c-1.34-2.573-2.908-5.104-4.737-7.482
				c1.335-1.738,6.756-9.079,2.682-8.51c-3.655,0.51-3.385,5.765-3.114,7.94c-0.887-1.115-1.833-2.194-2.842-3.222
				c-0.498-0.507-1.318-0.489-1.82,0.009c-2.395-2.171-8.396-6.892-10.694-2.042c-2.355,4.973,6.843,3.85,10.376,3.254
				c0.056,0.219,0.148,0.43,0.318,0.603c1.918,1.955,3.597,4.111,5.074,6.38c-2.767-1.279-9.135-3.662-10.72,0.648
				c-1.76,4.783,8.456,1.318,11.301,0.274c1.674,2.706,3.068,5.554,4.228,8.412c-3.146-1.133-10.848-3.394-11.018,1.572
				c-0.179,5.207,8.534,0.988,11.426-0.553c0.882,2.282,1.621,4.557,2.236,6.758c-2.792-0.179-9.302-0.041-9.542,5.13
				c-0.25,5.388,7.139-1.391,9.836-4.036c2.555,9.66,2.793,17.614,2.797,17.763l2.576-0.058c-0.006-0.298-0.189-7.411-2.391-16.542
				c-0.342-1.417-0.75-2.931-1.225-4.503C97.554,387.989,106.156,382.548,100.594,381.363z"/>
		</g>
		<path style="fill:#407BFF;" d="M96.726,413.002c0,0-26.779-2.88-13.917-7.729s-21.507-4.217-13.706-8.223
			c7.802-4.006-11.295-6.836-4.217-11.386c5.904-3.796,14.284,10.355,18.345,5.482c4.217-5.061,5.905,11.411,9.278,6.341
			C97.569,389.88,105.371,404.284,96.726,413.002z"/>
		<path style="fill:#407BFF;" d="M96.133,413.002c0,0,30.318-8.297,15.446-12.311c-14.872-4.013,20.688-8.569,11.465-12.347
			c-9.224-3.778,9.268-11.013,2.402-15.061c-7.482-4.41-15.175,17.102-20.354,12.329c-7.812-7.199-2.861,14.559-7.022,9.246
			C94.084,389.771,85.096,403.416,96.133,413.002z"/>
		<path style="opacity:0.3;fill:#FFFFFF;" d="M96.133,413.002c0,0,30.318-8.297,15.446-12.311
			c-14.872-4.013,20.688-8.569,11.465-12.347c-9.224-3.778,9.268-11.013,2.402-15.061c-7.482-4.41-15.175,17.102-20.354,12.329
			c-7.812-7.199-2.861,14.559-7.022,9.246C94.084,389.771,85.096,403.416,96.133,413.002z"/>
	</g>
</g>
<g id="Device">
	<g>
		<g>
			<path style="fill:#407BFF;" d="M386.624,377.461h-96.292c-10.833,0-18.846-8.782-17.898-19.614l20.136-230.151
				c0.948-10.833,10.497-19.614,21.33-19.614h96.292c10.833,0,18.846,8.782,17.898,19.614l-20.136,230.151
				C407.007,368.679,397.457,377.461,386.624,377.461z"/>
			<path style="fill:#263238;" d="M381.624,377.461h-96.292c-10.833,0-18.846-8.782-17.898-19.614l20.136-230.151
				c0.948-10.833,10.497-19.614,21.33-19.614h96.292c10.833,0,18.846,8.782,17.898,19.614l-20.136,230.151
				C402.007,368.679,392.457,377.461,381.624,377.461z"/>
			<g>
				<path style="fill:#407BFF;" d="M404.798,112.582H379.77c-1.639,0-3.13,1.218-3.479,2.844l-0.169,0.784
					c-0.854,3.971-4.494,6.947-8.497,6.947H343.83c-4.003,0-7.122-2.976-7.282-6.947l-0.031-0.784
					c-0.065-1.626-1.343-2.844-2.982-2.844h-25.029c-8.347,0-15.706,6.767-16.436,15.114l-20.136,230.15
					c-0.73,8.347,5.444,15.114,13.792,15.114h96.292c8.347,0,15.706-6.767,16.436-15.114l20.135-230.15
					C419.32,119.349,413.145,112.582,404.798,112.582z"/>
				<path style="opacity:0.9;fill:#FFFFFF;" d="M404.798,112.582H379.77c-1.639,0-3.13,1.218-3.479,2.844l-0.169,0.784
					c-0.854,3.971-4.494,6.947-8.497,6.947H343.83c-4.003,0-7.122-2.976-7.282-6.947l-0.031-0.784
					c-0.065-1.626-1.343-2.844-2.982-2.844h-25.029c-8.347,0-15.706,6.767-16.436,15.114l-20.136,230.15
					c-0.73,8.347,5.444,15.114,13.792,15.114h96.292c8.347,0,15.706-6.767,16.436-15.114l20.135-230.15
					C419.32,119.349,413.145,112.582,404.798,112.582z"/>
			</g>
			<g style="opacity:0.8;">
				<path d="M350.605,115.132c-0.092,1.056-1.024,1.912-2.08,1.912c-1.056,0-1.837-0.856-1.745-1.912
					c0.092-1.056,1.024-1.912,2.08-1.912C349.916,113.219,350.697,114.076,350.605,115.132z"/>
				<path d="M364.332,113.219c-0.755,0-5.802,0-6.557,0c-1.056,0-1.987,0.856-2.08,1.912c-0.092,1.056,0.689,1.912,1.745,1.912
					c0.656,0,5.901,0,6.557,0c1.056,0,1.987-0.856,2.08-1.912C366.17,114.075,365.389,113.219,364.332,113.219z"/>
			</g>
			<g>
				<polygon style="fill:#407BFF;" points="302.951,123.119 304.975,123.119 305.153,121.094 303.128,121.094 				"/>
				<polygon style="fill:#407BFF;" points="307.178,121.094 307,123.119 309.026,123.119 309.203,121.094 309.38,119.069 
					307.355,119.069 				"/>
				<polygon style="fill:#407BFF;" points="311.582,117.044 311.405,119.069 311.228,121.094 311.051,123.119 313.076,123.119 
					313.253,121.094 313.43,119.069 313.607,117.044 				"/>
			</g>
			<path style="fill:#407BFF;" d="M398.652,117.179l-0.13,1.485h-0.99l-0.26,2.97h0.99l-0.13,1.485h8.91l0.52-5.94H398.652z
				 M402.222,121.634h-2.97l0.26-2.97h2.97L402.222,121.634z"/>
		</g>
		<g>
			<path style="fill:#263238;" d="M339.438,154.333h-34.145c-1.801,0-3.133-1.46-2.975-3.261l0.538-6.145
				c0.158-1.801,1.745-3.261,3.546-3.261h34.145c1.801,0,3.133,1.46,2.976,3.261l-0.538,6.145
				C342.826,152.873,341.238,154.333,339.438,154.333z"/>
			<path style="opacity:0.3;fill:#FFFFFF;" d="M339.438,154.333h-34.145c-1.801,0-3.133-1.46-2.975-3.261l0.538-6.145
				c0.158-1.801,1.745-3.261,3.546-3.261h34.145c1.801,0,3.133,1.46,2.976,3.261l-0.538,6.145
				C342.826,152.873,341.238,154.333,339.438,154.333z"/>
		</g>
		<polygon style="opacity:0.2;" points="413.889,183 287.369,183 289.236,161.667 415.756,161.667 		"/>
		<g>
			<path style="fill:#407BFF;" d="M406.187,144h-10.659c-0.644,0-1.121-0.522-1.065-1.167l0,0c0.056-0.644,0.624-1.167,1.269-1.167
				h10.659c0.644,0,1.121,0.522,1.065,1.167l0,0C407.399,143.478,406.831,144,406.187,144z"/>
			<path style="fill:#407BFF;" d="M405.283,154.333h-10.659c-0.644,0-1.121-0.522-1.065-1.167l0,0
				c0.056-0.644,0.624-1.167,1.269-1.167h10.659c0.644,0,1.121,0.522,1.065,1.167l0,0
				C406.495,153.811,405.927,154.333,405.283,154.333z"/>
			<path style="fill:#407BFF;" d="M405.735,149.167h-10.659c-0.644,0-1.121-0.522-1.065-1.167l0,0
				c0.056-0.644,0.624-1.167,1.269-1.167h10.659c0.644,0,1.121,0.522,1.065,1.167l0,0
				C406.947,148.644,406.379,149.167,405.735,149.167z"/>
		</g>
		<path style="opacity:0.9;fill:#FFFFFF;" d="M397.892,178.667h-91.418c-3.59,0-6.245-2.91-5.931-6.5l0,0
			c0.314-3.59,3.479-6.5,7.069-6.5h91.418c3.59,0,6.245,2.91,5.931,6.5l0,0C404.646,175.757,401.482,178.667,397.892,178.667z"/>
		<path style="fill:#407BFF;" d="M356.794,173.037c1.498-1.378,1.694-3.612,0.437-4.989c-1.257-1.378-3.491-1.378-4.989,0
			c-1.301,1.196-1.616,3.036-0.855,4.402c-0.168,0.035-0.334,0.101-0.473,0.229l-3.364,3.094c-0.385,0.354-0.435,0.928-0.112,1.282
			c0.323,0.354,0.897,0.354,1.282,0l3.364-3.093c0.139-0.128,0.219-0.288,0.268-0.453
			C353.641,174.387,355.494,174.233,356.794,173.037z M352.6,172.306c-0.889-0.974-0.751-2.554,0.309-3.528
			c1.059-0.974,2.639-0.974,3.528,0c0.889,0.974,0.751,2.554-0.309,3.528C355.068,173.28,353.489,173.28,352.6,172.306z"/>
		<g>
			<path style="fill:#263238;" d="M318.761,197.75h-17.624c-1.565,0-2.722-1.268-2.586-2.833l0,0
				c0.137-1.565,1.517-2.833,3.081-2.833h17.623c1.565,0,2.722,1.269,2.586,2.833l0,0
				C321.706,196.482,320.326,197.75,318.761,197.75z"/>
			<path style="fill:#263238;" d="M364.511,197.75h-36.262c-1.565,0-2.722-1.268-2.585-2.833l0,0
				c0.137-1.565,1.516-2.833,3.081-2.833h36.262c1.565,0,2.722,1.269,2.586,2.833l0,0
				C367.456,196.482,366.076,197.75,364.511,197.75z"/>
			<path style="fill:#263238;" d="M399.889,197.75h-25.89c-1.565,0-2.722-1.268-2.585-2.833l0,0
				c0.137-1.565,1.516-2.833,3.081-2.833h25.89c1.565,0,2.722,1.269,2.585,2.833l0,0C402.833,196.482,401.454,197.75,399.889,197.75
				z"/>
			<path style="fill:#263238;" d="M336.697,209.917h-36.624c-1.565,0-2.722-1.269-2.585-2.833l0,0
				c0.137-1.565,1.516-2.833,3.081-2.833h36.624c1.565,0,2.722,1.268,2.585,2.833l0,0
				C339.641,208.648,338.262,209.917,336.697,209.917z"/>
			<path style="fill:#263238;" d="M369.615,209.917h-23.43c-1.565,0-2.722-1.269-2.586-2.833l0,0
				c0.137-1.565,1.516-2.833,3.081-2.833h23.43c1.565,0,2.722,1.268,2.585,2.833l0,0
				C372.559,208.648,371.179,209.917,369.615,209.917z"/>
			<path style="fill:#263238;" d="M391.768,209.917h-12.666c-1.565,0-2.722-1.269-2.586-2.833l0,0
				c0.137-1.565,1.516-2.833,3.081-2.833h12.666c1.565,0,2.722,1.268,2.585,2.833l0,0
				C394.712,208.648,393.333,209.917,391.768,209.917z"/>
			<path style="fill:#263238;" d="M323.525,222.083h-24.516c-1.565,0-2.722-1.268-2.585-2.833l0,0
				c0.137-1.565,1.516-2.833,3.081-2.833h24.516c1.565,0,2.722,1.268,2.586,2.833l0,0
				C326.469,220.815,325.09,222.083,323.525,222.083z"/>
			<path style="fill:#263238;" d="M364.293,222.083h-31.28c-1.565,0-2.722-1.268-2.586-2.833l0,0
				c0.137-1.565,1.517-2.833,3.081-2.833h31.28c1.565,0,2.722,1.268,2.586,2.833l0,0
				C367.237,220.815,365.858,222.083,364.293,222.083z"/>
			<path style="fill:#263238;" d="M397.76,222.083h-23.98c-1.565,0-2.722-1.268-2.585-2.833l0,0
				c0.137-1.565,1.516-2.833,3.081-2.833h23.979c1.565,0,2.722,1.268,2.585,2.833l0,0
				C400.704,220.815,399.325,222.083,397.76,222.083z"/>
			<path style="fill:#263238;" d="M332.657,234.25h-34.713c-1.565,0-2.722-1.268-2.586-2.833l0,0
				c0.137-1.565,1.516-2.833,3.081-2.833h34.713c1.565,0,2.722,1.269,2.585,2.833l0,0
				C335.602,232.982,334.222,234.25,332.657,234.25z"/>
			<path style="fill:#263238;" d="M367.486,234.25h-25.34c-1.565,0-2.722-1.268-2.586-2.833l0,0
				c0.137-1.565,1.516-2.833,3.081-2.833h25.341c1.565,0,2.722,1.269,2.585,2.833l0,0C370.43,232.982,369.05,234.25,367.486,234.25z
				"/>
			<path style="fill:#263238;" d="M392.639,234.25h-15.666c-1.565,0-2.722-1.268-2.586-2.833l0,0
				c0.137-1.565,1.517-2.833,3.081-2.833h15.666c1.565,0,2.722,1.269,2.585,2.833l0,0
				C395.583,232.982,394.204,234.25,392.639,234.25z"/>
			<path style="fill:#263238;" d="M326.907,246.417H296.88c-1.565,0-2.722-1.269-2.585-2.833l0,0
				c0.137-1.565,1.516-2.833,3.081-2.833h30.027c1.565,0,2.722,1.268,2.585,2.833l0,0
				C329.851,245.148,328.471,246.417,326.907,246.417z"/>
			<path style="fill:#263238;" d="M360.254,246.417h-23.859c-1.565,0-2.722-1.269-2.586-2.833l0,0
				c0.137-1.565,1.516-2.833,3.081-2.833h23.859c1.565,0,2.722,1.268,2.585,2.833l0,0
				C363.198,245.148,361.818,246.417,360.254,246.417z"/>
			<path style="fill:#263238;" d="M391.574,246.417h-21.833c-1.565,0-2.722-1.269-2.585-2.833l0,0
				c0.137-1.565,1.516-2.833,3.081-2.833h21.833c1.565,0,2.722,1.268,2.586,2.833l0,0
				C394.519,245.148,393.139,246.417,391.574,246.417z"/>
			<path style="fill:#263238;" d="M315.349,258.583h-19.534c-1.565,0-2.722-1.269-2.585-2.833l0,0
				c0.137-1.565,1.516-2.833,3.081-2.833h19.534c1.565,0,2.722,1.268,2.585,2.833l0,0
				C318.294,257.315,316.914,258.583,315.349,258.583z"/>
			<path style="fill:#263238;" d="M351.764,258.583h-26.926c-1.565,0-2.722-1.269-2.585-2.833l0,0
				c0.137-1.565,1.516-2.833,3.081-2.833h26.927c1.565,0,2.722,1.268,2.585,2.833l0,0
				C354.708,257.315,353.328,258.583,351.764,258.583z"/>
			<path style="fill:#263238;" d="M392.76,258.583h-31.509c-1.565,0-2.722-1.269-2.586-2.833l0,0
				c0.137-1.565,1.516-2.833,3.081-2.833h31.509c1.565,0,2.722,1.268,2.585,2.833l0,0
				C395.704,257.315,394.325,258.583,392.76,258.583z"/>
			<path style="fill:#263238;" d="M324.778,270.75h-30.027c-1.565,0-2.722-1.268-2.585-2.833l0,0
				c0.137-1.565,1.516-2.833,3.081-2.833h30.027c1.565,0,2.722,1.269,2.585,2.833l0,0
				C327.722,269.482,326.343,270.75,324.778,270.75z"/>
			<path style="fill:#263238;" d="M350.699,270.75h-16.434c-1.565,0-2.722-1.268-2.586-2.833l0,0
				c0.137-1.565,1.517-2.833,3.081-2.833h16.434c1.565,0,2.722,1.269,2.585,2.833l0,0
				C353.643,269.482,352.264,270.75,350.699,270.75z"/>
			<path style="fill:#263238;" d="M393.502,270.75h-33.315c-1.565,0-2.722-1.268-2.585-2.833l0,0
				c0.137-1.565,1.516-2.833,3.081-2.833h33.315c1.565,0,2.722,1.269,2.585,2.833l0,0
				C396.447,269.482,395.067,270.75,393.502,270.75z"/>
			<path style="fill:#263238;" d="M332.221,282.917h-38.534c-1.565,0-2.722-1.269-2.586-2.833l0,0
				c0.137-1.565,1.516-2.833,3.081-2.833h38.534c1.565,0,2.722,1.268,2.585,2.833l0,0
				C335.165,281.648,333.785,282.917,332.221,282.917z"/>
			<path style="fill:#263238;" d="M360.881,282.917h-19.173c-1.565,0-2.722-1.269-2.586-2.833l0,0
				c0.137-1.565,1.516-2.833,3.081-2.833h19.173c1.565,0,2.722,1.268,2.585,2.833l0,0
				C363.825,281.648,362.446,282.917,360.881,282.917z"/>
			<path style="fill:#263238;" d="M388.381,282.917h-18.012c-1.565,0-2.722-1.269-2.586-2.833l0,0
				c0.137-1.565,1.516-2.833,3.081-2.833h18.012c1.565,0,2.722,1.268,2.585,2.833l0,0
				C391.325,281.648,389.946,282.917,388.381,282.917z"/>
			<path style="fill:#263238;" d="M317.138,295.083h-24.516c-1.565,0-2.722-1.269-2.585-2.833l0,0
				c0.137-1.565,1.516-2.833,3.081-2.833h24.516c1.565,0,2.722,1.269,2.585,2.833l0,0
				C320.082,293.815,318.703,295.083,317.138,295.083z"/>
			<path style="fill:#263238;" d="M362.163,295.083h-35.538c-1.565,0-2.722-1.269-2.585-2.833l0,0
				c0.137-1.565,1.516-2.833,3.081-2.833h35.538c1.565,0,2.722,1.269,2.585,2.833l0,0
				C365.108,293.815,363.728,295.083,362.163,295.083z"/>
			<path style="fill:#263238;" d="M385.761,295.083h-14.11c-1.565,0-2.722-1.269-2.585-2.833l0,0
				c0.137-1.565,1.516-2.833,3.081-2.833h14.11c1.565,0,2.722,1.269,2.586,2.833l0,0
				C388.706,293.815,387.326,295.083,385.761,295.083z"/>
			<path style="fill:#263238;" d="M324.36,307.25h-32.802c-1.565,0-2.722-1.268-2.586-2.833l0,0
				c0.137-1.565,1.516-2.833,3.081-2.833h32.803c1.565,0,2.722,1.269,2.586,2.833l0,0C327.305,305.982,325.925,307.25,324.36,307.25
				z"/>
			<path style="fill:#263238;" d="M364.92,307.25h-31.072c-1.565,0-2.722-1.268-2.586-2.833h0c0.137-1.565,1.516-2.833,3.081-2.833
				h31.072c1.565,0,2.722,1.269,2.585,2.833l0,0C367.864,305.982,366.485,307.25,364.92,307.25z"/>
			<path style="fill:#263238;" d="M390.309,307.25h-15.901c-1.565,0-2.722-1.268-2.585-2.833l0,0
				c0.137-1.565,1.516-2.833,3.081-2.833h15.901c1.565,0,2.722,1.269,2.585,2.833l0,0
				C393.253,305.982,391.874,307.25,390.309,307.25z"/>
			<path style="fill:#263238;" d="M320.52,319.417h-30.027c-1.565,0-2.722-1.269-2.585-2.833l0,0
				c0.137-1.565,1.516-2.833,3.081-2.833h30.027c1.565,0,2.722,1.268,2.585,2.833l0,0
				C323.464,318.148,322.085,319.417,320.52,319.417z"/>
			<path style="fill:#263238;" d="M360.034,319.417h-30.027c-1.565,0-2.722-1.269-2.585-2.833l0,0
				c0.137-1.565,1.516-2.833,3.081-2.833h30.027c1.565,0,2.722,1.268,2.585,2.833l0,0
				C362.979,318.148,361.599,319.417,360.034,319.417z"/>
			<path style="fill:#263238;" d="M385.188,319.417h-15.666c-1.565,0-2.722-1.269-2.585-2.833l0,0
				c0.137-1.565,1.516-2.833,3.081-2.833h15.666c1.565,0,2.722,1.268,2.585,2.833l0,0
				C388.132,318.148,386.753,319.417,385.188,319.417z"/>
			<path style="fill:#263238;" d="M310.873,331.583h-21.444c-1.565,0-2.722-1.269-2.586-2.833l0,0
				c0.137-1.565,1.517-2.833,3.081-2.833h21.445c1.565,0,2.722,1.269,2.585,2.833l0,0
				C313.818,330.315,312.438,331.583,310.873,331.583z"/>
			<path style="fill:#263238;" d="M350.892,331.583h-30.531c-1.565,0-2.722-1.269-2.585-2.833l0,0
				c0.137-1.565,1.516-2.833,3.081-2.833h30.531c1.565,0,2.722,1.269,2.586,2.833l0,0
				C353.836,330.315,352.457,331.583,350.892,331.583z"/>
			<path style="fill:#263238;" d="M388.18,331.583h-27.801c-1.565,0-2.722-1.269-2.585-2.833l0,0
				c0.137-1.565,1.516-2.833,3.081-2.833h27.801c1.565,0,2.722,1.269,2.585,2.833l0,0
				C391.124,330.315,389.745,331.583,388.18,331.583z"/>
			<path style="fill:#263238;" d="M312.88,343.75h-24.516c-1.565,0-2.722-1.268-2.585-2.833l0,0
				c0.137-1.565,1.516-2.833,3.081-2.833h24.516c1.565,0,2.722,1.269,2.585,2.833l0,0C315.825,342.482,314.445,343.75,312.88,343.75
				z"/>
			<path style="fill:#263238;" d="M342.402,343.75h-20.034c-1.565,0-2.722-1.268-2.585-2.833l0,0
				c0.137-1.565,1.516-2.833,3.081-2.833h20.034c1.565,0,2.722,1.269,2.585,2.833l0,0
				C345.346,342.482,343.967,343.75,342.402,343.75z"/>
			<path style="fill:#263238;" d="M381.503,343.75H351.89c-1.565,0-2.722-1.268-2.586-2.833l0,0
				c0.137-1.565,1.516-2.833,3.081-2.833h29.614c1.565,0,2.722,1.269,2.585,2.833l0,0
				C384.448,342.482,383.068,343.75,381.503,343.75z"/>
			<path style="fill:#263238;" d="M317.327,355.917H287.3c-1.565,0-2.722-1.269-2.585-2.833l0,0
				c0.137-1.565,1.516-2.833,3.081-2.833h30.027c1.565,0,2.722,1.268,2.585,2.833l0,0
				C320.271,354.648,318.892,355.917,317.327,355.917z"/>
			<path style="fill:#263238;" d="M356.841,355.917h-30.027c-1.565,0-2.722-1.269-2.585-2.833l0,0
				c0.137-1.565,1.516-2.833,3.081-2.833h30.027c1.565,0,2.722,1.268,2.585,2.833l0,0
				C359.785,354.648,358.406,355.917,356.841,355.917z"/>
			<path style="fill:#263238;" d="M381.994,355.917h-15.666c-1.565,0-2.722-1.269-2.585-2.833l0,0
				c0.137-1.565,1.516-2.833,3.081-2.833h15.666c1.565,0,2.722,1.268,2.586,2.833l0,0
				C384.939,354.648,383.559,355.917,381.994,355.917z"/>
			<g>
				<path style="fill:#263238;" d="M318.761,197.75h-17.624c-1.565,0-2.722-1.268-2.586-2.833l0,0
					c0.137-1.565,1.517-2.833,3.081-2.833h17.623c1.565,0,2.722,1.269,2.586,2.833l0,0
					C321.706,196.482,320.326,197.75,318.761,197.75z"/>
				<path style="fill:#263238;" d="M364.511,197.75h-36.262c-1.565,0-2.722-1.268-2.585-2.833l0,0
					c0.137-1.565,1.516-2.833,3.081-2.833h36.262c1.565,0,2.722,1.269,2.586,2.833l0,0
					C367.456,196.482,366.076,197.75,364.511,197.75z"/>
				<path style="fill:#263238;" d="M399.889,197.75h-25.89c-1.565,0-2.722-1.268-2.585-2.833l0,0
					c0.137-1.565,1.516-2.833,3.081-2.833h25.89c1.565,0,2.722,1.269,2.585,2.833l0,0
					C402.833,196.482,401.454,197.75,399.889,197.75z"/>
				<path style="fill:#263238;" d="M336.697,209.917h-36.624c-1.565,0-2.722-1.269-2.585-2.833l0,0
					c0.137-1.565,1.516-2.833,3.081-2.833h36.624c1.565,0,2.722,1.268,2.585,2.833l0,0
					C339.641,208.648,338.262,209.917,336.697,209.917z"/>
				<path style="fill:#263238;" d="M369.615,209.917h-23.43c-1.565,0-2.722-1.269-2.586-2.833l0,0
					c0.137-1.565,1.516-2.833,3.081-2.833h23.43c1.565,0,2.722,1.268,2.585,2.833l0,0
					C372.559,208.648,371.179,209.917,369.615,209.917z"/>
				<path style="fill:#263238;" d="M391.768,209.917h-12.666c-1.565,0-2.722-1.269-2.586-2.833l0,0
					c0.137-1.565,1.516-2.833,3.081-2.833h12.666c1.565,0,2.722,1.268,2.585,2.833l0,0
					C394.712,208.648,393.333,209.917,391.768,209.917z"/>
				<path style="fill:#263238;" d="M323.525,222.083h-24.516c-1.565,0-2.722-1.268-2.585-2.833l0,0
					c0.137-1.565,1.516-2.833,3.081-2.833h24.516c1.565,0,2.722,1.268,2.586,2.833l0,0
					C326.469,220.815,325.09,222.083,323.525,222.083z"/>
				<path style="fill:#263238;" d="M364.293,222.083h-31.28c-1.565,0-2.722-1.268-2.586-2.833l0,0
					c0.137-1.565,1.517-2.833,3.081-2.833h31.28c1.565,0,2.722,1.268,2.586,2.833l0,0
					C367.237,220.815,365.858,222.083,364.293,222.083z"/>
				<path style="fill:#263238;" d="M397.76,222.083h-23.98c-1.565,0-2.722-1.268-2.585-2.833l0,0
					c0.137-1.565,1.516-2.833,3.081-2.833h23.979c1.565,0,2.722,1.268,2.585,2.833l0,0
					C400.704,220.815,399.325,222.083,397.76,222.083z"/>
				<path style="fill:#263238;" d="M332.657,234.25h-34.713c-1.565,0-2.722-1.268-2.586-2.833l0,0
					c0.137-1.565,1.516-2.833,3.081-2.833h34.713c1.565,0,2.722,1.269,2.585,2.833l0,0
					C335.602,232.982,334.222,234.25,332.657,234.25z"/>
				<path style="fill:#263238;" d="M367.486,234.25h-25.34c-1.565,0-2.722-1.268-2.586-2.833l0,0
					c0.137-1.565,1.516-2.833,3.081-2.833h25.341c1.565,0,2.722,1.269,2.585,2.833l0,0C370.43,232.982,369.05,234.25,367.486,234.25
					z"/>
				<path style="fill:#263238;" d="M392.639,234.25h-15.666c-1.565,0-2.722-1.268-2.586-2.833l0,0
					c0.137-1.565,1.517-2.833,3.081-2.833h15.666c1.565,0,2.722,1.269,2.585,2.833l0,0
					C395.583,232.982,394.204,234.25,392.639,234.25z"/>
				<path style="fill:#263238;" d="M326.907,246.417H296.88c-1.565,0-2.722-1.269-2.585-2.833l0,0
					c0.137-1.565,1.516-2.833,3.081-2.833h30.027c1.565,0,2.722,1.268,2.585,2.833l0,0
					C329.851,245.148,328.471,246.417,326.907,246.417z"/>
				<path style="fill:#263238;" d="M360.254,246.417h-23.859c-1.565,0-2.722-1.269-2.586-2.833l0,0
					c0.137-1.565,1.516-2.833,3.081-2.833h23.859c1.565,0,2.722,1.268,2.585,2.833l0,0
					C363.198,245.148,361.818,246.417,360.254,246.417z"/>
				<path style="fill:#263238;" d="M391.574,246.417h-21.833c-1.565,0-2.722-1.269-2.585-2.833l0,0
					c0.137-1.565,1.516-2.833,3.081-2.833h21.833c1.565,0,2.722,1.268,2.586,2.833l0,0
					C394.519,245.148,393.139,246.417,391.574,246.417z"/>
				<path style="fill:#263238;" d="M315.349,258.583h-19.534c-1.565,0-2.722-1.269-2.585-2.833l0,0
					c0.137-1.565,1.516-2.833,3.081-2.833h19.534c1.565,0,2.722,1.268,2.585,2.833l0,0
					C318.294,257.315,316.914,258.583,315.349,258.583z"/>
				<path style="fill:#263238;" d="M351.764,258.583h-26.926c-1.565,0-2.722-1.269-2.585-2.833l0,0
					c0.137-1.565,1.516-2.833,3.081-2.833h26.927c1.565,0,2.722,1.268,2.585,2.833l0,0
					C354.708,257.315,353.328,258.583,351.764,258.583z"/>
				<path style="fill:#263238;" d="M392.76,258.583h-31.509c-1.565,0-2.722-1.269-2.586-2.833l0,0
					c0.137-1.565,1.516-2.833,3.081-2.833h31.509c1.565,0,2.722,1.268,2.585,2.833l0,0
					C395.704,257.315,394.325,258.583,392.76,258.583z"/>
				<path style="fill:#263238;" d="M324.778,270.75h-30.027c-1.565,0-2.722-1.268-2.585-2.833l0,0
					c0.137-1.565,1.516-2.833,3.081-2.833h30.027c1.565,0,2.722,1.269,2.585,2.833l0,0
					C327.722,269.482,326.343,270.75,324.778,270.75z"/>
				<path style="fill:#263238;" d="M350.699,270.75h-16.434c-1.565,0-2.722-1.268-2.586-2.833l0,0
					c0.137-1.565,1.517-2.833,3.081-2.833h16.434c1.565,0,2.722,1.269,2.585,2.833l0,0
					C353.643,269.482,352.264,270.75,350.699,270.75z"/>
				<path style="fill:#263238;" d="M393.502,270.75h-33.315c-1.565,0-2.722-1.268-2.585-2.833l0,0
					c0.137-1.565,1.516-2.833,3.081-2.833h33.315c1.565,0,2.722,1.269,2.585,2.833l0,0
					C396.447,269.482,395.067,270.75,393.502,270.75z"/>
				<path style="fill:#263238;" d="M332.221,282.917h-38.534c-1.565,0-2.722-1.269-2.586-2.833l0,0
					c0.137-1.565,1.516-2.833,3.081-2.833h38.534c1.565,0,2.722,1.268,2.585,2.833l0,0
					C335.165,281.648,333.785,282.917,332.221,282.917z"/>
				<path style="fill:#263238;" d="M360.881,282.917h-19.173c-1.565,0-2.722-1.269-2.586-2.833l0,0
					c0.137-1.565,1.516-2.833,3.081-2.833h19.173c1.565,0,2.722,1.268,2.585,2.833l0,0
					C363.825,281.648,362.446,282.917,360.881,282.917z"/>
				<path style="fill:#263238;" d="M388.381,282.917h-18.012c-1.565,0-2.722-1.269-2.586-2.833l0,0
					c0.137-1.565,1.516-2.833,3.081-2.833h18.012c1.565,0,2.722,1.268,2.585,2.833l0,0
					C391.325,281.648,389.946,282.917,388.381,282.917z"/>
				<path style="fill:#263238;" d="M317.138,295.083h-24.516c-1.565,0-2.722-1.269-2.585-2.833l0,0
					c0.137-1.565,1.516-2.833,3.081-2.833h24.516c1.565,0,2.722,1.269,2.585,2.833l0,0
					C320.082,293.815,318.703,295.083,317.138,295.083z"/>
				<path style="fill:#263238;" d="M362.163,295.083h-35.538c-1.565,0-2.722-1.269-2.585-2.833l0,0
					c0.137-1.565,1.516-2.833,3.081-2.833h35.538c1.565,0,2.722,1.269,2.585,2.833l0,0
					C365.108,293.815,363.728,295.083,362.163,295.083z"/>
				<path style="fill:#263238;" d="M385.761,295.083h-14.11c-1.565,0-2.722-1.269-2.585-2.833l0,0
					c0.137-1.565,1.516-2.833,3.081-2.833h14.11c1.565,0,2.722,1.269,2.586,2.833l0,0
					C388.706,293.815,387.326,295.083,385.761,295.083z"/>
				<path style="fill:#263238;" d="M324.36,307.25h-32.802c-1.565,0-2.722-1.268-2.586-2.833l0,0
					c0.137-1.565,1.516-2.833,3.081-2.833h32.803c1.565,0,2.722,1.269,2.586,2.833l0,0
					C327.305,305.982,325.925,307.25,324.36,307.25z"/>
				<path style="fill:#263238;" d="M364.92,307.25h-31.072c-1.565,0-2.722-1.268-2.586-2.833h0c0.137-1.565,1.516-2.833,3.081-2.833
					h31.072c1.565,0,2.722,1.269,2.585,2.833l0,0C367.864,305.982,366.485,307.25,364.92,307.25z"/>
				<path style="fill:#263238;" d="M390.309,307.25h-15.901c-1.565,0-2.722-1.268-2.585-2.833l0,0
					c0.137-1.565,1.516-2.833,3.081-2.833h15.901c1.565,0,2.722,1.269,2.585,2.833l0,0
					C393.253,305.982,391.874,307.25,390.309,307.25z"/>
				<path style="fill:#263238;" d="M320.52,319.417h-30.027c-1.565,0-2.722-1.269-2.585-2.833l0,0
					c0.137-1.565,1.516-2.833,3.081-2.833h30.027c1.565,0,2.722,1.268,2.585,2.833l0,0
					C323.464,318.148,322.085,319.417,320.52,319.417z"/>
				<path style="fill:#263238;" d="M360.034,319.417h-30.027c-1.565,0-2.722-1.269-2.585-2.833l0,0
					c0.137-1.565,1.516-2.833,3.081-2.833h30.027c1.565,0,2.722,1.268,2.585,2.833l0,0
					C362.979,318.148,361.599,319.417,360.034,319.417z"/>
				<path style="fill:#263238;" d="M385.188,319.417h-15.666c-1.565,0-2.722-1.269-2.585-2.833l0,0
					c0.137-1.565,1.516-2.833,3.081-2.833h15.666c1.565,0,2.722,1.268,2.585,2.833l0,0
					C388.132,318.148,386.753,319.417,385.188,319.417z"/>
				<path style="fill:#263238;" d="M310.873,331.583h-21.444c-1.565,0-2.722-1.269-2.586-2.833l0,0
					c0.137-1.565,1.517-2.833,3.081-2.833h21.445c1.565,0,2.722,1.269,2.585,2.833l0,0
					C313.818,330.315,312.438,331.583,310.873,331.583z"/>
				<path style="fill:#263238;" d="M350.892,331.583h-30.531c-1.565,0-2.722-1.269-2.585-2.833l0,0
					c0.137-1.565,1.516-2.833,3.081-2.833h30.531c1.565,0,2.722,1.269,2.586,2.833l0,0
					C353.836,330.315,352.457,331.583,350.892,331.583z"/>
				<path style="fill:#263238;" d="M388.18,331.583h-27.801c-1.565,0-2.722-1.269-2.585-2.833l0,0
					c0.137-1.565,1.516-2.833,3.081-2.833h27.801c1.565,0,2.722,1.269,2.585,2.833l0,0
					C391.124,330.315,389.745,331.583,388.18,331.583z"/>
				<path style="fill:#263238;" d="M312.88,343.75h-24.516c-1.565,0-2.722-1.268-2.585-2.833l0,0
					c0.137-1.565,1.516-2.833,3.081-2.833h24.516c1.565,0,2.722,1.269,2.585,2.833l0,0
					C315.825,342.482,314.445,343.75,312.88,343.75z"/>
				<path style="fill:#263238;" d="M342.402,343.75h-20.034c-1.565,0-2.722-1.268-2.585-2.833l0,0
					c0.137-1.565,1.516-2.833,3.081-2.833h20.034c1.565,0,2.722,1.269,2.585,2.833l0,0
					C345.346,342.482,343.967,343.75,342.402,343.75z"/>
				<path style="fill:#263238;" d="M381.503,343.75H351.89c-1.565,0-2.722-1.268-2.586-2.833l0,0
					c0.137-1.565,1.516-2.833,3.081-2.833h29.614c1.565,0,2.722,1.269,2.585,2.833l0,0
					C384.448,342.482,383.068,343.75,381.503,343.75z"/>
				<path style="fill:#263238;" d="M317.327,355.917H287.3c-1.565,0-2.722-1.269-2.585-2.833l0,0
					c0.137-1.565,1.516-2.833,3.081-2.833h30.027c1.565,0,2.722,1.268,2.585,2.833l0,0
					C320.271,354.648,318.892,355.917,317.327,355.917z"/>
				<path style="fill:#263238;" d="M356.841,355.917h-30.027c-1.565,0-2.722-1.269-2.585-2.833l0,0
					c0.137-1.565,1.516-2.833,3.081-2.833h30.027c1.565,0,2.722,1.268,2.585,2.833l0,0
					C359.785,354.648,358.406,355.917,356.841,355.917z"/>
				<path style="fill:#263238;" d="M381.994,355.917h-15.666c-1.565,0-2.722-1.269-2.585-2.833l0,0
					c0.137-1.565,1.516-2.833,3.081-2.833h15.666c1.565,0,2.722,1.268,2.586,2.833l0,0
					C384.939,354.648,383.559,355.917,381.994,355.917z"/>
			</g>
			<g style="opacity:0.6;">
				<path style="fill:#FFFFFF;" d="M318.761,197.75h-17.624c-1.565,0-2.722-1.268-2.586-2.833l0,0
					c0.137-1.565,1.517-2.833,3.081-2.833h17.623c1.565,0,2.722,1.269,2.586,2.833l0,0
					C321.706,196.482,320.326,197.75,318.761,197.75z"/>
				<path style="fill:#FFFFFF;" d="M364.511,197.75h-36.262c-1.565,0-2.722-1.268-2.585-2.833l0,0
					c0.137-1.565,1.516-2.833,3.081-2.833h36.262c1.565,0,2.722,1.269,2.586,2.833l0,0
					C367.456,196.482,366.076,197.75,364.511,197.75z"/>
				<path style="fill:#FFFFFF;" d="M399.889,197.75h-25.89c-1.565,0-2.722-1.268-2.585-2.833l0,0
					c0.137-1.565,1.516-2.833,3.081-2.833h25.89c1.565,0,2.722,1.269,2.585,2.833l0,0
					C402.833,196.482,401.454,197.75,399.889,197.75z"/>
				<path style="fill:#FFFFFF;" d="M336.697,209.917h-36.624c-1.565,0-2.722-1.269-2.585-2.833l0,0
					c0.137-1.565,1.516-2.833,3.081-2.833h36.624c1.565,0,2.722,1.268,2.585,2.833l0,0
					C339.641,208.648,338.262,209.917,336.697,209.917z"/>
				<path style="fill:#FFFFFF;" d="M369.615,209.917h-23.43c-1.565,0-2.722-1.269-2.586-2.833l0,0
					c0.137-1.565,1.516-2.833,3.081-2.833h23.43c1.565,0,2.722,1.268,2.585,2.833l0,0
					C372.559,208.648,371.179,209.917,369.615,209.917z"/>
				<path style="fill:#FFFFFF;" d="M391.768,209.917h-12.666c-1.565,0-2.722-1.269-2.586-2.833l0,0
					c0.137-1.565,1.516-2.833,3.081-2.833h12.666c1.565,0,2.722,1.268,2.585,2.833l0,0
					C394.712,208.648,393.333,209.917,391.768,209.917z"/>
				<path style="fill:#FFFFFF;" d="M323.525,222.083h-24.516c-1.565,0-2.722-1.268-2.585-2.833l0,0
					c0.137-1.565,1.516-2.833,3.081-2.833h24.516c1.565,0,2.722,1.268,2.586,2.833l0,0
					C326.469,220.815,325.09,222.083,323.525,222.083z"/>
				<path style="fill:#FFFFFF;" d="M364.293,222.083h-31.28c-1.565,0-2.722-1.268-2.586-2.833l0,0
					c0.137-1.565,1.517-2.833,3.081-2.833h31.28c1.565,0,2.722,1.268,2.586,2.833l0,0
					C367.237,220.815,365.858,222.083,364.293,222.083z"/>
				<path style="fill:#FFFFFF;" d="M397.76,222.083h-23.98c-1.565,0-2.722-1.268-2.585-2.833l0,0
					c0.137-1.565,1.516-2.833,3.081-2.833h23.979c1.565,0,2.722,1.268,2.585,2.833l0,0
					C400.704,220.815,399.325,222.083,397.76,222.083z"/>
				<path style="fill:#FFFFFF;" d="M332.657,234.25h-34.713c-1.565,0-2.722-1.268-2.586-2.833l0,0
					c0.137-1.565,1.516-2.833,3.081-2.833h34.713c1.565,0,2.722,1.269,2.585,2.833l0,0
					C335.602,232.982,334.222,234.25,332.657,234.25z"/>
				<path style="fill:#FFFFFF;" d="M367.486,234.25h-25.34c-1.565,0-2.722-1.268-2.586-2.833l0,0
					c0.137-1.565,1.516-2.833,3.081-2.833h25.341c1.565,0,2.722,1.269,2.585,2.833l0,0C370.43,232.982,369.05,234.25,367.486,234.25
					z"/>
				<path style="fill:#FFFFFF;" d="M392.639,234.25h-15.666c-1.565,0-2.722-1.268-2.586-2.833l0,0
					c0.137-1.565,1.517-2.833,3.081-2.833h15.666c1.565,0,2.722,1.269,2.585,2.833l0,0
					C395.583,232.982,394.204,234.25,392.639,234.25z"/>
				<path style="fill:#FFFFFF;" d="M326.907,246.417H296.88c-1.565,0-2.722-1.269-2.585-2.833l0,0
					c0.137-1.565,1.516-2.833,3.081-2.833h30.027c1.565,0,2.722,1.268,2.585,2.833l0,0
					C329.851,245.148,328.471,246.417,326.907,246.417z"/>
				<path style="fill:#FFFFFF;" d="M360.254,246.417h-23.859c-1.565,0-2.722-1.269-2.586-2.833l0,0
					c0.137-1.565,1.516-2.833,3.081-2.833h23.859c1.565,0,2.722,1.268,2.585,2.833l0,0
					C363.198,245.148,361.818,246.417,360.254,246.417z"/>
				<path style="fill:#FFFFFF;" d="M391.574,246.417h-21.833c-1.565,0-2.722-1.269-2.585-2.833l0,0
					c0.137-1.565,1.516-2.833,3.081-2.833h21.833c1.565,0,2.722,1.268,2.586,2.833l0,0
					C394.519,245.148,393.139,246.417,391.574,246.417z"/>
				<path style="fill:#FFFFFF;" d="M315.349,258.583h-19.534c-1.565,0-2.722-1.269-2.585-2.833l0,0
					c0.137-1.565,1.516-2.833,3.081-2.833h19.534c1.565,0,2.722,1.268,2.585,2.833l0,0
					C318.294,257.315,316.914,258.583,315.349,258.583z"/>
				<path style="fill:#FFFFFF;" d="M351.764,258.583h-26.926c-1.565,0-2.722-1.269-2.585-2.833l0,0
					c0.137-1.565,1.516-2.833,3.081-2.833h26.927c1.565,0,2.722,1.268,2.585,2.833l0,0
					C354.708,257.315,353.328,258.583,351.764,258.583z"/>
				<path style="fill:#FFFFFF;" d="M392.76,258.583h-31.509c-1.565,0-2.722-1.269-2.586-2.833l0,0
					c0.137-1.565,1.516-2.833,3.081-2.833h31.509c1.565,0,2.722,1.268,2.585,2.833l0,0
					C395.704,257.315,394.325,258.583,392.76,258.583z"/>
				<path style="fill:#FFFFFF;" d="M324.778,270.75h-30.027c-1.565,0-2.722-1.268-2.585-2.833l0,0
					c0.137-1.565,1.516-2.833,3.081-2.833h30.027c1.565,0,2.722,1.269,2.585,2.833l0,0
					C327.722,269.482,326.343,270.75,324.778,270.75z"/>
				<path style="fill:#FFFFFF;" d="M350.699,270.75h-16.434c-1.565,0-2.722-1.268-2.586-2.833l0,0
					c0.137-1.565,1.517-2.833,3.081-2.833h16.434c1.565,0,2.722,1.269,2.585,2.833l0,0
					C353.643,269.482,352.264,270.75,350.699,270.75z"/>
				<path style="fill:#FFFFFF;" d="M393.502,270.75h-33.315c-1.565,0-2.722-1.268-2.585-2.833l0,0
					c0.137-1.565,1.516-2.833,3.081-2.833h33.315c1.565,0,2.722,1.269,2.585,2.833l0,0
					C396.447,269.482,395.067,270.75,393.502,270.75z"/>
				<path style="fill:#FFFFFF;" d="M332.221,282.917h-38.534c-1.565,0-2.722-1.269-2.586-2.833l0,0
					c0.137-1.565,1.516-2.833,3.081-2.833h38.534c1.565,0,2.722,1.268,2.585,2.833l0,0
					C335.165,281.648,333.785,282.917,332.221,282.917z"/>
				<path style="fill:#FFFFFF;" d="M360.881,282.917h-19.173c-1.565,0-2.722-1.269-2.586-2.833l0,0
					c0.137-1.565,1.516-2.833,3.081-2.833h19.173c1.565,0,2.722,1.268,2.585,2.833l0,0
					C363.825,281.648,362.446,282.917,360.881,282.917z"/>
				<path style="fill:#FFFFFF;" d="M388.381,282.917h-18.012c-1.565,0-2.722-1.269-2.586-2.833l0,0
					c0.137-1.565,1.516-2.833,3.081-2.833h18.012c1.565,0,2.722,1.268,2.585,2.833l0,0
					C391.325,281.648,389.946,282.917,388.381,282.917z"/>
				<path style="fill:#FFFFFF;" d="M317.138,295.083h-24.516c-1.565,0-2.722-1.269-2.585-2.833l0,0
					c0.137-1.565,1.516-2.833,3.081-2.833h24.516c1.565,0,2.722,1.269,2.585,2.833l0,0
					C320.082,293.815,318.703,295.083,317.138,295.083z"/>
				<path style="fill:#FFFFFF;" d="M362.163,295.083h-35.538c-1.565,0-2.722-1.269-2.585-2.833l0,0
					c0.137-1.565,1.516-2.833,3.081-2.833h35.538c1.565,0,2.722,1.269,2.585,2.833l0,0
					C365.108,293.815,363.728,295.083,362.163,295.083z"/>
				<path style="fill:#FFFFFF;" d="M385.761,295.083h-14.11c-1.565,0-2.722-1.269-2.585-2.833l0,0
					c0.137-1.565,1.516-2.833,3.081-2.833h14.11c1.565,0,2.722,1.269,2.586,2.833l0,0
					C388.706,293.815,387.326,295.083,385.761,295.083z"/>
				<path style="fill:#FFFFFF;" d="M324.36,307.25h-32.802c-1.565,0-2.722-1.268-2.586-2.833l0,0
					c0.137-1.565,1.516-2.833,3.081-2.833h32.803c1.565,0,2.722,1.269,2.586,2.833l0,0
					C327.305,305.982,325.925,307.25,324.36,307.25z"/>
				<path style="fill:#FFFFFF;" d="M364.92,307.25h-31.072c-1.565,0-2.722-1.268-2.586-2.833h0c0.137-1.565,1.516-2.833,3.081-2.833
					h31.072c1.565,0,2.722,1.269,2.585,2.833l0,0C367.864,305.982,366.485,307.25,364.92,307.25z"/>
				<path style="fill:#FFFFFF;" d="M390.309,307.25h-15.901c-1.565,0-2.722-1.268-2.585-2.833l0,0
					c0.137-1.565,1.516-2.833,3.081-2.833h15.901c1.565,0,2.722,1.269,2.585,2.833l0,0
					C393.253,305.982,391.874,307.25,390.309,307.25z"/>
				<path style="fill:#FFFFFF;" d="M320.52,319.417h-30.027c-1.565,0-2.722-1.269-2.585-2.833l0,0
					c0.137-1.565,1.516-2.833,3.081-2.833h30.027c1.565,0,2.722,1.268,2.585,2.833l0,0
					C323.464,318.148,322.085,319.417,320.52,319.417z"/>
				<path style="fill:#FFFFFF;" d="M360.034,319.417h-30.027c-1.565,0-2.722-1.269-2.585-2.833l0,0
					c0.137-1.565,1.516-2.833,3.081-2.833h30.027c1.565,0,2.722,1.268,2.585,2.833l0,0
					C362.979,318.148,361.599,319.417,360.034,319.417z"/>
				<path style="fill:#FFFFFF;" d="M385.188,319.417h-15.666c-1.565,0-2.722-1.269-2.585-2.833l0,0
					c0.137-1.565,1.516-2.833,3.081-2.833h15.666c1.565,0,2.722,1.268,2.585,2.833l0,0
					C388.132,318.148,386.753,319.417,385.188,319.417z"/>
				<path style="fill:#FFFFFF;" d="M310.873,331.583h-21.444c-1.565,0-2.722-1.269-2.586-2.833l0,0
					c0.137-1.565,1.517-2.833,3.081-2.833h21.445c1.565,0,2.722,1.269,2.585,2.833l0,0
					C313.818,330.315,312.438,331.583,310.873,331.583z"/>
				<path style="fill:#FFFFFF;" d="M350.892,331.583h-30.531c-1.565,0-2.722-1.269-2.585-2.833l0,0
					c0.137-1.565,1.516-2.833,3.081-2.833h30.531c1.565,0,2.722,1.269,2.586,2.833l0,0
					C353.836,330.315,352.457,331.583,350.892,331.583z"/>
				<path style="fill:#FFFFFF;" d="M388.18,331.583h-27.801c-1.565,0-2.722-1.269-2.585-2.833l0,0
					c0.137-1.565,1.516-2.833,3.081-2.833h27.801c1.565,0,2.722,1.269,2.585,2.833l0,0
					C391.124,330.315,389.745,331.583,388.18,331.583z"/>
				<path style="fill:#FFFFFF;" d="M312.88,343.75h-24.516c-1.565,0-2.722-1.268-2.585-2.833l0,0
					c0.137-1.565,1.516-2.833,3.081-2.833h24.516c1.565,0,2.722,1.269,2.585,2.833l0,0
					C315.825,342.482,314.445,343.75,312.88,343.75z"/>
				<path style="fill:#FFFFFF;" d="M342.402,343.75h-20.034c-1.565,0-2.722-1.268-2.585-2.833l0,0
					c0.137-1.565,1.516-2.833,3.081-2.833h20.034c1.565,0,2.722,1.269,2.585,2.833l0,0
					C345.346,342.482,343.967,343.75,342.402,343.75z"/>
				<path style="fill:#FFFFFF;" d="M381.503,343.75H351.89c-1.565,0-2.722-1.268-2.586-2.833l0,0
					c0.137-1.565,1.516-2.833,3.081-2.833h29.614c1.565,0,2.722,1.269,2.585,2.833l0,0
					C384.448,342.482,383.068,343.75,381.503,343.75z"/>
				<path style="fill:#FFFFFF;" d="M317.327,355.917H287.3c-1.565,0-2.722-1.269-2.585-2.833l0,0
					c0.137-1.565,1.516-2.833,3.081-2.833h30.027c1.565,0,2.722,1.268,2.585,2.833l0,0
					C320.271,354.648,318.892,355.917,317.327,355.917z"/>
				<path style="fill:#FFFFFF;" d="M356.841,355.917h-30.027c-1.565,0-2.722-1.269-2.585-2.833l0,0
					c0.137-1.565,1.516-2.833,3.081-2.833h30.027c1.565,0,2.722,1.268,2.585,2.833l0,0
					C359.785,354.648,358.406,355.917,356.841,355.917z"/>
				<path style="fill:#FFFFFF;" d="M381.994,355.917h-15.666c-1.565,0-2.722-1.269-2.585-2.833l0,0
					c0.137-1.565,1.516-2.833,3.081-2.833h15.666c1.565,0,2.722,1.268,2.586,2.833l0,0
					C384.939,354.648,383.559,355.917,381.994,355.917z"/>
			</g>
		</g>
		<path style="opacity:0.3;fill:#FFFFFF;" d="M277.065,370.03c2.341,1.834,5.321,2.931,8.661,2.931h96.292
			c8.347,0,15.706-6.767,16.437-15.114l20.135-230.15c0.311-3.552-0.638-6.811-2.463-9.391L277.065,370.03z"/>
	</g>
</g>
<g id="Character">
	<g>
		<g>
			<polygon style="fill:#263238;" points="99.524,259.915 91.899,259.915 105.114,334.859 112.739,334.859 			"/>
			<polygon style="opacity:0.2;fill:#FFFFFF;" points="99.524,259.915 91.899,259.915 105.114,334.859 112.739,334.859 			"/>
			<polygon style="fill:#263238;" points="107.274,259.915 95.249,259.915 108.464,334.859 120.489,334.859 			"/>
			<polygon style="opacity:0.3;fill:#FFFFFF;" points="107.274,259.915 95.249,259.915 108.464,334.859 120.489,334.859 			"/>
		</g>
		<g>
			<polygon style="fill:#263238;" points="184.263,259.915 176.639,259.915 189.854,334.859 197.478,334.859 			"/>
			<polygon style="opacity:0.2;fill:#FFFFFF;" points="184.263,259.915 176.639,259.915 189.854,334.859 197.478,334.859 			"/>
			<polygon style="fill:#263238;" points="192.013,259.915 179.988,259.915 193.203,334.859 205.228,334.859 			"/>
			<polygon style="opacity:0.3;fill:#FFFFFF;" points="192.013,259.915 179.988,259.915 193.203,334.859 205.228,334.859 			"/>
		</g>
		<g>
			<polygon style="fill:#407BFF;" points="90.486,270.333 82.264,270.333 79.915,257.007 88.137,257.007 			"/>
			<polygon style="opacity:0.3;fill:#FFFFFF;" points="90.486,270.333 82.264,270.333 79.915,257.007 88.137,257.007 			"/>
		</g>
		<g>
			<path style="fill:#263238;" d="M222.329,383.414c-0.273-6.39,4.833-11.72,11.229-11.72c6.396,0,11.502,5.33,11.229,11.72
				l-1.279,29.905h18.402l-7.938-69.649h-40.827l-7.938,69.649h18.402L222.329,383.414z"/>
			<path style="opacity:0.3;fill:#FFFFFF;" d="M222.329,383.414c-0.273-6.39,4.833-11.72,11.229-11.72
				c6.396,0,11.502,5.33,11.229,11.72l-1.279,29.905h18.402l-7.938-69.649h-40.827l-7.938,69.649h18.402L222.329,383.414z"/>
			<path style="fill:#263238;" d="M217.95,383.414c-0.273-6.39,4.833-11.72,11.229-11.72c6.396,0,11.502,5.33,11.229,11.72
				l-1.279,29.905h18.402l-7.938-69.649h-40.826l-7.939,69.649h18.402L217.95,383.414z"/>
			<path style="opacity:0.5;fill:#FFFFFF;" d="M217.95,383.414c-0.273-6.39,4.833-11.72,11.229-11.72
				c6.396,0,11.502,5.33,11.229,11.72l-1.279,29.905h18.402l-7.938-69.649h-40.826l-7.939,69.649h18.402L217.95,383.414z"/>
		</g>
		<g>
			<rect x="154.706" y="332.707" style="fill:#407BFF;" width="112.576" height="10.963"/>
			<rect x="154.706" y="332.707" style="opacity:0.3;fill:#FFFFFF;" width="112.576" height="10.963"/>
		</g>
		<g>
			<path style="fill:#263238;" d="M117.431,383.414c-0.273-6.39,4.833-11.72,11.229-11.72c6.396,0,11.502,5.33,11.229,11.72
				l-1.279,29.905h18.402l-7.938-69.649h-40.827l-7.938,69.649h18.402L117.431,383.414z"/>
			<path style="opacity:0.3;fill:#FFFFFF;" d="M117.431,383.414c-0.273-6.39,4.833-11.72,11.229-11.72
				c6.396,0,11.502,5.33,11.229,11.72l-1.279,29.905h18.402l-7.938-69.649h-40.827l-7.938,69.649h18.402L117.431,383.414z"/>
			<path style="fill:#263238;" d="M113.053,383.414c-0.273-6.39,4.833-11.72,11.229-11.72c6.396,0,11.502,5.33,11.229,11.72
				l-1.279,29.905h18.402l-7.939-69.649h-40.827l-7.938,69.649h18.402L113.053,383.414z"/>
			<path style="opacity:0.5;fill:#FFFFFF;" d="M113.053,383.414c-0.273-6.39,4.833-11.72,11.229-11.72
				c6.396,0,11.502,5.33,11.229,11.72l-1.279,29.905h18.402l-7.939-69.649h-40.827l-7.938,69.649h18.402L113.053,383.414z"/>
		</g>
		<g>
			<polygon style="fill:#407BFF;" points="201.878,270.333 86.801,270.333 84.451,257.007 199.529,257.007 			"/>
			<polygon style="opacity:0.6;fill:#FFFFFF;" points="201.878,270.333 86.801,270.333 84.451,257.007 199.529,257.007 			"/>
		</g>
		<g>
			<polygon style="fill:#407BFF;" points="93.836,289.328 85.614,289.328 83.264,276.003 91.486,276.003 			"/>
			<polygon style="opacity:0.3;fill:#FFFFFF;" points="93.836,289.328 85.614,289.328 83.264,276.003 91.486,276.003 			"/>
		</g>
		<g>
			<polygon style="fill:#407BFF;" points="205.228,289.328 90.15,289.328 87.8,276.003 202.878,276.003 			"/>
			<polygon style="opacity:0.6;fill:#FFFFFF;" points="205.228,289.328 90.15,289.328 87.8,276.003 202.878,276.003 			"/>
		</g>
		<g>
			<polygon style="fill:#407BFF;" points="97.185,308.324 88.963,308.324 86.614,294.999 94.836,294.999 			"/>
			<polygon style="opacity:0.3;fill:#FFFFFF;" points="97.185,308.324 88.963,308.324 86.614,294.999 94.836,294.999 			"/>
		</g>
		<g>
			<polygon style="fill:#407BFF;" points="208.577,308.324 93.499,308.324 91.15,294.999 206.228,294.999 			"/>
			<polygon style="opacity:0.6;fill:#FFFFFF;" points="208.577,308.324 93.499,308.324 91.15,294.999 206.228,294.999 			"/>
		</g>
		<g>
			<polygon style="fill:#407BFF;" points="100.535,327.32 92.313,327.32 89.963,313.995 98.185,313.995 			"/>
			<polygon style="opacity:0.3;fill:#FFFFFF;" points="100.535,327.32 92.313,327.32 89.963,313.995 98.185,313.995 			"/>
		</g>
		<g>
			<polygon style="fill:#407BFF;" points="211.927,327.32 96.849,327.32 94.499,313.995 209.577,313.995 			"/>
			<polygon style="opacity:0.6;fill:#FFFFFF;" points="211.927,327.32 96.849,327.32 94.499,313.995 209.577,313.995 			"/>
		</g>
		<g>
			<rect x="90.839" y="332.707" style="fill:#407BFF;" width="66.173" height="10.963"/>
			<rect x="90.839" y="332.707" style="opacity:0.6;fill:#FFFFFF;" width="66.173" height="10.963"/>
		</g>
	</g>
	<g>
		<g>
			<polygon style="fill:#FFB573;" points="241.639,384.602 251.94,404.354 259.784,401.424 253.358,380.728 			"/>
			<g>
				<path style="fill:#407BFF;" d="M262.032,400.391c-0.103,0-0.197-0.061-0.238-0.156c-0.04-0.096-0.015-0.207,0.062-0.276
					c0.137-0.124,3.249-2.919,5.05-2.819c0.335,0.014,0.651,0.157,0.882,0.4c0.295,0.261,0.393,0.679,0.245,1.045
					c-0.302,0.634-1.56,1.149-2.825,1.422C264.162,400.227,263.1,400.355,262.032,400.391z M262.743,399.898
					c1.945-0.175,4.508-0.746,4.837-1.51c0.051-0.097,0.082-0.255-0.162-0.517c-0.137-0.157-0.338-0.244-0.546-0.235
					c-0.159-0.01-0.319,0.003-0.474,0.04C265.051,398.18,263.81,398.934,262.743,399.898z"/>
				<path style="fill:#407BFF;" d="M261.901,400.404c-0.083-0.032-0.143-0.106-0.155-0.195c-0.014-0.131-0.335-2.935,0.73-4.28
					c0.305-0.395,0.757-0.648,1.253-0.702c0.678-0.077,0.958,0.214,1.043,0.485c0.464,1.098-1.505,3.834-2.605,4.636
					c-0.028,0.022-0.063,0.033-0.099,0.031C262.018,400.408,261.958,400.417,261.901,400.404z M263.667,395.719
					c-0.306,0.063-0.579,0.235-0.767,0.483c-0.57,1.041-0.806,2.233-0.678,3.413c1.1-1.019,2.331-3.092,2.12-3.769
					c-0.031-0.058-0.098-0.226-0.539-0.169L263.667,395.719L263.667,395.719z"/>
				<path style="fill:#263238;" d="M260.685,399.19l-11.111,2.401c-0.419,0.09-0.719,0.459-0.722,0.888l-0.055,9.473
					c-0.011,0.84,0.661,1.53,1.501,1.541c0.108,0.001,0.215-0.009,0.321-0.03c3.99-0.935,7.504-1.924,12.492-2.995
					c5.885-1.27,4.544-0.243,11.483-1.64c4.18-0.846,3.919-5.749,2.102-5.6c-8.31,0.73-9.677-1.531-13.423-3.752
					C262.474,399.067,261.553,398.965,260.685,399.19z"/>
			</g>
			<path style="fill:#407BFF;" d="M158.285,296.665c0,0-36.101,35.723,7.371,35.723c19.029,0,50.466-6.237,50.466-6.237
				s2.52,7.97,6.805,21.831c4.285,13.863,22.114,45.505,22.114,45.505l12.049-4.395c0,0-17.436-66.768-25.516-78.251
				c-8.08-11.482-56.704-13.042-56.704-13.042L158.285,296.665z"/>
			<path style="opacity:0.2;" d="M158.285,296.665c0,0-36.101,35.723,7.371,35.723c19.029,0,50.466-6.237,50.466-6.237
				s2.52,7.97,6.805,21.831c4.285,13.863,22.114,45.505,22.114,45.505l12.049-4.395c0,0-17.436-66.768-25.516-78.251
				c-8.08-11.482-56.704-13.042-56.704-13.042L158.285,296.665z"/>
			<polygon style="fill:#407BFF;" points="242.967,393.604 245.164,397.573 259.784,392.17 258.537,387.508 			"/>
			<polygon style="opacity:0.2;" points="242.967,393.604 245.164,397.573 259.784,392.17 258.537,387.508 			"/>
		</g>
		<g>
			<polygon style="fill:#FFB573;" points="225.266,386.752 228.243,408.938 219.312,411.135 212.366,390.651 			"/>
			<g>
				<path style="fill:#407BFF;" d="M229.333,406.359c-0.103,0-0.197-0.061-0.238-0.155c-0.04-0.096-0.015-0.207,0.062-0.276
					c0.137-0.124,3.25-2.919,5.05-2.819c0.335,0.014,0.651,0.157,0.881,0.4c0.295,0.261,0.393,0.679,0.245,1.045
					c-0.302,0.634-1.56,1.149-2.825,1.422C231.463,406.196,230.4,406.324,229.333,406.359z M230.044,405.867
					c1.945-0.175,4.508-0.746,4.837-1.51c0.051-0.097,0.082-0.255-0.162-0.517c-0.137-0.157-0.338-0.244-0.546-0.235
					c-0.159-0.01-0.318,0.003-0.474,0.04C232.352,404.149,231.111,404.902,230.044,405.867z"/>
				<path style="fill:#407BFF;" d="M229.202,406.373c-0.083-0.032-0.143-0.107-0.155-0.195c-0.014-0.131-0.335-2.935,0.73-4.28
					c0.305-0.395,0.757-0.648,1.253-0.702c0.679-0.077,0.959,0.214,1.043,0.485c0.464,1.098-1.505,3.834-2.605,4.636
					c-0.028,0.022-0.063,0.033-0.099,0.031C229.319,406.377,229.259,406.386,229.202,406.373z M230.968,401.688
					c-0.306,0.063-0.579,0.234-0.767,0.483c-0.57,1.042-0.806,2.233-0.678,3.413c1.1-1.019,2.331-3.092,2.12-3.769
					c-0.031-0.058-0.098-0.226-0.539-0.169L230.968,401.688L230.968,401.688z"/>
				<path style="fill:#263238;" d="M227.986,405.159l-11.111,2.401c-0.419,0.09-0.719,0.459-0.722,0.887l-0.055,9.473
					c-0.011,0.841,0.661,1.531,1.501,1.541c0.108,0.001,0.215-0.009,0.321-0.03c3.99-0.935,7.504-1.924,12.492-2.995
					c5.885-1.27,4.544-0.243,11.483-1.64c4.18-0.846,3.919-5.749,2.102-5.6c-8.309,0.73-9.677-1.531-13.423-3.752
					C229.775,405.036,228.854,404.934,227.986,405.159z"/>
			</g>
			<path style="fill:#407BFF;" d="M130.217,298.933c0,0-6.237,35.723,12.758,34.589c18.996-1.134,50.75-6.237,50.75-6.237
				s0.85,10.065,4.536,24.099c3.686,14.034,16.444,50.041,16.444,50.041l13.184-4.395c0,0-8.364-76.975-16.444-88.457
				c-8.08-11.482-64.642-8.505-64.642-8.505L130.217,298.933z"/>
			<polygon style="fill:#407BFF;" points="212.366,399.511 214.209,403.551 229.448,398.518 229.056,393.832 			"/>
		</g>
		<g>
			<path style="fill:#407BFF;" d="M203.027,224.36h-3.78c-0.791,0-1.487,0.522-1.709,1.281l-4.736,16.213
				c-0.28,0.959,0.439,1.917,1.438,1.917h3.117L203.027,224.36z"/>
			<path style="opacity:0.4;" d="M203.027,224.36h-3.78c-0.791,0-1.487,0.522-1.709,1.281l-4.736,16.213
				c-0.28,0.959,0.439,1.917,1.438,1.917h3.117L203.027,224.36z"/>
			<path style="fill:#407BFF;" d="M203.839,243.771h-7.718c-0.999,0-1.717-0.959-1.438-1.917l4.736-16.213
				c0.222-0.759,0.918-1.281,1.709-1.281h7.718c0.999,0,1.717,0.959,1.438,1.918l-4.736,16.213
				C205.326,243.249,204.63,243.771,203.839,243.771z"/>
			<path style="opacity:0.3;fill:#FFFFFF;" d="M201.96,229.202h-1.266c-0.164,0-0.282-0.157-0.236-0.315l0.777-2.66
				c0.036-0.124,0.151-0.21,0.28-0.21h1.266c0.164,0,0.282,0.157,0.236,0.314l-0.777,2.66
				C202.204,229.117,202.09,229.202,201.96,229.202z"/>
		</g>
		<path style="fill:#FFB573;" d="M178.563,245.34c0,0,5.995,16.633,9.397,17.011c3.402,0.378,4.197-15.913,6.426-20.791
			c1.098-2.402,7.341-7.599,7.341-7.599c1.794-1.857,4.827-1.651,6.354,0.431l0,0c0.778,1.061,1.009,2.428,0.623,3.686l-0.689,2.243
			c-0.371,1.209-1.272,2.184-2.447,2.65l-7.181,2.845c0,0,1.102,29.2-8.915,29.956c-10.018,0.756-20.035-25.139-20.035-25.139
			L178.563,245.34z"/>
		<path style="fill:#263238;" d="M166.964,232.566c3.14,1.336,10.485,5.747,15.704,19.011c0,0-5.103,0.142-11.624,5.387
			c0,0-5.689-12.108-5.646-23.342C165.401,232.807,166.214,232.247,166.964,232.566z"/>
		<path style="opacity:0.2;" d="M166.955,234.066l-1.472,2.098c0.697,10.444,5.56,20.801,5.56,20.801
			c0.295-0.237,0.583-0.452,0.872-0.669c0.98,2.069,2.215,4.5,3.633,6.931C174.279,241.655,166.955,234.066,166.955,234.066z"/>
		<path style="fill:#FFB573;" d="M115.19,238.402c0,0-19.846,12.475-18.996,18.429c0.85,5.954,16.302,29.486,16.302,29.486
			l1.996,10.463c0.328,1.718,1.768,3.001,3.512,3.129h0c1.335,0.098,2.625-0.501,3.411-1.584l2.156-2.972
			c1.066-1.469,0.965-3.481-0.241-4.837l-5.628-7.601c0,0-10.415-18.936-8.325-25.375c1.681-5.179,15.877-12.049,15.877-12.049
			L115.19,238.402z"/>
		<path style="fill:#263238;" d="M123.173,230.875c-0.592,0.3-0.907,0.948-0.781,1.6c0.988,5.102,5.209,27.326,6.434,40.83
			c1.219,13.436,0.54,26.903,0.54,26.903s23.957,3.26,45.505-2.41c0,0-2.735-13.646-3.157-28.586
			c-0.49-17.346,4.15-33.079-9.837-38.938C142.7,222.241,127.151,228.863,123.173,230.875z"/>
		<path style="opacity:0.2;" d="M163.766,243.883c1.876-0.459-0.209-8.955-1.438-13.401c-0.152-0.068-0.295-0.142-0.452-0.208
			c-9.286-3.89-17.716-4.34-24.399-3.544c0.372,3.589,2.127,17.991,6.347,18.041c4.821,0.057,11.239-3.038,11.239-3.038
			S161.22,244.506,163.766,243.883z"/>
		<path style="fill:#263238;" d="M159.244,220.363c-26.852,2.487-28.648-1.684-27.593-9.193c0.88-6.258,1.857-2.603,1.771-5.982
			c-0.086-3.379,0.172-9.064,3.895-11.935c2.664-11.697,10.289-11.734,18.826-11.648c8.537,0.086,6.245,2.417,13.423,4.226
			c7.178,1.809,1.986,9.499-0.005,12.007C169.562,197.838,176.459,218.768,159.244,220.363z"/>
		<path style="fill:#FFB573;" d="M146.845,210.141c0.574,5.264-0.685,13.839-4.701,16.58c0,0,3.922,7.721,12.392,12.439
			c6.164-4.259,5.346-10.501,5.346-10.501c-5.647-1.914-5.236-6.434-3.935-10.368L146.845,210.141z"/>
		<path style="opacity:0.2;enable-background:new    ;" d="M149.098,216.066c0.033,2.686,3.356,5.286,6.014,6.208
			c0.054-1.296,0.396-2.656,0.836-3.983l-6.204-5.627C149.364,213.76,149.14,214.905,149.098,216.066z"/>
		<path style="fill:#FFB573;" d="M141.079,200.814c2.201,8.413,2.948,12.021,8.107,15.543c7.762,5.302,17.61,0.766,17.974-8.135
			c0.325-8.011-3.321-20.415-12.318-22.166c-6.422-1.284-12.669,2.881-13.953,9.303
			C140.527,197.167,140.592,199.035,141.079,200.814z"/>
		<path style="fill:#FFB573;" d="M140.39,207.945c0.783,1.488,2.126,2.604,3.733,3.101c2.134,0.641,3.245-1.254,2.689-3.292
			c-0.498-1.828-2.211-4.374-4.374-4.125c-1.569,0.229-2.655,1.687-2.426,3.256C140.066,207.259,140.195,207.62,140.39,207.945z"/>
		<path style="fill:#263238;" d="M145.041,183.922c-1.503,2.584,2.249,7.37,10.136,6.91c5.943-0.345,13.399,6.039,12.796-0.861
			C167.466,183.692,152.525,180.687,145.041,183.922z"/>
		<path style="fill:#263238;" d="M149.358,185.817c4.115,3.149,1.378,8.901-0.603,11.485c-1.981,2.584-5.034,5.006-2.67,8.834
			c2.364,3.828,3.981,14.356-3.56,12.509c-7.542-1.847-7.197-14.423-5.005-20.233C139.71,192.602,144.457,182.074,149.358,185.817z"
			/>
		<path style="fill:#ED893E;" d="M160.79,202.844c0.46,1.669,1.147,3.266,2.043,4.747c-0.775,0.448-1.709,0.529-2.55,0.222
			L160.79,202.844z"/>
		<path style="fill:#263238;" d="M152.227,197.227c-0.057-0.02-0.109-0.053-0.151-0.096c-0.128-0.141-0.117-0.359,0.025-0.487
			c0.002-0.002,0.003-0.003,0.005-0.005c0.954-0.902,2.287-1.283,3.574-1.02c0.18,0.055,0.286,0.241,0.241,0.424
			c-0.049,0.18-0.233,0.288-0.415,0.244c-1.066-0.199-2.162,0.125-2.948,0.871C152.468,197.238,152.342,197.264,152.227,197.227z"/>
		<path style="fill:#263238;" d="M167.116,198.871c-0.057-0.02-0.109-0.053-0.151-0.096c-0.725-0.799-1.789-1.202-2.861-1.084
			c-0.187,0.038-0.368-0.083-0.406-0.27c0-0.001-0.001-0.003-0.001-0.005c-0.03-0.189,0.095-0.368,0.283-0.404
			c1.303-0.16,2.602,0.319,3.49,1.286c0.137,0.133,0.14,0.351,0.007,0.487C167.385,198.883,167.243,198.916,167.116,198.871
			L167.116,198.871z"/>
		<g>
			<path style="fill:#263238;" d="M155.946,201.175c-0.073,0.698,0.242,1.305,0.707,1.356c0.464,0.052,0.887-0.48,0.954-1.19
				c0.067-0.71-0.242-1.305-0.697-1.354C156.453,199.939,156.022,200.467,155.946,201.175z"/>
			<path style="fill:#263238;" d="M163.893,201.99c-0.073,0.698,0.242,1.305,0.697,1.354c0.455,0.049,0.887-0.48,0.963-1.187
				c0.076-0.707-0.242-1.305-0.697-1.354C164.4,200.754,163.959,201.279,163.893,201.99z"/>
			<path style="fill:#263238;" d="M164.65,200.82l1.736-0.311C166.386,200.509,165.382,201.734,164.65,200.82z"/>
			<path style="fill:#263238;" d="M156.703,200.005l1.736-0.311C158.439,199.694,157.435,200.919,156.703,200.005z"/>
		</g>
		<path style="opacity:0.6;" d="M126.528,255.9c7.767-10.995,2.709-18.949,2.709-18.949l-5.847,0.797
			C124.254,242.399,125.448,249.066,126.528,255.9z"/>
		<path style="fill:#263238;" d="M150.702,189.117c0,0,2.338,2.169,6.642,2.822c0.758,0.115,0.887,1.155,0.171,1.43
			C155.355,194.198,152.194,194.329,150.702,189.117z"/>
		<path style="fill:#263238;" d="M158.837,211.301c0.363,0.001,0.726-0.03,1.083-0.095c0.103-0.017,0.173-0.114,0.156-0.217
			c0-0.002-0.001-0.004-0.001-0.006c-0.018-0.102-0.113-0.17-0.215-0.155c-1.601,0.313-3.256-0.149-4.463-1.247
			c-0.071-0.078-0.193-0.084-0.271-0.013c-0.078,0.071-0.084,0.193-0.013,0.271C156.119,210.79,157.453,211.314,158.837,211.301z"/>
		<path style="fill:#263238;" d="M115.626,253.089c0,0,26.259-11.2,8.1-21.462c-0.717-0.405-1.61-0.36-2.275,0.125l-16.134,11.77
			C105.317,243.521,111.346,245.872,115.626,253.089z"/>
		<path style="fill:#263238;" d="M142.03,225.36l12.475,13.042l3.591-10.774l3.024,1.418c0,0,4.182,12.38,0.567,12.38
			c-3.615,0-6.663-1.111-6.663-1.111s-3.402,1.418-9.002,1.418s-7.159-15.806-7.159-15.806L142.03,225.36z"/>
		<path style="opacity:0.1;fill:#FFFFFF;" d="M142.03,225.36l12.475,13.042l3.591-10.774l3.024,1.418c0,0,4.182,12.38,0.567,12.38
			c-3.615,0-6.663-1.111-6.663-1.111s-3.402,1.418-9.002,1.418s-7.159-15.806-7.159-15.806L142.03,225.36z"/>
	</g>
</g>
<g id="Article">
	<g>
		<g>
			<g>
				<path style="fill:#407BFF;" d="M351.618,321.476H235.749c-3.327,0-5.788-2.697-5.497-6.024L242.33,177.4
					c0.291-3.327,3.224-6.024,6.551-6.024H364.75c3.327,0,5.788,2.697,5.497,6.024l-12.078,138.052
					C357.878,318.779,354.945,321.476,351.618,321.476z"/>
			</g>
			<g style="opacity:0.3;">
				<path style="fill:#FFFFFF;" d="M351.618,321.476H235.749c-3.327,0-5.788-2.697-5.497-6.024L242.33,177.4
					c0.291-3.327,3.224-6.024,6.551-6.024H364.75c3.327,0,5.788,2.697,5.497,6.024l-12.078,138.052
					C357.878,318.779,354.945,321.476,351.618,321.476z"/>
			</g>
		</g>
		<g>
			<path style="fill:#407BFF;" d="M349.669,321.476H233.801c-3.327,0-5.788-2.697-5.497-6.024L240.382,177.4
				c0.291-3.327,3.224-6.024,6.551-6.024h115.869c3.327,0,5.788,2.697,5.497,6.024L356.22,315.452
				C355.929,318.779,352.996,321.476,349.669,321.476z"/>
			<path style="opacity:0.7;fill:#FFFFFF;" d="M349.669,321.476H233.801c-3.327,0-5.788-2.697-5.497-6.024L240.382,177.4
				c0.291-3.327,3.224-6.024,6.551-6.024h115.869c3.327,0,5.788,2.697,5.497,6.024L356.22,315.452
				C355.929,318.779,352.996,321.476,349.669,321.476z"/>
		</g>
		<path style="fill:#407BFF;" d="M362.801,171.376H246.933c-3.327,0-6.26,2.697-6.551,6.024l-0.951,10.869h127.917l0.951-10.869
			C368.589,174.073,366.128,171.376,362.801,171.376z"/>
		<path style="opacity:0.9;fill:#FFFFFF;" d="M265.832,206.269c-0.435,4.971-4.817,9-9.787,9c-4.971,0-8.647-4.029-8.213-9
			c0.435-4.971,4.817-9,9.787-9C262.59,197.269,266.267,201.299,265.832,206.269z"/>
		<polygon style="opacity:0.9;fill:#FFFFFF;" points="356.264,212.769 271.764,212.769 272.901,199.769 357.401,199.769 		"/>
		<polygon style="opacity:0.9;fill:#FFFFFF;" points="350.664,276.769 266.164,276.769 270.976,221.769 355.476,221.769 		"/>
		<polygon style="fill:#407BFF;" points="303.4,262.649 272.4,262.649 274.587,237.649 305.587,237.649 		"/>
		<g>
			<g>
				<path style="fill:#263238;" d="M316.9,240.57h-6.938c-0.616,0-1.072-0.499-1.018-1.115l0,0c0.054-0.616,0.597-1.115,1.213-1.115
					h6.938c0.616,0,1.072,0.499,1.018,1.115l0,0C318.059,240.071,317.516,240.57,316.9,240.57z"/>
				<path style="fill:#263238;" d="M334.91,240.57h-14.276c-0.616,0-1.072-0.499-1.018-1.115l0,0
					c0.054-0.616,0.597-1.115,1.213-1.115h14.275c0.616,0,1.072,0.499,1.018,1.115l0,0C336.069,240.07,335.526,240.57,334.91,240.57
					z"/>
				<path style="fill:#263238;" d="M348.838,240.57h-10.192c-0.616,0-1.072-0.499-1.018-1.115l0,0
					c0.054-0.616,0.597-1.115,1.213-1.115h10.192c0.616,0,1.072,0.499,1.018,1.115l0,0
					C349.997,240.07,349.454,240.57,348.838,240.57z"/>
				<path style="fill:#263238;" d="M323.961,245.36h-14.418c-0.616,0-1.072-0.499-1.018-1.115l0,0
					c0.054-0.616,0.597-1.115,1.213-1.115h14.418c0.616,0,1.072,0.499,1.018,1.115l0,0C325.12,244.86,324.577,245.36,323.961,245.36
					z"/>
				<path style="fill:#263238;" d="M336.919,245.36h-9.224c-0.616,0-1.072-0.499-1.018-1.115l0,0
					c0.054-0.616,0.597-1.115,1.213-1.115h9.224c0.616,0,1.072,0.499,1.018,1.115l0,0C338.078,244.86,337.535,245.36,336.919,245.36
					z"/>
				<path style="fill:#263238;" d="M345.641,245.36h-4.986c-0.616,0-1.072-0.499-1.018-1.115l0,0
					c0.054-0.616,0.597-1.115,1.213-1.115h4.986c0.616,0,1.072,0.499,1.018,1.115l0,0C346.8,244.86,346.257,245.36,345.641,245.36z"
					/>
				<path style="fill:#263238;" d="M318.775,250.149h-9.651c-0.616,0-1.072-0.499-1.018-1.115l0,0
					c0.054-0.616,0.597-1.115,1.213-1.115h9.651c0.616,0,1.072,0.499,1.018,1.115l0,0
					C319.934,249.65,319.391,250.149,318.775,250.149z"/>
				<path style="fill:#263238;" d="M334.824,250.149H322.51c-0.616,0-1.072-0.499-1.018-1.115l0,0
					c0.054-0.616,0.597-1.115,1.213-1.115h12.314c0.616,0,1.072,0.499,1.018,1.115l0,0
					C335.983,249.65,335.44,250.149,334.824,250.149z"/>
				<path style="fill:#263238;" d="M348,250.149h-9.44c-0.616,0-1.072-0.499-1.018-1.115l0,0c0.054-0.616,0.597-1.115,1.213-1.115
					h9.44c0.616,0,1.072,0.499,1.018,1.115l0,0C349.159,249.65,348.616,250.149,348,250.149z"/>
				<path style="fill:#263238;" d="M322.37,254.939h-13.666c-0.616,0-1.072-0.499-1.018-1.115l0,0
					c0.054-0.616,0.597-1.115,1.213-1.115h13.666c0.616,0,1.072,0.499,1.018,1.115l0,0
					C323.53,254.44,322.986,254.939,322.37,254.939z"/>
				<path style="fill:#263238;" d="M336.081,254.939h-9.976c-0.616,0-1.072-0.499-1.018-1.115l0,0
					c0.054-0.616,0.597-1.115,1.213-1.115h9.976c0.616,0,1.072,0.499,1.018,1.115l0,0
					C337.24,254.44,336.697,254.939,336.081,254.939z"/>
				<path style="fill:#263238;" d="M345.983,254.939h-6.167c-0.616,0-1.072-0.499-1.018-1.115l0,0
					c0.054-0.616,0.597-1.115,1.213-1.115h6.167c0.616,0,1.072,0.499,1.018,1.115l0,0
					C347.143,254.44,346.599,254.939,345.983,254.939z"/>
				<path style="fill:#263238;" d="M320.107,259.729h-11.821c-0.616,0-1.072-0.499-1.018-1.115l0,0
					c0.054-0.616,0.597-1.115,1.213-1.115h11.821c0.616,0,1.072,0.499,1.018,1.115l0,0
					C321.266,259.229,320.723,259.729,320.107,259.729z"/>
				<path style="fill:#263238;" d="M333.234,259.729h-9.393c-0.616,0-1.072-0.499-1.018-1.115l0,0
					c0.054-0.616,0.597-1.115,1.213-1.115h9.393c0.616,0,1.072,0.499,1.018,1.115l0,0
					C334.393,259.229,333.85,259.729,333.234,259.729z"/>
				<path style="fill:#263238;" d="M345.564,259.729h-8.595c-0.616,0-1.072-0.499-1.018-1.115l0,0
					c0.054-0.616,0.597-1.115,1.213-1.115h8.595c0.616,0,1.072,0.499,1.018,1.115l0,0
					C346.724,259.229,346.181,259.729,345.564,259.729z"/>
				<path style="fill:#263238;" d="M315.557,264.518h-7.69c-0.616,0-1.072-0.499-1.018-1.116l0,0
					c0.054-0.616,0.597-1.115,1.213-1.115h7.69c0.616,0,1.072,0.499,1.018,1.115l0,0
					C316.716,264.019,316.173,264.518,315.557,264.518z"/>
				<path style="fill:#263238;" d="M329.892,264.518h-10.6c-0.616,0-1.072-0.499-1.018-1.116l0,0
					c0.054-0.616,0.597-1.115,1.213-1.115h10.6c0.616,0,1.072,0.499,1.018,1.115l0,0
					C331.051,264.019,330.508,264.518,329.892,264.518z"/>
				<path style="fill:#263238;" d="M346.031,264.518h-12.404c-0.616,0-1.072-0.499-1.018-1.116l0,0
					c0.054-0.616,0.597-1.115,1.213-1.115h12.404c0.616,0,1.072,0.499,1.018,1.115l0,0
					C347.19,264.019,346.647,264.518,346.031,264.518z"/>
				<path style="fill:#263238;" d="M319.268,269.308h-11.821c-0.616,0-1.072-0.499-1.018-1.115l0,0
					c0.054-0.616,0.597-1.115,1.213-1.115h11.821c0.616,0,1.072,0.499,1.018,1.115l0,0
					C320.427,268.809,319.884,269.308,319.268,269.308z"/>
				<path style="fill:#263238;" d="M329.473,269.308h-6.469c-0.616,0-1.072-0.499-1.018-1.115l0,0
					c0.054-0.616,0.597-1.115,1.213-1.115h6.469c0.616,0,1.072,0.499,1.018,1.115l0,0
					C330.632,268.809,330.089,269.308,329.473,269.308z"/>
				<path style="fill:#263238;" d="M346.323,269.308h-13.115c-0.616,0-1.072-0.499-1.018-1.115l0,0
					c0.054-0.616,0.597-1.115,1.213-1.115h13.115c0.616,0,1.072,0.499,1.018,1.115l0,0
					C347.482,268.809,346.939,269.308,346.323,269.308z"/>
				<path style="fill:#263238;" d="M322.198,274.098h-15.17c-0.616,0-1.072-0.499-1.018-1.115l0,0
					c0.054-0.616,0.597-1.115,1.213-1.115h15.17c0.616,0,1.072,0.499,1.018,1.115l0,0
					C323.358,273.598,322.815,274.098,322.198,274.098z"/>
				<path style="fill:#263238;" d="M333.481,274.098h-7.548c-0.616,0-1.072-0.499-1.018-1.115l0,0
					c0.054-0.616,0.597-1.115,1.213-1.115h7.548c0.616,0,1.072,0.499,1.018,1.115l0,0
					C334.64,273.598,334.097,274.098,333.481,274.098z"/>
				<path style="fill:#263238;" d="M344.307,274.098h-7.091c-0.616,0-1.072-0.499-1.018-1.115l0,0
					c0.054-0.616,0.597-1.115,1.213-1.115h7.091c0.616,0,1.072,0.499,1.018,1.115l0,0
					C345.466,273.598,344.923,274.098,344.307,274.098z"/>
			</g>
			<g style="opacity:0.4;">
				<path style="fill:#FFFFFF;" d="M316.9,240.57h-6.938c-0.616,0-1.072-0.499-1.018-1.115l0,0c0.054-0.616,0.597-1.115,1.213-1.115
					h6.938c0.616,0,1.072,0.499,1.018,1.115l0,0C318.059,240.071,317.516,240.57,316.9,240.57z"/>
				<path style="fill:#FFFFFF;" d="M334.91,240.57h-14.276c-0.616,0-1.072-0.499-1.018-1.115l0,0
					c0.054-0.616,0.597-1.115,1.213-1.115h14.275c0.616,0,1.072,0.499,1.018,1.115l0,0C336.069,240.07,335.526,240.57,334.91,240.57
					z"/>
				<path style="fill:#FFFFFF;" d="M348.838,240.57h-10.192c-0.616,0-1.072-0.499-1.018-1.115l0,0
					c0.054-0.616,0.597-1.115,1.213-1.115h10.192c0.616,0,1.072,0.499,1.018,1.115l0,0
					C349.997,240.07,349.454,240.57,348.838,240.57z"/>
				<path style="fill:#FFFFFF;" d="M323.961,245.36h-14.418c-0.616,0-1.072-0.499-1.018-1.115l0,0
					c0.054-0.616,0.597-1.115,1.213-1.115h14.418c0.616,0,1.072,0.499,1.018,1.115l0,0C325.12,244.86,324.577,245.36,323.961,245.36
					z"/>
				<path style="fill:#FFFFFF;" d="M336.919,245.36h-9.224c-0.616,0-1.072-0.499-1.018-1.115l0,0
					c0.054-0.616,0.597-1.115,1.213-1.115h9.224c0.616,0,1.072,0.499,1.018,1.115l0,0C338.078,244.86,337.535,245.36,336.919,245.36
					z"/>
				<path style="fill:#FFFFFF;" d="M345.641,245.36h-4.986c-0.616,0-1.072-0.499-1.018-1.115l0,0
					c0.054-0.616,0.597-1.115,1.213-1.115h4.986c0.616,0,1.072,0.499,1.018,1.115l0,0C346.8,244.86,346.257,245.36,345.641,245.36z"
					/>
				<path style="fill:#FFFFFF;" d="M318.775,250.149h-9.651c-0.616,0-1.072-0.499-1.018-1.115l0,0
					c0.054-0.616,0.597-1.115,1.213-1.115h9.651c0.616,0,1.072,0.499,1.018,1.115l0,0
					C319.934,249.65,319.391,250.149,318.775,250.149z"/>
				<path style="fill:#FFFFFF;" d="M334.824,250.149H322.51c-0.616,0-1.072-0.499-1.018-1.115l0,0
					c0.054-0.616,0.597-1.115,1.213-1.115h12.314c0.616,0,1.072,0.499,1.018,1.115l0,0
					C335.983,249.65,335.44,250.149,334.824,250.149z"/>
				<path style="fill:#FFFFFF;" d="M348,250.149h-9.44c-0.616,0-1.072-0.499-1.018-1.115l0,0c0.054-0.616,0.597-1.115,1.213-1.115
					h9.44c0.616,0,1.072,0.499,1.018,1.115l0,0C349.159,249.65,348.616,250.149,348,250.149z"/>
				<path style="fill:#FFFFFF;" d="M322.37,254.939h-13.666c-0.616,0-1.072-0.499-1.018-1.115l0,0
					c0.054-0.616,0.597-1.115,1.213-1.115h13.666c0.616,0,1.072,0.499,1.018,1.115l0,0
					C323.53,254.44,322.986,254.939,322.37,254.939z"/>
				<path style="fill:#FFFFFF;" d="M336.081,254.939h-9.976c-0.616,0-1.072-0.499-1.018-1.115l0,0
					c0.054-0.616,0.597-1.115,1.213-1.115h9.976c0.616,0,1.072,0.499,1.018,1.115l0,0
					C337.24,254.44,336.697,254.939,336.081,254.939z"/>
				<path style="fill:#FFFFFF;" d="M345.983,254.939h-6.167c-0.616,0-1.072-0.499-1.018-1.115l0,0
					c0.054-0.616,0.597-1.115,1.213-1.115h6.167c0.616,0,1.072,0.499,1.018,1.115l0,0
					C347.143,254.44,346.599,254.939,345.983,254.939z"/>
				<path style="fill:#FFFFFF;" d="M320.107,259.729h-11.821c-0.616,0-1.072-0.499-1.018-1.115l0,0
					c0.054-0.616,0.597-1.115,1.213-1.115h11.821c0.616,0,1.072,0.499,1.018,1.115l0,0
					C321.266,259.229,320.723,259.729,320.107,259.729z"/>
				<path style="fill:#FFFFFF;" d="M333.234,259.729h-9.393c-0.616,0-1.072-0.499-1.018-1.115l0,0
					c0.054-0.616,0.597-1.115,1.213-1.115h9.393c0.616,0,1.072,0.499,1.018,1.115l0,0
					C334.393,259.229,333.85,259.729,333.234,259.729z"/>
				<path style="fill:#FFFFFF;" d="M345.564,259.729h-8.595c-0.616,0-1.072-0.499-1.018-1.115l0,0
					c0.054-0.616,0.597-1.115,1.213-1.115h8.595c0.616,0,1.072,0.499,1.018,1.115l0,0
					C346.724,259.229,346.181,259.729,345.564,259.729z"/>
				<path style="fill:#FFFFFF;" d="M315.557,264.518h-7.69c-0.616,0-1.072-0.499-1.018-1.116l0,0
					c0.054-0.616,0.597-1.115,1.213-1.115h7.69c0.616,0,1.072,0.499,1.018,1.115l0,0
					C316.716,264.019,316.173,264.518,315.557,264.518z"/>
				<path style="fill:#FFFFFF;" d="M329.892,264.518h-10.6c-0.616,0-1.072-0.499-1.018-1.116l0,0
					c0.054-0.616,0.597-1.115,1.213-1.115h10.6c0.616,0,1.072,0.499,1.018,1.115l0,0
					C331.051,264.019,330.508,264.518,329.892,264.518z"/>
				<path style="fill:#FFFFFF;" d="M346.031,264.518h-12.404c-0.616,0-1.072-0.499-1.018-1.116l0,0
					c0.054-0.616,0.597-1.115,1.213-1.115h12.404c0.616,0,1.072,0.499,1.018,1.115l0,0
					C347.19,264.019,346.647,264.518,346.031,264.518z"/>
				<path style="fill:#FFFFFF;" d="M319.268,269.308h-11.821c-0.616,0-1.072-0.499-1.018-1.115l0,0
					c0.054-0.616,0.597-1.115,1.213-1.115h11.821c0.616,0,1.072,0.499,1.018,1.115l0,0
					C320.427,268.809,319.884,269.308,319.268,269.308z"/>
				<path style="fill:#FFFFFF;" d="M329.473,269.308h-6.469c-0.616,0-1.072-0.499-1.018-1.115l0,0
					c0.054-0.616,0.597-1.115,1.213-1.115h6.469c0.616,0,1.072,0.499,1.018,1.115l0,0
					C330.632,268.809,330.089,269.308,329.473,269.308z"/>
				<path style="fill:#FFFFFF;" d="M346.323,269.308h-13.115c-0.616,0-1.072-0.499-1.018-1.115l0,0
					c0.054-0.616,0.597-1.115,1.213-1.115h13.115c0.616,0,1.072,0.499,1.018,1.115l0,0
					C347.482,268.809,346.939,269.308,346.323,269.308z"/>
				<path style="fill:#FFFFFF;" d="M322.198,274.098h-15.17c-0.616,0-1.072-0.499-1.018-1.115l0,0
					c0.054-0.616,0.597-1.115,1.213-1.115h15.17c0.616,0,1.072,0.499,1.018,1.115l0,0
					C323.358,273.598,322.815,274.098,322.198,274.098z"/>
				<path style="fill:#FFFFFF;" d="M333.481,274.098h-7.548c-0.616,0-1.072-0.499-1.018-1.115l0,0
					c0.054-0.616,0.597-1.115,1.213-1.115h7.548c0.616,0,1.072,0.499,1.018,1.115l0,0
					C334.64,273.598,334.097,274.098,333.481,274.098z"/>
				<path style="fill:#FFFFFF;" d="M344.307,274.098h-7.091c-0.616,0-1.072-0.499-1.018-1.115l0,0
					c0.054-0.616,0.597-1.115,1.213-1.115h7.091c0.616,0,1.072,0.499,1.018,1.115l0,0
					C345.466,273.598,344.923,274.098,344.307,274.098z"/>
			</g>
		</g>
		<g>
			<path style="fill:#263238;" d="M298.979,231.142h-2.6l-0.601,1.2h-1.328l2.986-5.6h1.28l2.014,5.6h-1.36L298.979,231.142z
				 M298.656,230.158l-0.7-2.144l-1.076,2.144H298.656z"/>
			<path style="fill:#263238;" d="M304.881,232.342l-0.944-1.56h-0.064h-1.128l-0.137,1.56h-1.296l0.49-5.6h2.424
				c0.496,0,0.919,0.083,1.27,0.248c0.351,0.165,0.612,0.4,0.783,0.704c0.171,0.304,0.238,0.664,0.201,1.08
				c-0.036,0.416-0.168,0.774-0.394,1.076c-0.227,0.302-0.531,0.532-0.913,0.692l1.098,1.8H304.881z M304.929,228.05
				c-0.188-0.168-0.477-0.252-0.866-0.252h-1.056l-0.171,1.952h1.056c0.389,0,0.693-0.085,0.91-0.256
				c0.217-0.17,0.34-0.411,0.367-0.72C305.197,228.46,305.117,228.218,304.929,228.05z"/>
			<path style="fill:#263238;" d="M308.671,227.798h-1.792l0.092-1.056h4.88l-0.092,1.056h-1.792l-0.397,4.544h-1.296
				L308.671,227.798z"/>
			<path style="fill:#263238;" d="M312.547,226.742h1.296l-0.49,5.6h-1.296L312.547,226.742z"/>
			<path style="fill:#263238;" d="M315.837,232.066c-0.44-0.248-0.772-0.592-0.998-1.032c-0.226-0.44-0.314-0.937-0.266-1.492
				s0.224-1.052,0.526-1.492c0.303-0.44,0.695-0.784,1.178-1.032c0.483-0.248,1.012-0.372,1.589-0.372
				c0.485,0,0.916,0.085,1.294,0.256c0.377,0.171,0.685,0.416,0.923,0.736l-0.899,0.768c-0.341-0.437-0.791-0.656-1.351-0.656
				c-0.347,0-0.663,0.076-0.948,0.228c-0.285,0.152-0.516,0.364-0.691,0.636c-0.176,0.272-0.279,0.582-0.309,0.928
				s0.019,0.656,0.147,0.928c0.128,0.272,0.321,0.484,0.58,0.636c0.259,0.152,0.561,0.228,0.908,0.228
				c0.56,0,1.049-0.222,1.466-0.664l0.764,0.768c-0.295,0.325-0.647,0.573-1.057,0.744c-0.41,0.171-0.857,0.256-1.342,0.256
				C316.782,232.439,316.277,232.315,315.837,232.066z"/>
			<path style="fill:#263238;" d="M321.035,226.742h1.296l-0.398,4.544h2.808l-0.092,1.056h-4.104L321.035,226.742z"/>
			<path style="fill:#263238;" d="M329.804,231.302l-0.091,1.04h-4.336l0.49-5.6h4.232l-0.091,1.04h-2.944l-0.106,1.216h2.6
				l-0.088,1.008h-2.6l-0.113,1.296H329.804z"/>
		</g>
		<path style="fill:#407BFF;" d="M282.557,310.769h-39.41c-2.462,0-4.282-1.995-4.067-4.457l0.988-11.295
			c0.215-2.462,2.385-4.457,4.847-4.457h39.41c2.462,0,4.283,1.995,4.067,4.457l-0.988,11.295
			C287.189,308.774,285.019,310.769,282.557,310.769z"/>
		<path style="fill:#FFFFFF;" d="M343.233,310.769h-39.41c-2.462,0-4.283-1.995-4.067-4.457l0.988-11.295
			c0.215-2.462,2.385-4.457,4.847-4.457h39.41c2.462,0,4.282,1.995,4.067,4.457l-0.988,11.295
			C347.865,308.774,345.694,310.769,343.233,310.769z"/>
		<g>
			<path style="fill:#FFFFFF;" d="M250.228,303.6c-0.403-0.12-0.722-0.276-0.955-0.468l0.525-0.976
				c0.224,0.176,0.498,0.317,0.819,0.424c0.321,0.107,0.647,0.16,0.978,0.16c0.368,0,0.645-0.055,0.83-0.164
				c0.185-0.109,0.286-0.255,0.302-0.436c0.012-0.133-0.03-0.244-0.127-0.332s-0.223-0.159-0.381-0.212
				c-0.158-0.053-0.373-0.112-0.645-0.176c-0.418-0.101-0.758-0.203-1.021-0.304c-0.263-0.102-0.482-0.264-0.657-0.488
				c-0.175-0.224-0.246-0.523-0.214-0.896c0.028-0.325,0.142-0.62,0.341-0.884c0.199-0.264,0.482-0.473,0.851-0.628
				c0.368-0.155,0.808-0.232,1.32-0.232c0.357,0,0.703,0.043,1.037,0.128c0.334,0.086,0.622,0.208,0.864,0.368l-0.486,0.984
				c-0.492-0.294-0.997-0.44-1.514-0.44c-0.363,0-0.636,0.059-0.82,0.176c-0.184,0.117-0.284,0.272-0.3,0.464
				c-0.017,0.192,0.071,0.335,0.262,0.428c0.192,0.093,0.489,0.185,0.892,0.276c0.418,0.102,0.759,0.203,1.022,0.304
				c0.263,0.101,0.482,0.261,0.658,0.48c0.176,0.219,0.247,0.515,0.214,0.888c-0.028,0.32-0.143,0.612-0.345,0.876
				c-0.202,0.264-0.488,0.474-0.859,0.628c-0.371,0.155-0.812,0.232-1.325,0.232C251.053,303.78,250.63,303.72,250.228,303.6z"/>
			<path style="fill:#FFFFFF;" d="M260.394,298.084l-0.49,5.6h-1.296l0.201-2.296h-2.544l-0.201,2.296h-1.296l0.49-5.6h1.296
				l-0.193,2.208h2.544l0.193-2.208H260.394z"/>
			<path style="fill:#FFFFFF;" d="M265.025,302.484h-2.6l-0.601,1.2h-1.328l2.986-5.6h1.28l2.014,5.6h-1.36L265.025,302.484z
				 M264.703,301.5l-0.7-2.144l-1.076,2.144H264.703z"/>
			<path style="fill:#FFFFFF;" d="M270.928,303.684l-0.944-1.56h-0.064h-1.128l-0.136,1.56h-1.296l0.49-5.6h2.424
				c0.496,0,0.919,0.083,1.27,0.248c0.351,0.165,0.612,0.4,0.783,0.704c0.171,0.304,0.238,0.664,0.201,1.08
				c-0.036,0.416-0.168,0.775-0.394,1.076c-0.227,0.302-0.531,0.532-0.913,0.692l1.098,1.8H270.928z M270.975,299.392
				c-0.188-0.168-0.477-0.252-0.866-0.252h-1.056l-0.171,1.952h1.056c0.389,0,0.693-0.085,0.91-0.256
				c0.218-0.17,0.34-0.411,0.367-0.72C271.244,299.801,271.163,299.56,270.975,299.392z"/>
			<path style="fill:#FFFFFF;" d="M277.667,302.644l-0.091,1.04h-4.336l0.49-5.6h4.232l-0.091,1.04h-2.944l-0.106,1.216h2.6
				l-0.088,1.008h-2.6l-0.113,1.296H277.667z"/>
		</g>
		<g>
			<path style="fill:#263238;" d="M308.888,303.408c-0.44-0.248-0.772-0.592-0.998-1.032c-0.226-0.44-0.314-0.937-0.266-1.492
				s0.224-1.052,0.526-1.492c0.303-0.44,0.695-0.784,1.178-1.032c0.483-0.248,1.012-0.372,1.589-0.372
				c0.485,0,0.916,0.085,1.294,0.256c0.377,0.171,0.685,0.416,0.923,0.736l-0.899,0.768c-0.341-0.437-0.791-0.656-1.351-0.656
				c-0.347,0-0.663,0.076-0.948,0.228c-0.285,0.152-0.516,0.364-0.691,0.636c-0.176,0.272-0.279,0.581-0.309,0.928
				c-0.03,0.347,0.019,0.656,0.147,0.928c0.128,0.272,0.321,0.484,0.58,0.636c0.259,0.152,0.562,0.228,0.908,0.228
				c0.56,0,1.049-0.222,1.466-0.664l0.764,0.768c-0.295,0.325-0.647,0.573-1.057,0.744c-0.41,0.171-0.857,0.256-1.342,0.256
				C309.833,303.78,309.328,303.656,308.888,303.408z"/>
			<path style="fill:#263238;" d="M317.277,302.484h-2.6l-0.601,1.2h-1.328l2.986-5.6h1.28l2.014,5.6h-1.36L317.277,302.484z
				 M316.955,301.5l-0.7-2.144l-1.076,2.144H316.955z"/>
			<path style="fill:#263238;" d="M325.238,298.084l-0.49,5.6h-1.064l-2.494-3.4l-0.297,3.4h-1.28l0.49-5.6h1.072l2.487,3.4
				l0.297-3.4H325.238z"/>
			<path style="fill:#263238;" d="M327.232,303.408c-0.44-0.248-0.772-0.592-0.998-1.032c-0.226-0.44-0.314-0.937-0.266-1.492
				c0.049-0.555,0.224-1.052,0.527-1.492c0.303-0.44,0.695-0.784,1.178-1.032c0.483-0.248,1.013-0.372,1.589-0.372
				c0.485,0,0.916,0.085,1.294,0.256c0.377,0.171,0.685,0.416,0.923,0.736l-0.899,0.768c-0.341-0.437-0.791-0.656-1.351-0.656
				c-0.347,0-0.663,0.076-0.948,0.228c-0.285,0.152-0.516,0.364-0.691,0.636c-0.176,0.272-0.279,0.581-0.309,0.928
				c-0.03,0.347,0.019,0.656,0.147,0.928c0.128,0.272,0.321,0.484,0.58,0.636c0.259,0.152,0.562,0.228,0.908,0.228
				c0.56,0,1.049-0.222,1.466-0.664l0.764,0.768c-0.295,0.325-0.647,0.573-1.057,0.744c-0.41,0.171-0.857,0.256-1.342,0.256
				C328.177,303.78,327.672,303.656,327.232,303.408z"/>
			<path style="fill:#263238;" d="M336.366,302.644l-0.091,1.04h-4.336l0.49-5.6h4.232l-0.091,1.04h-2.944l-0.106,1.216h2.6
				l-0.088,1.008h-2.6l-0.113,1.296H336.366z"/>
			<path style="fill:#263238;" d="M337.798,298.084h1.296l-0.397,4.544h2.808l-0.092,1.056h-4.104L337.798,298.084z"/>
		</g>
		<polygon style="opacity:0.5;fill:#FFFFFF;" points="303.4,262.649 303.982,255.993 298.034,249.475 287.385,259.268 
			283.253,254.74 274.652,262.649 		"/>
		<path style="opacity:0.5;fill:#FFFFFF;" d="M292.58,247.149c-0.161,1.836-1.779,3.324-3.615,3.324
			c-1.836,0-3.194-1.488-3.033-3.324c0.161-1.836,1.779-3.324,3.615-3.324S292.741,245.313,292.58,247.149z"/>
	</g>
</g>
</svg>
